<?xml version="1.0" encoding="utf-8" standalone="no"?>
<!DOCTYPE svg PUBLIC "-//W3C//DTD SVG 1.1//EN"
  "http://www.w3.org/Graphics/SVG/1.1/DTD/svg11.dtd">
<svg xmlns:xlink="http://www.w3.org/1999/xlink" width="730.035988pt" height="172.003598pt" viewBox="0 0 730.035988 172.003598" xmlns="http://www.w3.org/2000/svg" version="1.1">
 <metadata>
  <rdf:RDF xmlns:dc="http://purl.org/dc/elements/1.1/" xmlns:cc="http://creativecommons.org/ns#" xmlns:rdf="http://www.w3.org/1999/02/22-rdf-syntax-ns#">
   <cc:Work>
    <dc:type rdf:resource="http://purl.org/dc/dcmitype/StillImage"/>
    <dc:date>2024-05-13T11:41:41.446892</dc:date>
    <dc:format>image/svg+xml</dc:format>
    <dc:creator>
     <cc:Agent>
      <dc:title>Matplotlib v3.8.4, https://matplotlib.org/</dc:title>
     </cc:Agent>
    </dc:creator>
   </cc:Work>
  </rdf:RDF>
 </metadata>
 <defs>
  <style type="text/css">*{stroke-linejoin: round; stroke-linecap: butt}</style>
 </defs>
 <g id="figure_1">
  <g id="patch_1">
   <path d="M 0 172.003598 
L 730.035988 172.003598 
L 730.035988 0 
L 0 0 
z
" style="fill: #ffffff"/>
  </g>
  <g id="axes_1">
   <g id="line2d_1">
    <path d="M 64.609196 44.2832 
L 718.200588 44.2832 
" clip-path="url(#p1ffac8e76f)" style="fill: none; stroke: #000000; stroke-width: 2; stroke-linecap: square"/>
   </g>
   <g id="line2d_2">
    <path d="M 64.609196 90.637199 
L 718.200588 90.637199 
" clip-path="url(#p1ffac8e76f)" style="fill: none; stroke: #000000; stroke-width: 2; stroke-linecap: square"/>
   </g>
   <g id="line2d_3">
    <path d="M 64.609196 136.991198 
L 718.200588 136.991198 
" clip-path="url(#p1ffac8e76f)" style="fill: none; stroke: #000000; stroke-width: 2; stroke-linecap: square"/>
   </g>
   <g id="patch_2">
    <path d="M 59.973797 21.1062 
L -1098.876188 21.1062 
L -1098.876188 206.522197 
L 59.973797 206.522197 
z
" clip-path="url(#p1ffac8e76f)" style="fill: #ffffff; stroke: #ffffff; stroke-width: 1.5; stroke-linejoin: miter"/>
   </g>
   <g id="line2d_4">
    <path d="M 135.994356 90.637199 
L 135.994356 44.2832 
" clip-path="url(#p1ffac8e76f)" style="fill: none; stroke: #33b1ff; stroke-width: 2; stroke-linecap: square"/>
   </g>
   <g id="line2d_5">
    <path d="M 228.702354 136.991198 
L 228.702354 90.637199 
" clip-path="url(#p1ffac8e76f)" style="fill: none; stroke: #33b1ff; stroke-width: 2; stroke-linecap: square"/>
   </g>
   <g id="line2d_6">
    <path d="M 275.056354 136.991198 
L 275.056354 44.2832 
" clip-path="url(#p1ffac8e76f)" style="fill: none; stroke: #33b1ff; stroke-width: 2; stroke-linecap: square"/>
   </g>
   <g id="line2d_7">
    <path d="M 367.764352 136.991198 
L 367.764352 44.2832 
" clip-path="url(#p1ffac8e76f)" style="fill: none; stroke: #9f1853; stroke-width: 2; stroke-linecap: square"/>
   </g>
   <g id="line2d_8">
    <path d="M 460.472351 90.637199 
L 460.472351 44.2832 
" clip-path="url(#p1ffac8e76f)" style="fill: none; stroke: #33b1ff; stroke-width: 2; stroke-linecap: square"/>
   </g>
   <g id="line2d_9">
    <path d="M 553.18035 136.991198 
L 553.18035 90.637199 
" clip-path="url(#p1ffac8e76f)" style="fill: none; stroke: #33b1ff; stroke-width: 2; stroke-linecap: square"/>
   </g>
   <g id="line2d_10">
    <path d="M 599.534349 136.991198 
L 599.534349 44.2832 
" clip-path="url(#p1ffac8e76f)" style="fill: none; stroke: #33b1ff; stroke-width: 2; stroke-linecap: square"/>
   </g>
   <g id="line2d_11">
    <path d="M 692.242348 136.991198 
L 692.242348 44.2832 
" clip-path="url(#p1ffac8e76f)" style="fill: none; stroke: #9f1853; stroke-width: 2; stroke-linecap: square"/>
   </g>
   <g id="line2d_12">
    <path d="M 135.994356 90.637199 
L 135.994356 44.2832 
" clip-path="url(#p1ffac8e76f)" style="fill: none; stroke: #33b1ff; stroke-width: 2; stroke-linecap: square"/>
   </g>
   <g id="line2d_13">
    <path d="M 228.702354 136.991198 
L 228.702354 90.637199 
" clip-path="url(#p1ffac8e76f)" style="fill: none; stroke: #33b1ff; stroke-width: 2; stroke-linecap: square"/>
   </g>
   <g id="line2d_14">
    <path d="M 275.056354 136.991198 
L 275.056354 44.2832 
" clip-path="url(#p1ffac8e76f)" style="fill: none; stroke: #33b1ff; stroke-width: 2; stroke-linecap: square"/>
   </g>
   <g id="line2d_15">
    <path d="M 367.764352 136.991198 
L 367.764352 44.2832 
" clip-path="url(#p1ffac8e76f)" style="fill: none; stroke: #9f1853; stroke-width: 2; stroke-linecap: square"/>
   </g>
   <g id="line2d_16">
    <path d="M 460.472351 90.637199 
L 460.472351 44.2832 
" clip-path="url(#p1ffac8e76f)" style="fill: none; stroke: #33b1ff; stroke-width: 2; stroke-linecap: square"/>
   </g>
   <g id="line2d_17">
    <path d="M 553.18035 136.991198 
L 553.18035 90.637199 
" clip-path="url(#p1ffac8e76f)" style="fill: none; stroke: #33b1ff; stroke-width: 2; stroke-linecap: square"/>
   </g>
   <g id="line2d_18">
    <path d="M 599.534349 136.991198 
L 599.534349 44.2832 
" clip-path="url(#p1ffac8e76f)" style="fill: none; stroke: #33b1ff; stroke-width: 2; stroke-linecap: square"/>
   </g>
   <g id="line2d_19">
    <path d="M 692.242348 136.991198 
L 692.242348 44.2832 
" clip-path="url(#p1ffac8e76f)" style="fill: none; stroke: #9f1853; stroke-width: 2; stroke-linecap: square"/>
   </g>
   <g id="patch_3">
    <path d="M 72.06292 59.348249 
L 107.217793 59.348249 
L 107.217793 29.21815 
L 72.06292 29.21815 
z
" clip-path="url(#p1ffac8e76f)" style="fill: #9f1853; stroke: #9f1853; stroke-width: 1.5; stroke-linejoin: miter"/>
   </g>
   <g id="patch_4">
    <path d="M 72.06292 105.702249 
L 107.217793 105.702249 
L 107.217793 75.572149 
L 72.06292 75.572149 
z
" clip-path="url(#p1ffac8e76f)" style="fill: #9f1853; stroke: #9f1853; stroke-width: 1.5; stroke-linejoin: miter"/>
   </g>
   <g id="patch_5">
    <path d="M 72.014248 152.056248 
L 107.266464 152.056248 
L 107.266464 121.926148 
L 72.014248 121.926148 
z
" clip-path="url(#p1ffac8e76f)" style="fill: #9f1853; stroke: #9f1853; stroke-width: 1.5; stroke-linejoin: miter"/>
   </g>
   <g id="patch_6">
    <path d="M 135.994356 48.802714 
C 137.192945 48.802714 138.342605 48.32651 139.190135 47.478979 
C 140.037666 46.631448 140.51387 45.481789 140.51387 44.2832 
C 140.51387 43.08461 140.037666 41.934951 139.190135 41.08742 
C 138.342605 40.239889 137.192945 39.763685 135.994356 39.763685 
C 134.795766 39.763685 133.646107 40.239889 132.798576 41.08742 
C 131.951045 41.934951 131.474841 43.08461 131.474841 44.2832 
C 131.474841 45.481789 131.951045 46.631448 132.798576 47.478979 
C 133.646107 48.32651 134.795766 48.802714 135.994356 48.802714 
z
" clip-path="url(#p1ffac8e76f)" style="fill: #33b1ff; stroke: #33b1ff; stroke-width: 1.5; stroke-linejoin: miter"/>
   </g>
   <g id="patch_7">
    <path d="M 135.994356 95.156714 
C 137.192945 95.156714 138.342605 94.680509 139.190135 93.832979 
C 140.037666 92.985448 140.51387 91.835788 140.51387 90.637199 
C 140.51387 89.43861 140.037666 88.28895 139.190135 87.441419 
C 138.342605 86.593889 137.192945 86.117684 135.994356 86.117684 
C 134.795766 86.117684 133.646107 86.593889 132.798576 87.441419 
C 131.951045 88.28895 131.474841 89.43861 131.474841 90.637199 
C 131.474841 91.835788 131.951045 92.985448 132.798576 93.832979 
C 133.646107 94.680509 134.795766 95.156714 135.994356 95.156714 
z
" clip-path="url(#p1ffac8e76f)" style="fill: #33b1ff; stroke: #33b1ff; stroke-width: 1.5; stroke-linejoin: miter"/>
   </g>
   <g id="patch_8">
    <path d="M 118.416919 152.056248 
L 153.571792 152.056248 
L 153.571792 121.926148 
L 118.416919 121.926148 
z
" clip-path="url(#p1ffac8e76f)" style="fill: #9f1853; stroke: #9f1853; stroke-width: 1.5; stroke-linejoin: miter"/>
   </g>
   <g id="patch_9">
    <path d="M 164.770918 59.348249 
L 199.925791 59.348249 
L 199.925791 29.21815 
L 164.770918 29.21815 
z
" clip-path="url(#p1ffac8e76f)" style="fill: #9f1853; stroke: #9f1853; stroke-width: 1.5; stroke-linejoin: miter"/>
   </g>
   <g id="patch_10">
    <path d="M 164.722247 105.702249 
L 199.974463 105.702249 
L 199.974463 75.572149 
L 164.722247 75.572149 
z
" clip-path="url(#p1ffac8e76f)" style="fill: #9f1853; stroke: #9f1853; stroke-width: 1.5; stroke-linejoin: miter"/>
   </g>
   <g id="patch_11">
    <path d="M 228.702354 95.156714 
C 229.900944 95.156714 231.050603 94.680509 231.898134 93.832979 
C 232.745665 92.985448 233.221869 91.835788 233.221869 90.637199 
C 233.221869 89.43861 232.745665 88.28895 231.898134 87.441419 
C 231.050603 86.593889 229.900944 86.117684 228.702354 86.117684 
C 227.503765 86.117684 226.354105 86.593889 225.506575 87.441419 
C 224.659044 88.28895 224.182839 89.43861 224.182839 90.637199 
C 224.182839 91.835788 224.659044 92.985448 225.506575 93.832979 
C 226.354105 94.680509 227.503765 95.156714 228.702354 95.156714 
z
" clip-path="url(#p1ffac8e76f)" style="fill: #33b1ff; stroke: #33b1ff; stroke-width: 1.5; stroke-linejoin: miter"/>
   </g>
   <g id="patch_12">
    <path d="M 228.702354 141.510713 
C 229.900944 141.510713 231.050603 141.034509 231.898134 140.186978 
C 232.745665 139.339447 233.221869 138.189788 233.221869 136.991198 
C 233.221869 135.792609 232.745665 134.642949 231.898134 133.795419 
C 231.050603 132.947888 229.900944 132.471683 228.702354 132.471683 
C 227.503765 132.471683 226.354105 132.947888 225.506575 133.795419 
C 224.659044 134.642949 224.182839 135.792609 224.182839 136.991198 
C 224.182839 138.189788 224.659044 139.339447 225.506575 140.186978 
C 226.354105 141.034509 227.503765 141.510713 228.702354 141.510713 
z
" clip-path="url(#p1ffac8e76f)" style="fill: #33b1ff; stroke: #33b1ff; stroke-width: 1.5; stroke-linejoin: miter"/>
   </g>
   <g id="patch_13">
    <path d="M 275.056354 48.802714 
C 276.254943 48.802714 277.404603 48.32651 278.252133 47.478979 
C 279.099664 46.631448 279.575869 45.481789 279.575869 44.2832 
C 279.575869 43.08461 279.099664 41.934951 278.252133 41.08742 
C 277.404603 40.239889 276.254943 39.763685 275.056354 39.763685 
C 273.857764 39.763685 272.708105 40.239889 271.860574 41.08742 
C 271.013043 41.934951 270.536839 43.08461 270.536839 44.2832 
C 270.536839 45.481789 271.013043 46.631448 271.860574 47.478979 
C 272.708105 48.32651 273.857764 48.802714 275.056354 48.802714 
z
" clip-path="url(#p1ffac8e76f)" style="fill: #33b1ff; stroke: #33b1ff; stroke-width: 1.5; stroke-linejoin: miter"/>
   </g>
   <g id="patch_14">
    <path d="M 275.056354 141.510713 
C 276.254943 141.510713 277.404603 141.034509 278.252133 140.186978 
C 279.099664 139.339447 279.575869 138.189788 279.575869 136.991198 
C 279.575869 135.792609 279.099664 134.642949 278.252133 133.795419 
C 277.404603 132.947888 276.254943 132.471683 275.056354 132.471683 
C 273.857764 132.471683 272.708105 132.947888 271.860574 133.795419 
C 271.013043 134.642949 270.536839 135.792609 270.536839 136.991198 
C 270.536839 138.189788 271.013043 139.339447 271.860574 140.186978 
C 272.708105 141.034509 273.857764 141.510713 275.056354 141.510713 
z
" clip-path="url(#p1ffac8e76f)" style="fill: #33b1ff; stroke: #33b1ff; stroke-width: 1.5; stroke-linejoin: miter"/>
   </g>
   <g id="patch_15">
    <path d="M 303.784245 105.702249 
L 339.036461 105.702249 
L 339.036461 75.572149 
L 303.784245 75.572149 
z
" clip-path="url(#p1ffac8e76f)" style="fill: #9f1853; stroke: #9f1853; stroke-width: 1.5; stroke-linejoin: miter"/>
   </g>
   <g id="patch_16">
    <path d="M 303.832916 59.348249 
L 338.98779 59.348249 
L 338.98779 29.21815 
L 303.832916 29.21815 
z
" clip-path="url(#p1ffac8e76f)" style="fill: #9f1853; stroke: #9f1853; stroke-width: 1.5; stroke-linejoin: miter"/>
   </g>
   <g id="patch_17">
    <path d="M 303.784245 152.056248 
L 339.036461 152.056248 
L 339.036461 121.926148 
L 303.784245 121.926148 
z
" clip-path="url(#p1ffac8e76f)" style="fill: #9f1853; stroke: #9f1853; stroke-width: 1.5; stroke-linejoin: miter"/>
   </g>
   <g id="patch_18">
    <path d="M 367.764352 48.802714 
C 368.962942 48.802714 370.112601 48.32651 370.960132 47.478979 
C 371.807663 46.631448 372.283867 45.481789 372.283867 44.2832 
C 372.283867 43.08461 371.807663 41.934951 370.960132 41.08742 
C 370.112601 40.239889 368.962942 39.763685 367.764352 39.763685 
C 366.565763 39.763685 365.416103 40.239889 364.568573 41.08742 
C 363.721042 41.934951 363.244837 43.08461 363.244837 44.2832 
C 363.244837 45.481789 363.721042 46.631448 364.568573 47.478979 
C 365.416103 48.32651 366.565763 48.802714 367.764352 48.802714 
z
" clip-path="url(#p1ffac8e76f)" style="fill: #9f1853; stroke: #9f1853; stroke-width: 1.5; stroke-linejoin: miter"/>
   </g>
   <g id="patch_19">
    <path d="M 367.764352 95.156714 
C 368.962942 95.156714 370.112601 94.680509 370.960132 93.832979 
C 371.807663 92.985448 372.283867 91.835788 372.283867 90.637199 
C 372.283867 89.43861 371.807663 88.28895 370.960132 87.441419 
C 370.112601 86.593889 368.962942 86.117684 367.764352 86.117684 
C 366.565763 86.117684 365.416103 86.593889 364.568573 87.441419 
C 363.721042 88.28895 363.244837 89.43861 363.244837 90.637199 
C 363.244837 91.835788 363.721042 92.985448 364.568573 93.832979 
C 365.416103 94.680509 366.565763 95.156714 367.764352 95.156714 
z
" clip-path="url(#p1ffac8e76f)" style="fill: #9f1853; stroke: #9f1853; stroke-width: 1.5; stroke-linejoin: miter"/>
   </g>
   <g id="patch_20">
    <path d="M 367.764352 141.510713 
C 368.962942 141.510713 370.112601 141.034509 370.960132 140.186978 
C 371.807663 139.339447 372.283867 138.189788 372.283867 136.991198 
C 372.283867 135.792609 371.807663 134.642949 370.960132 133.795419 
C 370.112601 132.947888 368.962942 132.471683 367.764352 132.471683 
C 366.565763 132.471683 365.416103 132.947888 364.568573 133.795419 
C 363.721042 134.642949 363.244837 135.792609 363.244837 136.991198 
C 363.244837 138.189788 363.721042 139.339447 364.568573 140.186978 
C 365.416103 141.034509 366.565763 141.510713 367.764352 141.510713 
z
" clip-path="url(#p1ffac8e76f)" style="fill: #9f1853; stroke: #9f1853; stroke-width: 1.5; stroke-linejoin: miter"/>
   </g>
   <g id="patch_21">
    <path d="M 396.492244 59.348249 
L 431.74446 59.348249 
L 431.74446 29.21815 
L 396.492244 29.21815 
z
" clip-path="url(#p1ffac8e76f)" style="fill: #9f1853; stroke: #9f1853; stroke-width: 1.5; stroke-linejoin: miter"/>
   </g>
   <g id="patch_22">
    <path d="M 393.836159 105.702249 
L 434.400544 105.702249 
L 434.400544 75.572149 
L 393.836159 75.572149 
z
" clip-path="url(#p1ffac8e76f)" style="fill: #9f1853; stroke: #9f1853; stroke-width: 1.5; stroke-linejoin: miter"/>
   </g>
   <g id="patch_23">
    <path d="M 393.836159 152.056248 
L 434.400544 152.056248 
L 434.400544 121.926148 
L 393.836159 121.926148 
z
" clip-path="url(#p1ffac8e76f)" style="fill: #9f1853; stroke: #9f1853; stroke-width: 1.5; stroke-linejoin: miter"/>
   </g>
   <g id="patch_24">
    <path d="M 460.472351 48.802714 
C 461.670941 48.802714 462.8206 48.32651 463.668131 47.478979 
C 464.515662 46.631448 464.991866 45.481789 464.991866 44.2832 
C 464.991866 43.08461 464.515662 41.934951 463.668131 41.08742 
C 462.8206 40.239889 461.670941 39.763685 460.472351 39.763685 
C 459.273762 39.763685 458.124102 40.239889 457.276572 41.08742 
C 456.429041 41.934951 455.952836 43.08461 455.952836 44.2832 
C 455.952836 45.481789 456.429041 46.631448 457.276572 47.478979 
C 458.124102 48.32651 459.273762 48.802714 460.472351 48.802714 
z
" clip-path="url(#p1ffac8e76f)" style="fill: #33b1ff; stroke: #33b1ff; stroke-width: 1.5; stroke-linejoin: miter"/>
   </g>
   <g id="patch_25">
    <path d="M 460.472351 95.156714 
C 461.670941 95.156714 462.8206 94.680509 463.668131 93.832979 
C 464.515662 92.985448 464.991866 91.835788 464.991866 90.637199 
C 464.991866 89.43861 464.515662 88.28895 463.668131 87.441419 
C 462.8206 86.593889 461.670941 86.117684 460.472351 86.117684 
C 459.273762 86.117684 458.124102 86.593889 457.276572 87.441419 
C 456.429041 88.28895 455.952836 89.43861 455.952836 90.637199 
C 455.952836 91.835788 456.429041 92.985448 457.276572 93.832979 
C 458.124102 94.680509 459.273762 95.156714 460.472351 95.156714 
z
" clip-path="url(#p1ffac8e76f)" style="fill: #33b1ff; stroke: #33b1ff; stroke-width: 1.5; stroke-linejoin: miter"/>
   </g>
   <g id="patch_26">
    <path d="M 440.141487 152.056248 
L 480.803215 152.056248 
L 480.803215 121.926148 
L 440.141487 121.926148 
z
" clip-path="url(#p1ffac8e76f)" style="fill: #9f1853; stroke: #9f1853; stroke-width: 1.5; stroke-linejoin: miter"/>
   </g>
   <g id="patch_27">
    <path d="M 486.495486 59.348249 
L 527.157215 59.348249 
L 527.157215 29.21815 
L 486.495486 29.21815 
z
" clip-path="url(#p1ffac8e76f)" style="fill: #9f1853; stroke: #9f1853; stroke-width: 1.5; stroke-linejoin: miter"/>
   </g>
   <g id="patch_28">
    <path d="M 486.544158 105.702249 
L 527.108543 105.702249 
L 527.108543 75.572149 
L 486.544158 75.572149 
z
" clip-path="url(#p1ffac8e76f)" style="fill: #9f1853; stroke: #9f1853; stroke-width: 1.5; stroke-linejoin: miter"/>
   </g>
   <g id="patch_29">
    <path d="M 553.18035 95.156714 
C 554.378939 95.156714 555.528599 94.680509 556.37613 93.832979 
C 557.22366 92.985448 557.699865 91.835788 557.699865 90.637199 
C 557.699865 89.43861 557.22366 88.28895 556.37613 87.441419 
C 555.528599 86.593889 554.378939 86.117684 553.18035 86.117684 
C 551.981761 86.117684 550.832101 86.593889 549.98457 87.441419 
C 549.13704 88.28895 548.660835 89.43861 548.660835 90.637199 
C 548.660835 91.835788 549.13704 92.985448 549.98457 93.832979 
C 550.832101 94.680509 551.981761 95.156714 553.18035 95.156714 
z
" clip-path="url(#p1ffac8e76f)" style="fill: #33b1ff; stroke: #33b1ff; stroke-width: 1.5; stroke-linejoin: miter"/>
   </g>
   <g id="patch_30">
    <path d="M 553.18035 141.510713 
C 554.378939 141.510713 555.528599 141.034509 556.37613 140.186978 
C 557.22366 139.339447 557.699865 138.189788 557.699865 136.991198 
C 557.699865 135.792609 557.22366 134.642949 556.37613 133.795419 
C 555.528599 132.947888 554.378939 132.471683 553.18035 132.471683 
C 551.981761 132.471683 550.832101 132.947888 549.98457 133.795419 
C 549.13704 134.642949 548.660835 135.792609 548.660835 136.991198 
C 548.660835 138.189788 549.13704 139.339447 549.98457 140.186978 
C 550.832101 141.034509 551.981761 141.510713 553.18035 141.510713 
z
" clip-path="url(#p1ffac8e76f)" style="fill: #33b1ff; stroke: #33b1ff; stroke-width: 1.5; stroke-linejoin: miter"/>
   </g>
   <g id="patch_31">
    <path d="M 599.534349 48.802714 
C 600.732939 48.802714 601.882598 48.32651 602.730129 47.478979 
C 603.57766 46.631448 604.053864 45.481789 604.053864 44.2832 
C 604.053864 43.08461 603.57766 41.934951 602.730129 41.08742 
C 601.882598 40.239889 600.732939 39.763685 599.534349 39.763685 
C 598.33576 39.763685 597.1861 40.239889 596.33857 41.08742 
C 595.491039 41.934951 595.014834 43.08461 595.014834 44.2832 
C 595.014834 45.481789 595.491039 46.631448 596.33857 47.478979 
C 597.1861 48.32651 598.33576 48.802714 599.534349 48.802714 
z
" clip-path="url(#p1ffac8e76f)" style="fill: #33b1ff; stroke: #33b1ff; stroke-width: 1.5; stroke-linejoin: miter"/>
   </g>
   <g id="patch_32">
    <path d="M 599.534349 141.510713 
C 600.732939 141.510713 601.882598 141.034509 602.730129 140.186978 
C 603.57766 139.339447 604.053864 138.189788 604.053864 136.991198 
C 604.053864 135.792609 603.57766 134.642949 602.730129 133.795419 
C 601.882598 132.947888 600.732939 132.471683 599.534349 132.471683 
C 598.33576 132.471683 597.1861 132.947888 596.33857 133.795419 
C 595.491039 134.642949 595.014834 135.792609 595.014834 136.991198 
C 595.014834 138.189788 595.491039 139.339447 596.33857 140.186978 
C 597.1861 141.034509 598.33576 141.510713 599.534349 141.510713 
z
" clip-path="url(#p1ffac8e76f)" style="fill: #33b1ff; stroke: #33b1ff; stroke-width: 1.5; stroke-linejoin: miter"/>
   </g>
   <g id="patch_33">
    <path d="M 625.606156 105.702249 
L 666.170541 105.702249 
L 666.170541 75.572149 
L 625.606156 75.572149 
z
" clip-path="url(#p1ffac8e76f)" style="fill: #9f1853; stroke: #9f1853; stroke-width: 1.5; stroke-linejoin: miter"/>
   </g>
   <g id="patch_34">
    <path d="M 625.606156 59.348249 
L 666.170541 59.348249 
L 666.170541 29.21815 
L 625.606156 29.21815 
z
" clip-path="url(#p1ffac8e76f)" style="fill: #9f1853; stroke: #9f1853; stroke-width: 1.5; stroke-linejoin: miter"/>
   </g>
   <g id="patch_35">
    <path d="M 625.557485 152.056248 
L 666.219213 152.056248 
L 666.219213 121.926148 
L 625.557485 121.926148 
z
" clip-path="url(#p1ffac8e76f)" style="fill: #9f1853; stroke: #9f1853; stroke-width: 1.5; stroke-linejoin: miter"/>
   </g>
   <g id="patch_36">
    <path d="M 692.242348 48.802714 
C 693.440937 48.802714 694.590597 48.32651 695.438128 47.478979 
C 696.285658 46.631448 696.761863 45.481789 696.761863 44.2832 
C 696.761863 43.08461 696.285658 41.934951 695.438128 41.08742 
C 694.590597 40.239889 693.440937 39.763685 692.242348 39.763685 
C 691.043759 39.763685 689.894099 40.239889 689.046568 41.08742 
C 688.199038 41.934951 687.722833 43.08461 687.722833 44.2832 
C 687.722833 45.481789 688.199038 46.631448 689.046568 47.478979 
C 689.894099 48.32651 691.043759 48.802714 692.242348 48.802714 
z
" clip-path="url(#p1ffac8e76f)" style="fill: #9f1853; stroke: #9f1853; stroke-width: 1.5; stroke-linejoin: miter"/>
   </g>
   <g id="patch_37">
    <path d="M 692.242348 95.156714 
C 693.440937 95.156714 694.590597 94.680509 695.438128 93.832979 
C 696.285658 92.985448 696.761863 91.835788 696.761863 90.637199 
C 696.761863 89.43861 696.285658 88.28895 695.438128 87.441419 
C 694.590597 86.593889 693.440937 86.117684 692.242348 86.117684 
C 691.043759 86.117684 689.894099 86.593889 689.046568 87.441419 
C 688.199038 88.28895 687.722833 89.43861 687.722833 90.637199 
C 687.722833 91.835788 688.199038 92.985448 689.046568 93.832979 
C 689.894099 94.680509 691.043759 95.156714 692.242348 95.156714 
z
" clip-path="url(#p1ffac8e76f)" style="fill: #9f1853; stroke: #9f1853; stroke-width: 1.5; stroke-linejoin: miter"/>
   </g>
   <g id="patch_38">
    <path d="M 692.242348 141.510713 
C 693.440937 141.510713 694.590597 141.034509 695.438128 140.186978 
C 696.285658 139.339447 696.761863 138.189788 696.761863 136.991198 
C 696.761863 135.792609 696.285658 134.642949 695.438128 133.795419 
C 694.590597 132.947888 693.440937 132.471683 692.242348 132.471683 
C 691.043759 132.471683 689.894099 132.947888 689.046568 133.795419 
C 688.199038 134.642949 687.722833 135.792609 687.722833 136.991198 
C 687.722833 138.189788 688.199038 139.339447 689.046568 140.186978 
C 689.894099 141.034509 691.043759 141.510713 692.242348 141.510713 
z
" clip-path="url(#p1ffac8e76f)" style="fill: #9f1853; stroke: #9f1853; stroke-width: 1.5; stroke-linejoin: miter"/>
   </g>
   <g id="text_1">
    <g clip-path="url(#p1ffac8e76f)">
     <!-- ${q}_{0}$ -->
     <g transform="translate(37.300897 48.734176) scale(0.1625 -0.1625)">
      <defs>
       <path id="DejaVuSans-Oblique-71" d="M 2669 525 
Q 2438 222 2123 65 
Q 1809 -91 1428 -91 
Q 897 -91 595 267 
Q 294 625 294 1253 
Q 294 1759 480 2231 
Q 666 2703 1013 3078 
Q 1238 3322 1530 3453 
Q 1822 3584 2144 3584 
Q 2531 3584 2781 3431 
Q 3031 3278 3144 2969 
L 3244 3494 
L 3822 3494 
L 2888 -1319 
L 2309 -1319 
L 2669 525 
z
M 891 1338 
Q 891 875 1084 633 
Q 1278 391 1644 391 
Q 2188 391 2572 911 
Q 2956 1431 2956 2175 
Q 2956 2625 2757 2864 
Q 2559 3103 2188 3103 
Q 1916 3103 1684 2976 
Q 1453 2850 1281 2606 
Q 1100 2350 995 2006 
Q 891 1663 891 1338 
z
" transform="scale(0.015625)"/>
       <path id="DejaVuSans-30" d="M 2034 4250 
Q 1547 4250 1301 3770 
Q 1056 3291 1056 2328 
Q 1056 1369 1301 889 
Q 1547 409 2034 409 
Q 2525 409 2770 889 
Q 3016 1369 3016 2328 
Q 3016 3291 2770 3770 
Q 2525 4250 2034 4250 
z
M 2034 4750 
Q 2819 4750 3233 4129 
Q 3647 3509 3647 2328 
Q 3647 1150 3233 529 
Q 2819 -91 2034 -91 
Q 1250 -91 836 529 
Q 422 1150 422 2328 
Q 422 3509 836 4129 
Q 1250 4750 2034 4750 
z
" transform="scale(0.015625)"/>
      </defs>
      <use xlink:href="#DejaVuSans-Oblique-71"/>
      <use xlink:href="#DejaVuSans-30" transform="translate(63.476562 -16.40625) scale(0.7)"/>
     </g>
    </g>
   </g>
   <g id="text_2">
    <g clip-path="url(#p1ffac8e76f)">
     <!-- ${q}_{1}$ -->
     <g transform="translate(37.300897 95.088175) scale(0.1625 -0.1625)">
      <defs>
       <path id="DejaVuSans-31" d="M 794 531 
L 1825 531 
L 1825 4091 
L 703 3866 
L 703 4441 
L 1819 4666 
L 2450 4666 
L 2450 531 
L 3481 531 
L 3481 0 
L 794 0 
L 794 531 
z
" transform="scale(0.015625)"/>
      </defs>
      <use xlink:href="#DejaVuSans-Oblique-71"/>
      <use xlink:href="#DejaVuSans-31" transform="translate(63.476562 -16.40625) scale(0.7)"/>
     </g>
    </g>
   </g>
   <g id="text_3">
    <g clip-path="url(#p1ffac8e76f)">
     <!-- ${q}_{2}$ -->
     <g transform="translate(37.300897 141.442175) scale(0.1625 -0.1625)">
      <defs>
       <path id="DejaVuSans-32" d="M 1228 531 
L 3431 531 
L 3431 0 
L 469 0 
L 469 531 
Q 828 903 1448 1529 
Q 2069 2156 2228 2338 
Q 2531 2678 2651 2914 
Q 2772 3150 2772 3378 
Q 2772 3750 2511 3984 
Q 2250 4219 1831 4219 
Q 1534 4219 1204 4116 
Q 875 4013 500 3803 
L 500 4441 
Q 881 4594 1212 4672 
Q 1544 4750 1819 4750 
Q 2544 4750 2975 4387 
Q 3406 4025 3406 3419 
Q 3406 3131 3298 2873 
Q 3191 2616 2906 2266 
Q 2828 2175 2409 1742 
Q 1991 1309 1228 531 
z
" transform="scale(0.015625)"/>
      </defs>
      <use xlink:href="#DejaVuSans-Oblique-71"/>
      <use xlink:href="#DejaVuSans-32" transform="translate(63.476562 -16.40625) scale(0.7)"/>
     </g>
    </g>
   </g>
   <g id="text_4">
    <g clip-path="url(#p1ffac8e76f)">
     <!-- theta[0] -->
     <g style="fill: #ffffff" transform="translate(73.390356 55.529729) scale(0.08 -0.08)">
      <defs>
       <path id="DejaVuSans-74" d="M 1172 4494 
L 1172 3500 
L 2356 3500 
L 2356 3053 
L 1172 3053 
L 1172 1153 
Q 1172 725 1289 603 
Q 1406 481 1766 481 
L 2356 481 
L 2356 0 
L 1766 0 
Q 1100 0 847 248 
Q 594 497 594 1153 
L 594 3053 
L 172 3053 
L 172 3500 
L 594 3500 
L 594 4494 
L 1172 4494 
z
" transform="scale(0.015625)"/>
       <path id="DejaVuSans-68" d="M 3513 2113 
L 3513 0 
L 2938 0 
L 2938 2094 
Q 2938 2591 2744 2837 
Q 2550 3084 2163 3084 
Q 1697 3084 1428 2787 
Q 1159 2491 1159 1978 
L 1159 0 
L 581 0 
L 581 4863 
L 1159 4863 
L 1159 2956 
Q 1366 3272 1645 3428 
Q 1925 3584 2291 3584 
Q 2894 3584 3203 3211 
Q 3513 2838 3513 2113 
z
" transform="scale(0.015625)"/>
       <path id="DejaVuSans-65" d="M 3597 1894 
L 3597 1613 
L 953 1613 
Q 991 1019 1311 708 
Q 1631 397 2203 397 
Q 2534 397 2845 478 
Q 3156 559 3463 722 
L 3463 178 
Q 3153 47 2828 -22 
Q 2503 -91 2169 -91 
Q 1331 -91 842 396 
Q 353 884 353 1716 
Q 353 2575 817 3079 
Q 1281 3584 2069 3584 
Q 2775 3584 3186 3129 
Q 3597 2675 3597 1894 
z
M 3022 2063 
Q 3016 2534 2758 2815 
Q 2500 3097 2075 3097 
Q 1594 3097 1305 2825 
Q 1016 2553 972 2059 
L 3022 2063 
z
" transform="scale(0.015625)"/>
       <path id="DejaVuSans-61" d="M 2194 1759 
Q 1497 1759 1228 1600 
Q 959 1441 959 1056 
Q 959 750 1161 570 
Q 1363 391 1709 391 
Q 2188 391 2477 730 
Q 2766 1069 2766 1631 
L 2766 1759 
L 2194 1759 
z
M 3341 1997 
L 3341 0 
L 2766 0 
L 2766 531 
Q 2569 213 2275 61 
Q 1981 -91 1556 -91 
Q 1019 -91 701 211 
Q 384 513 384 1019 
Q 384 1609 779 1909 
Q 1175 2209 1959 2209 
L 2766 2209 
L 2766 2266 
Q 2766 2663 2505 2880 
Q 2244 3097 1772 3097 
Q 1472 3097 1187 3025 
Q 903 2953 641 2809 
L 641 3341 
Q 956 3463 1253 3523 
Q 1550 3584 1831 3584 
Q 2591 3584 2966 3190 
Q 3341 2797 3341 1997 
z
" transform="scale(0.015625)"/>
       <path id="DejaVuSans-5b" d="M 550 4863 
L 1875 4863 
L 1875 4416 
L 1125 4416 
L 1125 -397 
L 1875 -397 
L 1875 -844 
L 550 -844 
L 550 4863 
z
" transform="scale(0.015625)"/>
       <path id="DejaVuSans-5d" d="M 1947 4863 
L 1947 -844 
L 622 -844 
L 622 -397 
L 1369 -397 
L 1369 4416 
L 622 4416 
L 622 4863 
L 1947 4863 
z
" transform="scale(0.015625)"/>
      </defs>
      <use xlink:href="#DejaVuSans-74"/>
      <use xlink:href="#DejaVuSans-68" x="39.208984"/>
      <use xlink:href="#DejaVuSans-65" x="102.587891"/>
      <use xlink:href="#DejaVuSans-74" x="164.111328"/>
      <use xlink:href="#DejaVuSans-61" x="203.320312"/>
      <use xlink:href="#DejaVuSans-5b" x="264.599609"/>
      <use xlink:href="#DejaVuSans-30" x="303.613281"/>
      <use xlink:href="#DejaVuSans-5d" x="367.236328"/>
     </g>
    </g>
   </g>
   <g id="text_5">
    <g clip-path="url(#p1ffac8e76f)">
     <!-- $\mathrm{R_Y}$ -->
     <g style="fill: #ffffff" transform="translate(82.100356 43.350872) scale(0.13 -0.13)">
      <defs>
       <path id="DejaVuSans-52" d="M 2841 2188 
Q 3044 2119 3236 1894 
Q 3428 1669 3622 1275 
L 4263 0 
L 3584 0 
L 2988 1197 
Q 2756 1666 2539 1819 
Q 2322 1972 1947 1972 
L 1259 1972 
L 1259 0 
L 628 0 
L 628 4666 
L 2053 4666 
Q 2853 4666 3247 4331 
Q 3641 3997 3641 3322 
Q 3641 2881 3436 2590 
Q 3231 2300 2841 2188 
z
M 1259 4147 
L 1259 2491 
L 2053 2491 
Q 2509 2491 2742 2702 
Q 2975 2913 2975 3322 
Q 2975 3731 2742 3939 
Q 2509 4147 2053 4147 
L 1259 4147 
z
" transform="scale(0.015625)"/>
       <path id="DejaVuSans-59" d="M -13 4666 
L 666 4666 
L 1959 2747 
L 3244 4666 
L 3922 4666 
L 2272 2222 
L 2272 0 
L 1638 0 
L 1638 2222 
L -13 4666 
z
" transform="scale(0.015625)"/>
      </defs>
      <use xlink:href="#DejaVuSans-52" transform="translate(0 0.09375)"/>
      <use xlink:href="#DejaVuSans-59" transform="translate(70.439453 -16.3125) scale(0.7)"/>
     </g>
    </g>
   </g>
   <g id="text_6">
    <g clip-path="url(#p1ffac8e76f)">
     <!-- theta[1] -->
     <g style="fill: #ffffff" transform="translate(73.390356 101.883729) scale(0.08 -0.08)">
      <use xlink:href="#DejaVuSans-74"/>
      <use xlink:href="#DejaVuSans-68" x="39.208984"/>
      <use xlink:href="#DejaVuSans-65" x="102.587891"/>
      <use xlink:href="#DejaVuSans-74" x="164.111328"/>
      <use xlink:href="#DejaVuSans-61" x="203.320312"/>
      <use xlink:href="#DejaVuSans-5b" x="264.599609"/>
      <use xlink:href="#DejaVuSans-31" x="303.613281"/>
      <use xlink:href="#DejaVuSans-5d" x="367.236328"/>
     </g>
    </g>
   </g>
   <g id="text_7">
    <g clip-path="url(#p1ffac8e76f)">
     <!-- $\mathrm{R_Y}$ -->
     <g style="fill: #ffffff" transform="translate(82.100356 89.704871) scale(0.13 -0.13)">
      <use xlink:href="#DejaVuSans-52" transform="translate(0 0.09375)"/>
      <use xlink:href="#DejaVuSans-59" transform="translate(70.439453 -16.3125) scale(0.7)"/>
     </g>
    </g>
   </g>
   <g id="text_8">
    <g clip-path="url(#p1ffac8e76f)">
     <!-- theta[2] -->
     <g style="fill: #ffffff" transform="translate(73.390356 148.237728) scale(0.08 -0.08)">
      <use xlink:href="#DejaVuSans-74"/>
      <use xlink:href="#DejaVuSans-68" x="39.208984"/>
      <use xlink:href="#DejaVuSans-65" x="102.587891"/>
      <use xlink:href="#DejaVuSans-74" x="164.111328"/>
      <use xlink:href="#DejaVuSans-61" x="203.320312"/>
      <use xlink:href="#DejaVuSans-5b" x="264.599609"/>
      <use xlink:href="#DejaVuSans-32" x="303.613281"/>
      <use xlink:href="#DejaVuSans-5d" x="367.236328"/>
     </g>
    </g>
   </g>
   <g id="text_9">
    <g clip-path="url(#p1ffac8e76f)">
     <!-- $\mathrm{R_Y}$ -->
     <g style="fill: #ffffff" transform="translate(82.100356 136.058871) scale(0.13 -0.13)">
      <use xlink:href="#DejaVuSans-52" transform="translate(0 0.09375)"/>
      <use xlink:href="#DejaVuSans-59" transform="translate(70.439453 -16.3125) scale(0.7)"/>
     </g>
    </g>
   </g>
   <g id="text_10">
    <g clip-path="url(#p1ffac8e76f)">
     <!-- theta[5] -->
     <g style="fill: #ffffff" transform="translate(119.744356 148.237728) scale(0.08 -0.08)">
      <defs>
       <path id="DejaVuSans-35" d="M 691 4666 
L 3169 4666 
L 3169 4134 
L 1269 4134 
L 1269 2991 
Q 1406 3038 1543 3061 
Q 1681 3084 1819 3084 
Q 2600 3084 3056 2656 
Q 3513 2228 3513 1497 
Q 3513 744 3044 326 
Q 2575 -91 1722 -91 
Q 1428 -91 1123 -41 
Q 819 9 494 109 
L 494 744 
Q 775 591 1075 516 
Q 1375 441 1709 441 
Q 2250 441 2565 725 
Q 2881 1009 2881 1497 
Q 2881 1984 2565 2268 
Q 2250 2553 1709 2553 
Q 1456 2553 1204 2497 
Q 953 2441 691 2322 
L 691 4666 
z
" transform="scale(0.015625)"/>
      </defs>
      <use xlink:href="#DejaVuSans-74"/>
      <use xlink:href="#DejaVuSans-68" x="39.208984"/>
      <use xlink:href="#DejaVuSans-65" x="102.587891"/>
      <use xlink:href="#DejaVuSans-74" x="164.111328"/>
      <use xlink:href="#DejaVuSans-61" x="203.320312"/>
      <use xlink:href="#DejaVuSans-5b" x="264.599609"/>
      <use xlink:href="#DejaVuSans-35" x="303.613281"/>
      <use xlink:href="#DejaVuSans-5d" x="367.236328"/>
     </g>
    </g>
   </g>
   <g id="text_11">
    <g clip-path="url(#p1ffac8e76f)">
     <!-- $\mathrm{R_Y}$ -->
     <g style="fill: #ffffff" transform="translate(128.454356 136.058871) scale(0.13 -0.13)">
      <use xlink:href="#DejaVuSans-52" transform="translate(0 0.09375)"/>
      <use xlink:href="#DejaVuSans-59" transform="translate(70.439453 -16.3125) scale(0.7)"/>
     </g>
    </g>
   </g>
   <g id="text_12">
    <g clip-path="url(#p1ffac8e76f)">
     <!-- theta[3] -->
     <g style="fill: #ffffff" transform="translate(166.098355 55.529729) scale(0.08 -0.08)">
      <defs>
       <path id="DejaVuSans-33" d="M 2597 2516 
Q 3050 2419 3304 2112 
Q 3559 1806 3559 1356 
Q 3559 666 3084 287 
Q 2609 -91 1734 -91 
Q 1441 -91 1130 -33 
Q 819 25 488 141 
L 488 750 
Q 750 597 1062 519 
Q 1375 441 1716 441 
Q 2309 441 2620 675 
Q 2931 909 2931 1356 
Q 2931 1769 2642 2001 
Q 2353 2234 1838 2234 
L 1294 2234 
L 1294 2753 
L 1863 2753 
Q 2328 2753 2575 2939 
Q 2822 3125 2822 3475 
Q 2822 3834 2567 4026 
Q 2313 4219 1838 4219 
Q 1578 4219 1281 4162 
Q 984 4106 628 3988 
L 628 4550 
Q 988 4650 1302 4700 
Q 1616 4750 1894 4750 
Q 2613 4750 3031 4423 
Q 3450 4097 3450 3541 
Q 3450 3153 3228 2886 
Q 3006 2619 2597 2516 
z
" transform="scale(0.015625)"/>
      </defs>
      <use xlink:href="#DejaVuSans-74"/>
      <use xlink:href="#DejaVuSans-68" x="39.208984"/>
      <use xlink:href="#DejaVuSans-65" x="102.587891"/>
      <use xlink:href="#DejaVuSans-74" x="164.111328"/>
      <use xlink:href="#DejaVuSans-61" x="203.320312"/>
      <use xlink:href="#DejaVuSans-5b" x="264.599609"/>
      <use xlink:href="#DejaVuSans-33" x="303.613281"/>
      <use xlink:href="#DejaVuSans-5d" x="367.236328"/>
     </g>
    </g>
   </g>
   <g id="text_13">
    <g clip-path="url(#p1ffac8e76f)">
     <!-- $\mathrm{R_Y}$ -->
     <g style="fill: #ffffff" transform="translate(174.808355 43.350872) scale(0.13 -0.13)">
      <use xlink:href="#DejaVuSans-52" transform="translate(0 0.09375)"/>
      <use xlink:href="#DejaVuSans-59" transform="translate(70.439453 -16.3125) scale(0.7)"/>
     </g>
    </g>
   </g>
   <g id="text_14">
    <g clip-path="url(#p1ffac8e76f)">
     <!-- theta[4] -->
     <g style="fill: #ffffff" transform="translate(166.098355 101.883729) scale(0.08 -0.08)">
      <defs>
       <path id="DejaVuSans-34" d="M 2419 4116 
L 825 1625 
L 2419 1625 
L 2419 4116 
z
M 2253 4666 
L 3047 4666 
L 3047 1625 
L 3713 1625 
L 3713 1100 
L 3047 1100 
L 3047 0 
L 2419 0 
L 2419 1100 
L 313 1100 
L 313 1709 
L 2253 4666 
z
" transform="scale(0.015625)"/>
      </defs>
      <use xlink:href="#DejaVuSans-74"/>
      <use xlink:href="#DejaVuSans-68" x="39.208984"/>
      <use xlink:href="#DejaVuSans-65" x="102.587891"/>
      <use xlink:href="#DejaVuSans-74" x="164.111328"/>
      <use xlink:href="#DejaVuSans-61" x="203.320312"/>
      <use xlink:href="#DejaVuSans-5b" x="264.599609"/>
      <use xlink:href="#DejaVuSans-34" x="303.613281"/>
      <use xlink:href="#DejaVuSans-5d" x="367.236328"/>
     </g>
    </g>
   </g>
   <g id="text_15">
    <g clip-path="url(#p1ffac8e76f)">
     <!-- $\mathrm{R_Y}$ -->
     <g style="fill: #ffffff" transform="translate(174.808355 89.704871) scale(0.13 -0.13)">
      <use xlink:href="#DejaVuSans-52" transform="translate(0 0.09375)"/>
      <use xlink:href="#DejaVuSans-59" transform="translate(70.439453 -16.3125) scale(0.7)"/>
     </g>
    </g>
   </g>
   <g id="text_16">
    <g clip-path="url(#p1ffac8e76f)">
     <!-- theta[7] -->
     <g style="fill: #ffffff" transform="translate(305.160353 101.883729) scale(0.08 -0.08)">
      <defs>
       <path id="DejaVuSans-37" d="M 525 4666 
L 3525 4666 
L 3525 4397 
L 1831 0 
L 1172 0 
L 2766 4134 
L 525 4134 
L 525 4666 
z
" transform="scale(0.015625)"/>
      </defs>
      <use xlink:href="#DejaVuSans-74"/>
      <use xlink:href="#DejaVuSans-68" x="39.208984"/>
      <use xlink:href="#DejaVuSans-65" x="102.587891"/>
      <use xlink:href="#DejaVuSans-74" x="164.111328"/>
      <use xlink:href="#DejaVuSans-61" x="203.320312"/>
      <use xlink:href="#DejaVuSans-5b" x="264.599609"/>
      <use xlink:href="#DejaVuSans-37" x="303.613281"/>
      <use xlink:href="#DejaVuSans-5d" x="367.236328"/>
     </g>
    </g>
   </g>
   <g id="text_17">
    <g clip-path="url(#p1ffac8e76f)">
     <!-- $\mathrm{R_Y}$ -->
     <g style="fill: #ffffff" transform="translate(313.870353 89.704871) scale(0.13 -0.13)">
      <use xlink:href="#DejaVuSans-52" transform="translate(0 0.09375)"/>
      <use xlink:href="#DejaVuSans-59" transform="translate(70.439453 -16.3125) scale(0.7)"/>
     </g>
    </g>
   </g>
   <g id="text_18">
    <g clip-path="url(#p1ffac8e76f)">
     <!-- theta[6] -->
     <g style="fill: #ffffff" transform="translate(305.160353 55.529729) scale(0.08 -0.08)">
      <defs>
       <path id="DejaVuSans-36" d="M 2113 2584 
Q 1688 2584 1439 2293 
Q 1191 2003 1191 1497 
Q 1191 994 1439 701 
Q 1688 409 2113 409 
Q 2538 409 2786 701 
Q 3034 994 3034 1497 
Q 3034 2003 2786 2293 
Q 2538 2584 2113 2584 
z
M 3366 4563 
L 3366 3988 
Q 3128 4100 2886 4159 
Q 2644 4219 2406 4219 
Q 1781 4219 1451 3797 
Q 1122 3375 1075 2522 
Q 1259 2794 1537 2939 
Q 1816 3084 2150 3084 
Q 2853 3084 3261 2657 
Q 3669 2231 3669 1497 
Q 3669 778 3244 343 
Q 2819 -91 2113 -91 
Q 1303 -91 875 529 
Q 447 1150 447 2328 
Q 447 3434 972 4092 
Q 1497 4750 2381 4750 
Q 2619 4750 2861 4703 
Q 3103 4656 3366 4563 
z
" transform="scale(0.015625)"/>
      </defs>
      <use xlink:href="#DejaVuSans-74"/>
      <use xlink:href="#DejaVuSans-68" x="39.208984"/>
      <use xlink:href="#DejaVuSans-65" x="102.587891"/>
      <use xlink:href="#DejaVuSans-74" x="164.111328"/>
      <use xlink:href="#DejaVuSans-61" x="203.320312"/>
      <use xlink:href="#DejaVuSans-5b" x="264.599609"/>
      <use xlink:href="#DejaVuSans-36" x="303.613281"/>
      <use xlink:href="#DejaVuSans-5d" x="367.236328"/>
     </g>
    </g>
   </g>
   <g id="text_19">
    <g clip-path="url(#p1ffac8e76f)">
     <!-- $\mathrm{R_Y}$ -->
     <g style="fill: #ffffff" transform="translate(313.870353 43.350872) scale(0.13 -0.13)">
      <use xlink:href="#DejaVuSans-52" transform="translate(0 0.09375)"/>
      <use xlink:href="#DejaVuSans-59" transform="translate(70.439453 -16.3125) scale(0.7)"/>
     </g>
    </g>
   </g>
   <g id="text_20">
    <g clip-path="url(#p1ffac8e76f)">
     <!-- theta[8] -->
     <g style="fill: #ffffff" transform="translate(305.160353 148.237728) scale(0.08 -0.08)">
      <defs>
       <path id="DejaVuSans-38" d="M 2034 2216 
Q 1584 2216 1326 1975 
Q 1069 1734 1069 1313 
Q 1069 891 1326 650 
Q 1584 409 2034 409 
Q 2484 409 2743 651 
Q 3003 894 3003 1313 
Q 3003 1734 2745 1975 
Q 2488 2216 2034 2216 
z
M 1403 2484 
Q 997 2584 770 2862 
Q 544 3141 544 3541 
Q 544 4100 942 4425 
Q 1341 4750 2034 4750 
Q 2731 4750 3128 4425 
Q 3525 4100 3525 3541 
Q 3525 3141 3298 2862 
Q 3072 2584 2669 2484 
Q 3125 2378 3379 2068 
Q 3634 1759 3634 1313 
Q 3634 634 3220 271 
Q 2806 -91 2034 -91 
Q 1263 -91 848 271 
Q 434 634 434 1313 
Q 434 1759 690 2068 
Q 947 2378 1403 2484 
z
M 1172 3481 
Q 1172 3119 1398 2916 
Q 1625 2713 2034 2713 
Q 2441 2713 2670 2916 
Q 2900 3119 2900 3481 
Q 2900 3844 2670 4047 
Q 2441 4250 2034 4250 
Q 1625 4250 1398 4047 
Q 1172 3844 1172 3481 
z
" transform="scale(0.015625)"/>
      </defs>
      <use xlink:href="#DejaVuSans-74"/>
      <use xlink:href="#DejaVuSans-68" x="39.208984"/>
      <use xlink:href="#DejaVuSans-65" x="102.587891"/>
      <use xlink:href="#DejaVuSans-74" x="164.111328"/>
      <use xlink:href="#DejaVuSans-61" x="203.320312"/>
      <use xlink:href="#DejaVuSans-5b" x="264.599609"/>
      <use xlink:href="#DejaVuSans-38" x="303.613281"/>
      <use xlink:href="#DejaVuSans-5d" x="367.236328"/>
     </g>
    </g>
   </g>
   <g id="text_21">
    <g clip-path="url(#p1ffac8e76f)">
     <!-- $\mathrm{R_Y}$ -->
     <g style="fill: #ffffff" transform="translate(313.870353 136.058871) scale(0.13 -0.13)">
      <use xlink:href="#DejaVuSans-52" transform="translate(0 0.09375)"/>
      <use xlink:href="#DejaVuSans-59" transform="translate(70.439453 -16.3125) scale(0.7)"/>
     </g>
    </g>
   </g>
   <g id="text_22">
    <g clip-path="url(#p1ffac8e76f)">
     <!-- theta[9] -->
     <g style="fill: #ffffff" transform="translate(397.868352 55.529729) scale(0.08 -0.08)">
      <defs>
       <path id="DejaVuSans-39" d="M 703 97 
L 703 672 
Q 941 559 1184 500 
Q 1428 441 1663 441 
Q 2288 441 2617 861 
Q 2947 1281 2994 2138 
Q 2813 1869 2534 1725 
Q 2256 1581 1919 1581 
Q 1219 1581 811 2004 
Q 403 2428 403 3163 
Q 403 3881 828 4315 
Q 1253 4750 1959 4750 
Q 2769 4750 3195 4129 
Q 3622 3509 3622 2328 
Q 3622 1225 3098 567 
Q 2575 -91 1691 -91 
Q 1453 -91 1209 -44 
Q 966 3 703 97 
z
M 1959 2075 
Q 2384 2075 2632 2365 
Q 2881 2656 2881 3163 
Q 2881 3666 2632 3958 
Q 2384 4250 1959 4250 
Q 1534 4250 1286 3958 
Q 1038 3666 1038 3163 
Q 1038 2656 1286 2365 
Q 1534 2075 1959 2075 
z
" transform="scale(0.015625)"/>
      </defs>
      <use xlink:href="#DejaVuSans-74"/>
      <use xlink:href="#DejaVuSans-68" x="39.208984"/>
      <use xlink:href="#DejaVuSans-65" x="102.587891"/>
      <use xlink:href="#DejaVuSans-74" x="164.111328"/>
      <use xlink:href="#DejaVuSans-61" x="203.320312"/>
      <use xlink:href="#DejaVuSans-5b" x="264.599609"/>
      <use xlink:href="#DejaVuSans-39" x="303.613281"/>
      <use xlink:href="#DejaVuSans-5d" x="367.236328"/>
     </g>
    </g>
   </g>
   <g id="text_23">
    <g clip-path="url(#p1ffac8e76f)">
     <!-- $\mathrm{R_Y}$ -->
     <g style="fill: #ffffff" transform="translate(406.578352 43.350872) scale(0.13 -0.13)">
      <use xlink:href="#DejaVuSans-52" transform="translate(0 0.09375)"/>
      <use xlink:href="#DejaVuSans-59" transform="translate(70.439453 -16.3125) scale(0.7)"/>
     </g>
    </g>
   </g>
   <g id="text_24">
    <g clip-path="url(#p1ffac8e76f)">
     <!-- theta[10] -->
     <g style="fill: #ffffff" transform="translate(395.323352 101.883729) scale(0.08 -0.08)">
      <use xlink:href="#DejaVuSans-74"/>
      <use xlink:href="#DejaVuSans-68" x="39.208984"/>
      <use xlink:href="#DejaVuSans-65" x="102.587891"/>
      <use xlink:href="#DejaVuSans-74" x="164.111328"/>
      <use xlink:href="#DejaVuSans-61" x="203.320312"/>
      <use xlink:href="#DejaVuSans-5b" x="264.599609"/>
      <use xlink:href="#DejaVuSans-31" x="303.613281"/>
      <use xlink:href="#DejaVuSans-30" x="367.236328"/>
      <use xlink:href="#DejaVuSans-5d" x="430.859375"/>
     </g>
    </g>
   </g>
   <g id="text_25">
    <g clip-path="url(#p1ffac8e76f)">
     <!-- $\mathrm{R_Y}$ -->
     <g style="fill: #ffffff" transform="translate(406.578352 89.704871) scale(0.13 -0.13)">
      <use xlink:href="#DejaVuSans-52" transform="translate(0 0.09375)"/>
      <use xlink:href="#DejaVuSans-59" transform="translate(70.439453 -16.3125) scale(0.7)"/>
     </g>
    </g>
   </g>
   <g id="text_26">
    <g clip-path="url(#p1ffac8e76f)">
     <!-- theta[11] -->
     <g style="fill: #ffffff" transform="translate(395.323352 148.237728) scale(0.08 -0.08)">
      <use xlink:href="#DejaVuSans-74"/>
      <use xlink:href="#DejaVuSans-68" x="39.208984"/>
      <use xlink:href="#DejaVuSans-65" x="102.587891"/>
      <use xlink:href="#DejaVuSans-74" x="164.111328"/>
      <use xlink:href="#DejaVuSans-61" x="203.320312"/>
      <use xlink:href="#DejaVuSans-5b" x="264.599609"/>
      <use xlink:href="#DejaVuSans-31" x="303.613281"/>
      <use xlink:href="#DejaVuSans-31" x="367.236328"/>
      <use xlink:href="#DejaVuSans-5d" x="430.859375"/>
     </g>
    </g>
   </g>
   <g id="text_27">
    <g clip-path="url(#p1ffac8e76f)">
     <!-- $\mathrm{R_Y}$ -->
     <g style="fill: #ffffff" transform="translate(406.578352 136.058871) scale(0.13 -0.13)">
      <use xlink:href="#DejaVuSans-52" transform="translate(0 0.09375)"/>
      <use xlink:href="#DejaVuSans-59" transform="translate(70.439453 -16.3125) scale(0.7)"/>
     </g>
    </g>
   </g>
   <g id="text_28">
    <g clip-path="url(#p1ffac8e76f)">
     <!-- theta[14] -->
     <g style="fill: #ffffff" transform="translate(441.677351 148.237728) scale(0.08 -0.08)">
      <use xlink:href="#DejaVuSans-74"/>
      <use xlink:href="#DejaVuSans-68" x="39.208984"/>
      <use xlink:href="#DejaVuSans-65" x="102.587891"/>
      <use xlink:href="#DejaVuSans-74" x="164.111328"/>
      <use xlink:href="#DejaVuSans-61" x="203.320312"/>
      <use xlink:href="#DejaVuSans-5b" x="264.599609"/>
      <use xlink:href="#DejaVuSans-31" x="303.613281"/>
      <use xlink:href="#DejaVuSans-34" x="367.236328"/>
      <use xlink:href="#DejaVuSans-5d" x="430.859375"/>
     </g>
    </g>
   </g>
   <g id="text_29">
    <g clip-path="url(#p1ffac8e76f)">
     <!-- $\mathrm{R_Y}$ -->
     <g style="fill: #ffffff" transform="translate(452.932351 136.058871) scale(0.13 -0.13)">
      <use xlink:href="#DejaVuSans-52" transform="translate(0 0.09375)"/>
      <use xlink:href="#DejaVuSans-59" transform="translate(70.439453 -16.3125) scale(0.7)"/>
     </g>
    </g>
   </g>
   <g id="text_30">
    <g clip-path="url(#p1ffac8e76f)">
     <!-- theta[12] -->
     <g style="fill: #ffffff" transform="translate(488.031351 55.529729) scale(0.08 -0.08)">
      <use xlink:href="#DejaVuSans-74"/>
      <use xlink:href="#DejaVuSans-68" x="39.208984"/>
      <use xlink:href="#DejaVuSans-65" x="102.587891"/>
      <use xlink:href="#DejaVuSans-74" x="164.111328"/>
      <use xlink:href="#DejaVuSans-61" x="203.320312"/>
      <use xlink:href="#DejaVuSans-5b" x="264.599609"/>
      <use xlink:href="#DejaVuSans-31" x="303.613281"/>
      <use xlink:href="#DejaVuSans-32" x="367.236328"/>
      <use xlink:href="#DejaVuSans-5d" x="430.859375"/>
     </g>
    </g>
   </g>
   <g id="text_31">
    <g clip-path="url(#p1ffac8e76f)">
     <!-- $\mathrm{R_Y}$ -->
     <g style="fill: #ffffff" transform="translate(499.286351 43.350872) scale(0.13 -0.13)">
      <use xlink:href="#DejaVuSans-52" transform="translate(0 0.09375)"/>
      <use xlink:href="#DejaVuSans-59" transform="translate(70.439453 -16.3125) scale(0.7)"/>
     </g>
    </g>
   </g>
   <g id="text_32">
    <g clip-path="url(#p1ffac8e76f)">
     <!-- theta[13] -->
     <g style="fill: #ffffff" transform="translate(488.031351 101.883729) scale(0.08 -0.08)">
      <use xlink:href="#DejaVuSans-74"/>
      <use xlink:href="#DejaVuSans-68" x="39.208984"/>
      <use xlink:href="#DejaVuSans-65" x="102.587891"/>
      <use xlink:href="#DejaVuSans-74" x="164.111328"/>
      <use xlink:href="#DejaVuSans-61" x="203.320312"/>
      <use xlink:href="#DejaVuSans-5b" x="264.599609"/>
      <use xlink:href="#DejaVuSans-31" x="303.613281"/>
      <use xlink:href="#DejaVuSans-33" x="367.236328"/>
      <use xlink:href="#DejaVuSans-5d" x="430.859375"/>
     </g>
    </g>
   </g>
   <g id="text_33">
    <g clip-path="url(#p1ffac8e76f)">
     <!-- $\mathrm{R_Y}$ -->
     <g style="fill: #ffffff" transform="translate(499.286351 89.704871) scale(0.13 -0.13)">
      <use xlink:href="#DejaVuSans-52" transform="translate(0 0.09375)"/>
      <use xlink:href="#DejaVuSans-59" transform="translate(70.439453 -16.3125) scale(0.7)"/>
     </g>
    </g>
   </g>
   <g id="text_34">
    <g clip-path="url(#p1ffac8e76f)">
     <!-- theta[16] -->
     <g style="fill: #ffffff" transform="translate(627.093349 101.883729) scale(0.08 -0.08)">
      <use xlink:href="#DejaVuSans-74"/>
      <use xlink:href="#DejaVuSans-68" x="39.208984"/>
      <use xlink:href="#DejaVuSans-65" x="102.587891"/>
      <use xlink:href="#DejaVuSans-74" x="164.111328"/>
      <use xlink:href="#DejaVuSans-61" x="203.320312"/>
      <use xlink:href="#DejaVuSans-5b" x="264.599609"/>
      <use xlink:href="#DejaVuSans-31" x="303.613281"/>
      <use xlink:href="#DejaVuSans-36" x="367.236328"/>
      <use xlink:href="#DejaVuSans-5d" x="430.859375"/>
     </g>
    </g>
   </g>
   <g id="text_35">
    <g clip-path="url(#p1ffac8e76f)">
     <!-- $\mathrm{R_Y}$ -->
     <g style="fill: #ffffff" transform="translate(638.348349 89.704871) scale(0.13 -0.13)">
      <use xlink:href="#DejaVuSans-52" transform="translate(0 0.09375)"/>
      <use xlink:href="#DejaVuSans-59" transform="translate(70.439453 -16.3125) scale(0.7)"/>
     </g>
    </g>
   </g>
   <g id="text_36">
    <g clip-path="url(#p1ffac8e76f)">
     <!-- theta[15] -->
     <g style="fill: #ffffff" transform="translate(627.093349 55.529729) scale(0.08 -0.08)">
      <use xlink:href="#DejaVuSans-74"/>
      <use xlink:href="#DejaVuSans-68" x="39.208984"/>
      <use xlink:href="#DejaVuSans-65" x="102.587891"/>
      <use xlink:href="#DejaVuSans-74" x="164.111328"/>
      <use xlink:href="#DejaVuSans-61" x="203.320312"/>
      <use xlink:href="#DejaVuSans-5b" x="264.599609"/>
      <use xlink:href="#DejaVuSans-31" x="303.613281"/>
      <use xlink:href="#DejaVuSans-35" x="367.236328"/>
      <use xlink:href="#DejaVuSans-5d" x="430.859375"/>
     </g>
    </g>
   </g>
   <g id="text_37">
    <g clip-path="url(#p1ffac8e76f)">
     <!-- $\mathrm{R_Y}$ -->
     <g style="fill: #ffffff" transform="translate(638.348349 43.350872) scale(0.13 -0.13)">
      <use xlink:href="#DejaVuSans-52" transform="translate(0 0.09375)"/>
      <use xlink:href="#DejaVuSans-59" transform="translate(70.439453 -16.3125) scale(0.7)"/>
     </g>
    </g>
   </g>
   <g id="text_38">
    <g clip-path="url(#p1ffac8e76f)">
     <!-- theta[17] -->
     <g style="fill: #ffffff" transform="translate(627.093349 148.237728) scale(0.08 -0.08)">
      <use xlink:href="#DejaVuSans-74"/>
      <use xlink:href="#DejaVuSans-68" x="39.208984"/>
      <use xlink:href="#DejaVuSans-65" x="102.587891"/>
      <use xlink:href="#DejaVuSans-74" x="164.111328"/>
      <use xlink:href="#DejaVuSans-61" x="203.320312"/>
      <use xlink:href="#DejaVuSans-5b" x="264.599609"/>
      <use xlink:href="#DejaVuSans-31" x="303.613281"/>
      <use xlink:href="#DejaVuSans-37" x="367.236328"/>
      <use xlink:href="#DejaVuSans-5d" x="430.859375"/>
     </g>
    </g>
   </g>
   <g id="text_39">
    <g clip-path="url(#p1ffac8e76f)">
     <!-- $\mathrm{R_Y}$ -->
     <g style="fill: #ffffff" transform="translate(638.348349 136.058871) scale(0.13 -0.13)">
      <use xlink:href="#DejaVuSans-52" transform="translate(0 0.09375)"/>
      <use xlink:href="#DejaVuSans-59" transform="translate(70.439453 -16.3125) scale(0.7)"/>
     </g>
    </g>
   </g>
  </g>
 </g>
 <defs>
  <clipPath id="p1ffac8e76f">
   <rect x="7.2" y="7.2" width="715.635988" height="157.603598"/>
  </clipPath>
 </defs>
</svg>
