<?xml version="1.0" encoding="utf-8" standalone="no"?>
<!DOCTYPE svg PUBLIC "-//W3C//DTD SVG 1.1//EN"
  "http://www.w3.org/Graphics/SVG/1.1/DTD/svg11.dtd">
<svg xmlns:xlink="http://www.w3.org/1999/xlink" width="637.216044pt" height="125.649599pt" viewBox="0 0 637.216044 125.649599" xmlns="http://www.w3.org/2000/svg" version="1.1">
 <metadata>
  <rdf:RDF xmlns:dc="http://purl.org/dc/elements/1.1/" xmlns:cc="http://creativecommons.org/ns#" xmlns:rdf="http://www.w3.org/1999/02/22-rdf-syntax-ns#">
   <cc:Work>
    <dc:type rdf:resource="http://purl.org/dc/dcmitype/StillImage"/>
    <dc:date>2024-05-13T12:04:02.883946</dc:date>
    <dc:format>image/svg+xml</dc:format>
    <dc:creator>
     <cc:Agent>
      <dc:title>Matplotlib v3.8.4, https://matplotlib.org/</dc:title>
     </cc:Agent>
    </dc:creator>
   </cc:Work>
  </rdf:RDF>
 </metadata>
 <defs>
  <style type="text/css">*{stroke-linejoin: round; stroke-linecap: butt}</style>
 </defs>
 <g id="figure_1">
  <g id="patch_1">
   <path d="M 0 125.649599 
L 637.216044 125.649599 
L 637.216044 0 
L 0 0 
z
" style="fill: #ffffff"/>
  </g>
  <g id="axes_1">
   <g id="line2d_1">
    <path d="M 64.497252 44.2832 
L 625.380644 44.2832 
" clip-path="url(#p3df64941a2)" style="fill: none; stroke: #000000; stroke-width: 2; stroke-linecap: square"/>
   </g>
   <g id="line2d_2">
    <path d="M 64.497252 90.637199 
L 625.380644 90.637199 
" clip-path="url(#p3df64941a2)" style="fill: none; stroke: #000000; stroke-width: 2; stroke-linecap: square"/>
   </g>
   <g id="patch_2">
    <path d="M 59.861852 21.1062 
L -1098.988133 21.1062 
L -1098.988133 160.168198 
L 59.861852 160.168198 
z
" clip-path="url(#p3df64941a2)" style="fill: #ffffff; stroke: #ffffff; stroke-width: 1.5; stroke-linejoin: miter"/>
   </g>
   <g id="line2d_3">
    <path d="M 182.23641 90.637199 
L 182.23641 44.2832 
" clip-path="url(#p3df64941a2)" style="fill: none; stroke: #002d9c; stroke-width: 2; stroke-linecap: square"/>
   </g>
   <g id="line2d_4">
    <path d="M 367.652408 90.637199 
L 367.652408 44.2832 
" clip-path="url(#p3df64941a2)" style="fill: none; stroke: #002d9c; stroke-width: 2; stroke-linecap: square"/>
   </g>
   <g id="line2d_5">
    <path d="M 553.068405 90.637199 
L 553.068405 44.2832 
" clip-path="url(#p3df64941a2)" style="fill: none; stroke: #002d9c; stroke-width: 2; stroke-linecap: square"/>
   </g>
   <g id="patch_3">
    <path d="M 71.950975 59.348249 
L 107.105848 59.348249 
L 107.105848 29.21815 
L 71.950975 29.21815 
z
" clip-path="url(#p3df64941a2)" style="fill: #9f1853; stroke: #9f1853; stroke-width: 1.5; stroke-linejoin: miter"/>
   </g>
   <g id="patch_4">
    <path d="M 71.950975 105.702249 
L 107.105848 105.702249 
L 107.105848 75.572149 
L 71.950975 75.572149 
z
" clip-path="url(#p3df64941a2)" style="fill: #9f1853; stroke: #9f1853; stroke-width: 1.5; stroke-linejoin: miter"/>
   </g>
   <g id="patch_5">
    <path d="M 120.817361 105.702249 
L 150.94746 105.702249 
L 150.94746 75.572149 
L 120.817361 75.572149 
z
" clip-path="url(#p3df64941a2)" style="fill: #fa4d56; stroke: #fa4d56; stroke-width: 1.5; stroke-linejoin: miter"/>
   </g>
   <g id="patch_6">
    <path d="M 182.23641 48.802714 
C 183.434999 48.802714 184.584659 48.32651 185.43219 47.478979 
C 186.27972 46.631448 186.755925 45.481789 186.755925 44.2832 
C 186.755925 43.08461 186.27972 41.934951 185.43219 41.08742 
C 184.584659 40.239889 183.434999 39.763685 182.23641 39.763685 
C 181.037821 39.763685 179.888161 40.239889 179.04063 41.08742 
C 178.1931 41.934951 177.716895 43.08461 177.716895 44.2832 
C 177.716895 45.481789 178.1931 46.631448 179.04063 47.478979 
C 179.888161 48.32651 181.037821 48.802714 182.23641 48.802714 
z
" clip-path="url(#p3df64941a2)" style="fill: #002d9c; stroke: #002d9c; stroke-width: 1.5; stroke-linejoin: miter"/>
   </g>
   <g id="patch_7">
    <path d="M 182.23641 101.182734 
C 185.033119 101.182734 187.715658 100.07159 189.693229 98.094018 
C 191.670801 96.116447 192.781945 93.433907 192.781945 90.637199 
C 192.781945 87.84049 191.670801 85.157951 189.693229 83.18038 
C 187.715658 81.202808 185.033119 80.091664 182.23641 80.091664 
C 179.439701 80.091664 176.757162 81.202808 174.779591 83.18038 
C 172.802019 85.157951 171.690875 87.84049 171.690875 90.637199 
C 171.690875 93.433907 172.802019 96.116447 174.779591 98.094018 
C 176.757162 100.07159 179.439701 101.182734 182.23641 101.182734 
z
" clip-path="url(#p3df64941a2)" style="fill: #002d9c; stroke: #002d9c; stroke-width: 2; stroke-linejoin: miter"/>
   </g>
   <g id="patch_8">
    <path d="M 210.964301 59.348249 
L 246.216518 59.348249 
L 246.216518 29.21815 
L 210.964301 29.21815 
z
" clip-path="url(#p3df64941a2)" style="fill: #9f1853; stroke: #9f1853; stroke-width: 1.5; stroke-linejoin: miter"/>
   </g>
   <g id="patch_9">
    <path d="M 213.52536 105.702249 
L 243.655459 105.702249 
L 243.655459 75.572149 
L 213.52536 75.572149 
z
" clip-path="url(#p3df64941a2)" style="fill: #fa4d56; stroke: #fa4d56; stroke-width: 1.5; stroke-linejoin: miter"/>
   </g>
   <g id="patch_10">
    <path d="M 257.366972 105.702249 
L 292.521845 105.702249 
L 292.521845 75.572149 
L 257.366972 75.572149 
z
" clip-path="url(#p3df64941a2)" style="fill: #9f1853; stroke: #9f1853; stroke-width: 1.5; stroke-linejoin: miter"/>
   </g>
   <g id="patch_11">
    <path d="M 306.233358 105.702249 
L 336.363458 105.702249 
L 336.363458 75.572149 
L 306.233358 75.572149 
z
" clip-path="url(#p3df64941a2)" style="fill: #fa4d56; stroke: #fa4d56; stroke-width: 1.5; stroke-linejoin: miter"/>
   </g>
   <g id="patch_12">
    <path d="M 367.652408 48.802714 
C 368.850997 48.802714 370.000657 48.32651 370.848187 47.478979 
C 371.695718 46.631448 372.171922 45.481789 372.171922 44.2832 
C 372.171922 43.08461 371.695718 41.934951 370.848187 41.08742 
C 370.000657 40.239889 368.850997 39.763685 367.652408 39.763685 
C 366.453818 39.763685 365.304159 40.239889 364.456628 41.08742 
C 363.609097 41.934951 363.132893 43.08461 363.132893 44.2832 
C 363.132893 45.481789 363.609097 46.631448 364.456628 47.478979 
C 365.304159 48.32651 366.453818 48.802714 367.652408 48.802714 
z
" clip-path="url(#p3df64941a2)" style="fill: #002d9c; stroke: #002d9c; stroke-width: 1.5; stroke-linejoin: miter"/>
   </g>
   <g id="patch_13">
    <path d="M 367.652408 101.182734 
C 370.449116 101.182734 373.131655 100.07159 375.109227 98.094018 
C 377.086798 96.116447 378.197942 93.433907 378.197942 90.637199 
C 378.197942 87.84049 377.086798 85.157951 375.109227 83.18038 
C 373.131655 81.202808 370.449116 80.091664 367.652408 80.091664 
C 364.855699 80.091664 362.17316 81.202808 360.195588 83.18038 
C 358.218017 85.157951 357.106873 87.84049 357.106873 90.637199 
C 357.106873 93.433907 358.218017 96.116447 360.195588 98.094018 
C 362.17316 100.07159 364.855699 101.182734 367.652408 101.182734 
z
" clip-path="url(#p3df64941a2)" style="fill: #002d9c; stroke: #002d9c; stroke-width: 2; stroke-linejoin: miter"/>
   </g>
   <g id="patch_14">
    <path d="M 396.380299 59.348249 
L 431.632515 59.348249 
L 431.632515 29.21815 
L 396.380299 29.21815 
z
" clip-path="url(#p3df64941a2)" style="fill: #9f1853; stroke: #9f1853; stroke-width: 1.5; stroke-linejoin: miter"/>
   </g>
   <g id="patch_15">
    <path d="M 398.941357 105.702249 
L 429.071457 105.702249 
L 429.071457 75.572149 
L 398.941357 75.572149 
z
" clip-path="url(#p3df64941a2)" style="fill: #fa4d56; stroke: #fa4d56; stroke-width: 1.5; stroke-linejoin: miter"/>
   </g>
   <g id="patch_16">
    <path d="M 442.78297 105.702249 
L 477.937843 105.702249 
L 477.937843 75.572149 
L 442.78297 75.572149 
z
" clip-path="url(#p3df64941a2)" style="fill: #9f1853; stroke: #9f1853; stroke-width: 1.5; stroke-linejoin: miter"/>
   </g>
   <g id="patch_17">
    <path d="M 491.649356 105.702249 
L 521.779455 105.702249 
L 521.779455 75.572149 
L 491.649356 75.572149 
z
" clip-path="url(#p3df64941a2)" style="fill: #fa4d56; stroke: #fa4d56; stroke-width: 1.5; stroke-linejoin: miter"/>
   </g>
   <g id="patch_18">
    <path d="M 553.068405 48.802714 
C 554.266994 48.802714 555.416654 48.32651 556.264185 47.478979 
C 557.111715 46.631448 557.58792 45.481789 557.58792 44.2832 
C 557.58792 43.08461 557.111715 41.934951 556.264185 41.08742 
C 555.416654 40.239889 554.266994 39.763685 553.068405 39.763685 
C 551.869816 39.763685 550.720156 40.239889 549.872625 41.08742 
C 549.025095 41.934951 548.54889 43.08461 548.54889 44.2832 
C 548.54889 45.481789 549.025095 46.631448 549.872625 47.478979 
C 550.720156 48.32651 551.869816 48.802714 553.068405 48.802714 
z
" clip-path="url(#p3df64941a2)" style="fill: #002d9c; stroke: #002d9c; stroke-width: 1.5; stroke-linejoin: miter"/>
   </g>
   <g id="patch_19">
    <path d="M 553.068405 101.182734 
C 555.865114 101.182734 558.547653 100.07159 560.525224 98.094018 
C 562.502796 96.116447 563.61394 93.433907 563.61394 90.637199 
C 563.61394 87.84049 562.502796 85.157951 560.525224 83.18038 
C 558.547653 81.202808 555.865114 80.091664 553.068405 80.091664 
C 550.271697 80.091664 547.589157 81.202808 545.611586 83.18038 
C 543.634014 85.157951 542.52287 87.84049 542.52287 90.637199 
C 542.52287 93.433907 543.634014 96.116447 545.611586 98.094018 
C 547.589157 100.07159 550.271697 101.182734 553.068405 101.182734 
z
" clip-path="url(#p3df64941a2)" style="fill: #002d9c; stroke: #002d9c; stroke-width: 2; stroke-linejoin: miter"/>
   </g>
   <g id="patch_20">
    <path d="M 584.357355 105.702249 
L 614.487454 105.702249 
L 614.487454 75.572149 
L 584.357355 75.572149 
z
" clip-path="url(#p3df64941a2)" style="fill: #fa4d56; stroke: #fa4d56; stroke-width: 1.5; stroke-linejoin: miter"/>
   </g>
   <g id="line2d_6">
    <path d="M 182.23641 96.663219 
L 182.23641 84.611179 
" clip-path="url(#p3df64941a2)" style="fill: none; stroke: #ffffff; stroke-width: 2; stroke-linecap: square"/>
   </g>
   <g id="line2d_7">
    <path d="M 176.21039 90.637199 
L 188.26243 90.637199 
" clip-path="url(#p3df64941a2)" style="fill: none; stroke: #ffffff; stroke-width: 2; stroke-linecap: square"/>
   </g>
   <g id="line2d_8">
    <path d="M 367.652408 96.663219 
L 367.652408 84.611179 
" clip-path="url(#p3df64941a2)" style="fill: none; stroke: #ffffff; stroke-width: 2; stroke-linecap: square"/>
   </g>
   <g id="line2d_9">
    <path d="M 361.626388 90.637199 
L 373.678427 90.637199 
" clip-path="url(#p3df64941a2)" style="fill: none; stroke: #ffffff; stroke-width: 2; stroke-linecap: square"/>
   </g>
   <g id="line2d_10">
    <path d="M 553.068405 96.663219 
L 553.068405 84.611179 
" clip-path="url(#p3df64941a2)" style="fill: none; stroke: #ffffff; stroke-width: 2; stroke-linecap: square"/>
   </g>
   <g id="line2d_11">
    <path d="M 547.042385 90.637199 
L 559.094425 90.637199 
" clip-path="url(#p3df64941a2)" style="fill: none; stroke: #ffffff; stroke-width: 2; stroke-linecap: square"/>
   </g>
   <g id="text_1">
    <g clip-path="url(#p3df64941a2)">
     <!-- ${q}_{0}$ -->
     <g transform="translate(37.188952 48.734176) scale(0.1625 -0.1625)">
      <defs>
       <path id="DejaVuSans-Oblique-71" d="M 2669 525 
Q 2438 222 2123 65 
Q 1809 -91 1428 -91 
Q 897 -91 595 267 
Q 294 625 294 1253 
Q 294 1759 480 2231 
Q 666 2703 1013 3078 
Q 1238 3322 1530 3453 
Q 1822 3584 2144 3584 
Q 2531 3584 2781 3431 
Q 3031 3278 3144 2969 
L 3244 3494 
L 3822 3494 
L 2888 -1319 
L 2309 -1319 
L 2669 525 
z
M 891 1338 
Q 891 875 1084 633 
Q 1278 391 1644 391 
Q 2188 391 2572 911 
Q 2956 1431 2956 2175 
Q 2956 2625 2757 2864 
Q 2559 3103 2188 3103 
Q 1916 3103 1684 2976 
Q 1453 2850 1281 2606 
Q 1100 2350 995 2006 
Q 891 1663 891 1338 
z
" transform="scale(0.015625)"/>
       <path id="DejaVuSans-30" d="M 2034 4250 
Q 1547 4250 1301 3770 
Q 1056 3291 1056 2328 
Q 1056 1369 1301 889 
Q 1547 409 2034 409 
Q 2525 409 2770 889 
Q 3016 1369 3016 2328 
Q 3016 3291 2770 3770 
Q 2525 4250 2034 4250 
z
M 2034 4750 
Q 2819 4750 3233 4129 
Q 3647 3509 3647 2328 
Q 3647 1150 3233 529 
Q 2819 -91 2034 -91 
Q 1250 -91 836 529 
Q 422 1150 422 2328 
Q 422 3509 836 4129 
Q 1250 4750 2034 4750 
z
" transform="scale(0.015625)"/>
      </defs>
      <use xlink:href="#DejaVuSans-Oblique-71"/>
      <use xlink:href="#DejaVuSans-30" transform="translate(63.476562 -16.40625) scale(0.7)"/>
     </g>
    </g>
   </g>
   <g id="text_2">
    <g clip-path="url(#p3df64941a2)">
     <!-- ${q}_{1}$ -->
     <g transform="translate(37.188952 95.088175) scale(0.1625 -0.1625)">
      <defs>
       <path id="DejaVuSans-31" d="M 794 531 
L 1825 531 
L 1825 4091 
L 703 3866 
L 703 4441 
L 1819 4666 
L 2450 4666 
L 2450 531 
L 3481 531 
L 3481 0 
L 794 0 
L 794 531 
z
" transform="scale(0.015625)"/>
      </defs>
      <use xlink:href="#DejaVuSans-Oblique-71"/>
      <use xlink:href="#DejaVuSans-31" transform="translate(63.476562 -16.40625) scale(0.7)"/>
     </g>
    </g>
   </g>
   <g id="text_3">
    <g clip-path="url(#p3df64941a2)">
     <!-- theta[0] -->
     <g style="fill: #ffffff" transform="translate(73.278411 55.529729) scale(0.08 -0.08)">
      <defs>
       <path id="DejaVuSans-74" d="M 1172 4494 
L 1172 3500 
L 2356 3500 
L 2356 3053 
L 1172 3053 
L 1172 1153 
Q 1172 725 1289 603 
Q 1406 481 1766 481 
L 2356 481 
L 2356 0 
L 1766 0 
Q 1100 0 847 248 
Q 594 497 594 1153 
L 594 3053 
L 172 3053 
L 172 3500 
L 594 3500 
L 594 4494 
L 1172 4494 
z
" transform="scale(0.015625)"/>
       <path id="DejaVuSans-68" d="M 3513 2113 
L 3513 0 
L 2938 0 
L 2938 2094 
Q 2938 2591 2744 2837 
Q 2550 3084 2163 3084 
Q 1697 3084 1428 2787 
Q 1159 2491 1159 1978 
L 1159 0 
L 581 0 
L 581 4863 
L 1159 4863 
L 1159 2956 
Q 1366 3272 1645 3428 
Q 1925 3584 2291 3584 
Q 2894 3584 3203 3211 
Q 3513 2838 3513 2113 
z
" transform="scale(0.015625)"/>
       <path id="DejaVuSans-65" d="M 3597 1894 
L 3597 1613 
L 953 1613 
Q 991 1019 1311 708 
Q 1631 397 2203 397 
Q 2534 397 2845 478 
Q 3156 559 3463 722 
L 3463 178 
Q 3153 47 2828 -22 
Q 2503 -91 2169 -91 
Q 1331 -91 842 396 
Q 353 884 353 1716 
Q 353 2575 817 3079 
Q 1281 3584 2069 3584 
Q 2775 3584 3186 3129 
Q 3597 2675 3597 1894 
z
M 3022 2063 
Q 3016 2534 2758 2815 
Q 2500 3097 2075 3097 
Q 1594 3097 1305 2825 
Q 1016 2553 972 2059 
L 3022 2063 
z
" transform="scale(0.015625)"/>
       <path id="DejaVuSans-61" d="M 2194 1759 
Q 1497 1759 1228 1600 
Q 959 1441 959 1056 
Q 959 750 1161 570 
Q 1363 391 1709 391 
Q 2188 391 2477 730 
Q 2766 1069 2766 1631 
L 2766 1759 
L 2194 1759 
z
M 3341 1997 
L 3341 0 
L 2766 0 
L 2766 531 
Q 2569 213 2275 61 
Q 1981 -91 1556 -91 
Q 1019 -91 701 211 
Q 384 513 384 1019 
Q 384 1609 779 1909 
Q 1175 2209 1959 2209 
L 2766 2209 
L 2766 2266 
Q 2766 2663 2505 2880 
Q 2244 3097 1772 3097 
Q 1472 3097 1187 3025 
Q 903 2953 641 2809 
L 641 3341 
Q 956 3463 1253 3523 
Q 1550 3584 1831 3584 
Q 2591 3584 2966 3190 
Q 3341 2797 3341 1997 
z
" transform="scale(0.015625)"/>
       <path id="DejaVuSans-5b" d="M 550 4863 
L 1875 4863 
L 1875 4416 
L 1125 4416 
L 1125 -397 
L 1875 -397 
L 1875 -844 
L 550 -844 
L 550 4863 
z
" transform="scale(0.015625)"/>
       <path id="DejaVuSans-5d" d="M 1947 4863 
L 1947 -844 
L 622 -844 
L 622 -397 
L 1369 -397 
L 1369 4416 
L 622 4416 
L 622 4863 
L 1947 4863 
z
" transform="scale(0.015625)"/>
      </defs>
      <use xlink:href="#DejaVuSans-74"/>
      <use xlink:href="#DejaVuSans-68" x="39.208984"/>
      <use xlink:href="#DejaVuSans-65" x="102.587891"/>
      <use xlink:href="#DejaVuSans-74" x="164.111328"/>
      <use xlink:href="#DejaVuSans-61" x="203.320312"/>
      <use xlink:href="#DejaVuSans-5b" x="264.599609"/>
      <use xlink:href="#DejaVuSans-30" x="303.613281"/>
      <use xlink:href="#DejaVuSans-5d" x="367.236328"/>
     </g>
    </g>
   </g>
   <g id="text_4">
    <g clip-path="url(#p3df64941a2)">
     <!-- $\mathrm{R_Y}$ -->
     <g style="fill: #ffffff" transform="translate(81.988411 43.350872) scale(0.13 -0.13)">
      <defs>
       <path id="DejaVuSans-52" d="M 2841 2188 
Q 3044 2119 3236 1894 
Q 3428 1669 3622 1275 
L 4263 0 
L 3584 0 
L 2988 1197 
Q 2756 1666 2539 1819 
Q 2322 1972 1947 1972 
L 1259 1972 
L 1259 0 
L 628 0 
L 628 4666 
L 2053 4666 
Q 2853 4666 3247 4331 
Q 3641 3997 3641 3322 
Q 3641 2881 3436 2590 
Q 3231 2300 2841 2188 
z
M 1259 4147 
L 1259 2491 
L 2053 2491 
Q 2509 2491 2742 2702 
Q 2975 2913 2975 3322 
Q 2975 3731 2742 3939 
Q 2509 4147 2053 4147 
L 1259 4147 
z
" transform="scale(0.015625)"/>
       <path id="DejaVuSans-59" d="M -13 4666 
L 666 4666 
L 1959 2747 
L 3244 4666 
L 3922 4666 
L 2272 2222 
L 2272 0 
L 1638 0 
L 1638 2222 
L -13 4666 
z
" transform="scale(0.015625)"/>
      </defs>
      <use xlink:href="#DejaVuSans-52" transform="translate(0 0.09375)"/>
      <use xlink:href="#DejaVuSans-59" transform="translate(70.439453 -16.3125) scale(0.7)"/>
     </g>
    </g>
   </g>
   <g id="text_5">
    <g clip-path="url(#p3df64941a2)">
     <!-- theta[1] -->
     <g style="fill: #ffffff" transform="translate(73.278411 101.883729) scale(0.08 -0.08)">
      <use xlink:href="#DejaVuSans-74"/>
      <use xlink:href="#DejaVuSans-68" x="39.208984"/>
      <use xlink:href="#DejaVuSans-65" x="102.587891"/>
      <use xlink:href="#DejaVuSans-74" x="164.111328"/>
      <use xlink:href="#DejaVuSans-61" x="203.320312"/>
      <use xlink:href="#DejaVuSans-5b" x="264.599609"/>
      <use xlink:href="#DejaVuSans-31" x="303.613281"/>
      <use xlink:href="#DejaVuSans-5d" x="367.236328"/>
     </g>
    </g>
   </g>
   <g id="text_6">
    <g clip-path="url(#p3df64941a2)">
     <!-- $\mathrm{R_Y}$ -->
     <g style="fill: #ffffff" transform="translate(81.988411 89.704871) scale(0.13 -0.13)">
      <use xlink:href="#DejaVuSans-52" transform="translate(0 0.09375)"/>
      <use xlink:href="#DejaVuSans-59" transform="translate(70.439453 -16.3125) scale(0.7)"/>
     </g>
    </g>
   </g>
   <g id="text_7">
    <g clip-path="url(#p3df64941a2)">
     <!-- H -->
     <g transform="translate(130.994207 94.224386) scale(0.13 -0.13)">
      <defs>
       <path id="DejaVuSans-48" d="M 628 4666 
L 1259 4666 
L 1259 2753 
L 3553 2753 
L 3553 4666 
L 4184 4666 
L 4184 0 
L 3553 0 
L 3553 2222 
L 1259 2222 
L 1259 0 
L 628 0 
L 628 4666 
z
" transform="scale(0.015625)"/>
      </defs>
      <use xlink:href="#DejaVuSans-48"/>
     </g>
    </g>
   </g>
   <g id="text_8">
    <g clip-path="url(#p3df64941a2)">
     <!-- theta[2] -->
     <g style="fill: #ffffff" transform="translate(212.340409 55.529729) scale(0.08 -0.08)">
      <defs>
       <path id="DejaVuSans-32" d="M 1228 531 
L 3431 531 
L 3431 0 
L 469 0 
L 469 531 
Q 828 903 1448 1529 
Q 2069 2156 2228 2338 
Q 2531 2678 2651 2914 
Q 2772 3150 2772 3378 
Q 2772 3750 2511 3984 
Q 2250 4219 1831 4219 
Q 1534 4219 1204 4116 
Q 875 4013 500 3803 
L 500 4441 
Q 881 4594 1212 4672 
Q 1544 4750 1819 4750 
Q 2544 4750 2975 4387 
Q 3406 4025 3406 3419 
Q 3406 3131 3298 2873 
Q 3191 2616 2906 2266 
Q 2828 2175 2409 1742 
Q 1991 1309 1228 531 
z
" transform="scale(0.015625)"/>
      </defs>
      <use xlink:href="#DejaVuSans-74"/>
      <use xlink:href="#DejaVuSans-68" x="39.208984"/>
      <use xlink:href="#DejaVuSans-65" x="102.587891"/>
      <use xlink:href="#DejaVuSans-74" x="164.111328"/>
      <use xlink:href="#DejaVuSans-61" x="203.320312"/>
      <use xlink:href="#DejaVuSans-5b" x="264.599609"/>
      <use xlink:href="#DejaVuSans-32" x="303.613281"/>
      <use xlink:href="#DejaVuSans-5d" x="367.236328"/>
     </g>
    </g>
   </g>
   <g id="text_9">
    <g clip-path="url(#p3df64941a2)">
     <!-- $\mathrm{R_Y}$ -->
     <g style="fill: #ffffff" transform="translate(221.050409 43.350872) scale(0.13 -0.13)">
      <use xlink:href="#DejaVuSans-52" transform="translate(0 0.09375)"/>
      <use xlink:href="#DejaVuSans-59" transform="translate(70.439453 -16.3125) scale(0.7)"/>
     </g>
    </g>
   </g>
   <g id="text_10">
    <g clip-path="url(#p3df64941a2)">
     <!-- H -->
     <g transform="translate(223.702206 94.224386) scale(0.13 -0.13)">
      <use xlink:href="#DejaVuSans-48"/>
     </g>
    </g>
   </g>
   <g id="text_11">
    <g clip-path="url(#p3df64941a2)">
     <!-- theta[3] -->
     <g style="fill: #ffffff" transform="translate(258.694409 101.883729) scale(0.08 -0.08)">
      <defs>
       <path id="DejaVuSans-33" d="M 2597 2516 
Q 3050 2419 3304 2112 
Q 3559 1806 3559 1356 
Q 3559 666 3084 287 
Q 2609 -91 1734 -91 
Q 1441 -91 1130 -33 
Q 819 25 488 141 
L 488 750 
Q 750 597 1062 519 
Q 1375 441 1716 441 
Q 2309 441 2620 675 
Q 2931 909 2931 1356 
Q 2931 1769 2642 2001 
Q 2353 2234 1838 2234 
L 1294 2234 
L 1294 2753 
L 1863 2753 
Q 2328 2753 2575 2939 
Q 2822 3125 2822 3475 
Q 2822 3834 2567 4026 
Q 2313 4219 1838 4219 
Q 1578 4219 1281 4162 
Q 984 4106 628 3988 
L 628 4550 
Q 988 4650 1302 4700 
Q 1616 4750 1894 4750 
Q 2613 4750 3031 4423 
Q 3450 4097 3450 3541 
Q 3450 3153 3228 2886 
Q 3006 2619 2597 2516 
z
" transform="scale(0.015625)"/>
      </defs>
      <use xlink:href="#DejaVuSans-74"/>
      <use xlink:href="#DejaVuSans-68" x="39.208984"/>
      <use xlink:href="#DejaVuSans-65" x="102.587891"/>
      <use xlink:href="#DejaVuSans-74" x="164.111328"/>
      <use xlink:href="#DejaVuSans-61" x="203.320312"/>
      <use xlink:href="#DejaVuSans-5b" x="264.599609"/>
      <use xlink:href="#DejaVuSans-33" x="303.613281"/>
      <use xlink:href="#DejaVuSans-5d" x="367.236328"/>
     </g>
    </g>
   </g>
   <g id="text_12">
    <g clip-path="url(#p3df64941a2)">
     <!-- $\mathrm{R_Y}$ -->
     <g style="fill: #ffffff" transform="translate(267.404409 89.704871) scale(0.13 -0.13)">
      <use xlink:href="#DejaVuSans-52" transform="translate(0 0.09375)"/>
      <use xlink:href="#DejaVuSans-59" transform="translate(70.439453 -16.3125) scale(0.7)"/>
     </g>
    </g>
   </g>
   <g id="text_13">
    <g clip-path="url(#p3df64941a2)">
     <!-- H -->
     <g transform="translate(316.410205 94.224386) scale(0.13 -0.13)">
      <use xlink:href="#DejaVuSans-48"/>
     </g>
    </g>
   </g>
   <g id="text_14">
    <g clip-path="url(#p3df64941a2)">
     <!-- theta[4] -->
     <g style="fill: #ffffff" transform="translate(397.756407 55.529729) scale(0.08 -0.08)">
      <defs>
       <path id="DejaVuSans-34" d="M 2419 4116 
L 825 1625 
L 2419 1625 
L 2419 4116 
z
M 2253 4666 
L 3047 4666 
L 3047 1625 
L 3713 1625 
L 3713 1100 
L 3047 1100 
L 3047 0 
L 2419 0 
L 2419 1100 
L 313 1100 
L 313 1709 
L 2253 4666 
z
" transform="scale(0.015625)"/>
      </defs>
      <use xlink:href="#DejaVuSans-74"/>
      <use xlink:href="#DejaVuSans-68" x="39.208984"/>
      <use xlink:href="#DejaVuSans-65" x="102.587891"/>
      <use xlink:href="#DejaVuSans-74" x="164.111328"/>
      <use xlink:href="#DejaVuSans-61" x="203.320312"/>
      <use xlink:href="#DejaVuSans-5b" x="264.599609"/>
      <use xlink:href="#DejaVuSans-34" x="303.613281"/>
      <use xlink:href="#DejaVuSans-5d" x="367.236328"/>
     </g>
    </g>
   </g>
   <g id="text_15">
    <g clip-path="url(#p3df64941a2)">
     <!-- $\mathrm{R_Y}$ -->
     <g style="fill: #ffffff" transform="translate(406.466407 43.350872) scale(0.13 -0.13)">
      <use xlink:href="#DejaVuSans-52" transform="translate(0 0.09375)"/>
      <use xlink:href="#DejaVuSans-59" transform="translate(70.439453 -16.3125) scale(0.7)"/>
     </g>
    </g>
   </g>
   <g id="text_16">
    <g clip-path="url(#p3df64941a2)">
     <!-- H -->
     <g transform="translate(409.118204 94.224386) scale(0.13 -0.13)">
      <use xlink:href="#DejaVuSans-48"/>
     </g>
    </g>
   </g>
   <g id="text_17">
    <g clip-path="url(#p3df64941a2)">
     <!-- theta[5] -->
     <g style="fill: #ffffff" transform="translate(444.110406 101.883729) scale(0.08 -0.08)">
      <defs>
       <path id="DejaVuSans-35" d="M 691 4666 
L 3169 4666 
L 3169 4134 
L 1269 4134 
L 1269 2991 
Q 1406 3038 1543 3061 
Q 1681 3084 1819 3084 
Q 2600 3084 3056 2656 
Q 3513 2228 3513 1497 
Q 3513 744 3044 326 
Q 2575 -91 1722 -91 
Q 1428 -91 1123 -41 
Q 819 9 494 109 
L 494 744 
Q 775 591 1075 516 
Q 1375 441 1709 441 
Q 2250 441 2565 725 
Q 2881 1009 2881 1497 
Q 2881 1984 2565 2268 
Q 2250 2553 1709 2553 
Q 1456 2553 1204 2497 
Q 953 2441 691 2322 
L 691 4666 
z
" transform="scale(0.015625)"/>
      </defs>
      <use xlink:href="#DejaVuSans-74"/>
      <use xlink:href="#DejaVuSans-68" x="39.208984"/>
      <use xlink:href="#DejaVuSans-65" x="102.587891"/>
      <use xlink:href="#DejaVuSans-74" x="164.111328"/>
      <use xlink:href="#DejaVuSans-61" x="203.320312"/>
      <use xlink:href="#DejaVuSans-5b" x="264.599609"/>
      <use xlink:href="#DejaVuSans-35" x="303.613281"/>
      <use xlink:href="#DejaVuSans-5d" x="367.236328"/>
     </g>
    </g>
   </g>
   <g id="text_18">
    <g clip-path="url(#p3df64941a2)">
     <!-- $\mathrm{R_Y}$ -->
     <g style="fill: #ffffff" transform="translate(452.820406 89.704871) scale(0.13 -0.13)">
      <use xlink:href="#DejaVuSans-52" transform="translate(0 0.09375)"/>
      <use xlink:href="#DejaVuSans-59" transform="translate(70.439453 -16.3125) scale(0.7)"/>
     </g>
    </g>
   </g>
   <g id="text_19">
    <g clip-path="url(#p3df64941a2)">
     <!-- H -->
     <g transform="translate(501.826203 94.224386) scale(0.13 -0.13)">
      <use xlink:href="#DejaVuSans-48"/>
     </g>
    </g>
   </g>
   <g id="text_20">
    <g clip-path="url(#p3df64941a2)">
     <!-- H -->
     <g transform="translate(594.534201 94.224386) scale(0.13 -0.13)">
      <use xlink:href="#DejaVuSans-48"/>
     </g>
    </g>
   </g>
  </g>
 </g>
 <defs>
  <clipPath id="p3df64941a2">
   <rect x="7.2" y="7.2" width="622.816044" height="111.249599"/>
  </clipPath>
 </defs>
</svg>
