<?xml version="1.0" encoding="utf-8" standalone="no"?>
<!DOCTYPE svg PUBLIC "-//W3C//DTD SVG 1.1//EN"
  "http://www.w3.org/Graphics/SVG/1.1/DTD/svg11.dtd">
<svg xmlns:xlink="http://www.w3.org/1999/xlink" width="961.805985pt" height="179.602035pt" viewBox="0 0 961.805985 179.602035" xmlns="http://www.w3.org/2000/svg" version="1.1">
 <metadata>
  <rdf:RDF xmlns:dc="http://purl.org/dc/elements/1.1/" xmlns:cc="http://creativecommons.org/ns#" xmlns:rdf="http://www.w3.org/1999/02/22-rdf-syntax-ns#">
   <cc:Work>
    <dc:type rdf:resource="http://purl.org/dc/dcmitype/StillImage"/>
    <dc:date>2024-05-13T12:04:20.073732</dc:date>
    <dc:format>image/svg+xml</dc:format>
    <dc:creator>
     <cc:Agent>
      <dc:title>Matplotlib v3.8.4, https://matplotlib.org/</dc:title>
     </cc:Agent>
    </dc:creator>
   </cc:Work>
  </rdf:RDF>
 </metadata>
 <defs>
  <style type="text/css">*{stroke-linejoin: round; stroke-linecap: butt}</style>
 </defs>
 <g id="figure_1">
  <g id="patch_1">
   <path d="M 0 179.602035 
L 961.805985 179.602035 
L 961.805985 0 
L 0 0 
z
" style="fill: #ffffff"/>
  </g>
  <g id="axes_1">
   <g id="line2d_1">
    <path d="M 64.609196 51.881637 
L 949.970585 51.881637 
" clip-path="url(#pb2a0a31845)" style="fill: none; stroke: #000000; stroke-width: 2; stroke-linecap: square"/>
   </g>
   <g id="line2d_2">
    <path d="M 64.609196 98.235636 
L 949.970585 98.235636 
" clip-path="url(#pb2a0a31845)" style="fill: none; stroke: #000000; stroke-width: 2; stroke-linecap: square"/>
   </g>
   <g id="line2d_3">
    <path d="M 64.609196 144.589636 
L 949.970585 144.589636 
" clip-path="url(#pb2a0a31845)" style="fill: none; stroke: #000000; stroke-width: 2; stroke-linecap: square"/>
   </g>
   <g id="text_1">
    <!-- Global Phase: $\pi$/8 -->
    <g transform="translate(7.2 14.798437) scale(0.1 -0.1)">
     <defs>
      <path id="DejaVuSans-47" d="M 3809 666 
L 3809 1919 
L 2778 1919 
L 2778 2438 
L 4434 2438 
L 4434 434 
Q 4069 175 3628 42 
Q 3188 -91 2688 -91 
Q 1594 -91 976 548 
Q 359 1188 359 2328 
Q 359 3472 976 4111 
Q 1594 4750 2688 4750 
Q 3144 4750 3555 4637 
Q 3966 4525 4313 4306 
L 4313 3634 
Q 3963 3931 3569 4081 
Q 3175 4231 2741 4231 
Q 1884 4231 1454 3753 
Q 1025 3275 1025 2328 
Q 1025 1384 1454 906 
Q 1884 428 2741 428 
Q 3075 428 3337 486 
Q 3600 544 3809 666 
z
" transform="scale(0.015625)"/>
      <path id="DejaVuSans-6c" d="M 603 4863 
L 1178 4863 
L 1178 0 
L 603 0 
L 603 4863 
z
" transform="scale(0.015625)"/>
      <path id="DejaVuSans-6f" d="M 1959 3097 
Q 1497 3097 1228 2736 
Q 959 2375 959 1747 
Q 959 1119 1226 758 
Q 1494 397 1959 397 
Q 2419 397 2687 759 
Q 2956 1122 2956 1747 
Q 2956 2369 2687 2733 
Q 2419 3097 1959 3097 
z
M 1959 3584 
Q 2709 3584 3137 3096 
Q 3566 2609 3566 1747 
Q 3566 888 3137 398 
Q 2709 -91 1959 -91 
Q 1206 -91 779 398 
Q 353 888 353 1747 
Q 353 2609 779 3096 
Q 1206 3584 1959 3584 
z
" transform="scale(0.015625)"/>
      <path id="DejaVuSans-62" d="M 3116 1747 
Q 3116 2381 2855 2742 
Q 2594 3103 2138 3103 
Q 1681 3103 1420 2742 
Q 1159 2381 1159 1747 
Q 1159 1113 1420 752 
Q 1681 391 2138 391 
Q 2594 391 2855 752 
Q 3116 1113 3116 1747 
z
M 1159 2969 
Q 1341 3281 1617 3432 
Q 1894 3584 2278 3584 
Q 2916 3584 3314 3078 
Q 3713 2572 3713 1747 
Q 3713 922 3314 415 
Q 2916 -91 2278 -91 
Q 1894 -91 1617 61 
Q 1341 213 1159 525 
L 1159 0 
L 581 0 
L 581 4863 
L 1159 4863 
L 1159 2969 
z
" transform="scale(0.015625)"/>
      <path id="DejaVuSans-61" d="M 2194 1759 
Q 1497 1759 1228 1600 
Q 959 1441 959 1056 
Q 959 750 1161 570 
Q 1363 391 1709 391 
Q 2188 391 2477 730 
Q 2766 1069 2766 1631 
L 2766 1759 
L 2194 1759 
z
M 3341 1997 
L 3341 0 
L 2766 0 
L 2766 531 
Q 2569 213 2275 61 
Q 1981 -91 1556 -91 
Q 1019 -91 701 211 
Q 384 513 384 1019 
Q 384 1609 779 1909 
Q 1175 2209 1959 2209 
L 2766 2209 
L 2766 2266 
Q 2766 2663 2505 2880 
Q 2244 3097 1772 3097 
Q 1472 3097 1187 3025 
Q 903 2953 641 2809 
L 641 3341 
Q 956 3463 1253 3523 
Q 1550 3584 1831 3584 
Q 2591 3584 2966 3190 
Q 3341 2797 3341 1997 
z
" transform="scale(0.015625)"/>
      <path id="DejaVuSans-20" transform="scale(0.015625)"/>
      <path id="DejaVuSans-50" d="M 1259 4147 
L 1259 2394 
L 2053 2394 
Q 2494 2394 2734 2622 
Q 2975 2850 2975 3272 
Q 2975 3691 2734 3919 
Q 2494 4147 2053 4147 
L 1259 4147 
z
M 628 4666 
L 2053 4666 
Q 2838 4666 3239 4311 
Q 3641 3956 3641 3272 
Q 3641 2581 3239 2228 
Q 2838 1875 2053 1875 
L 1259 1875 
L 1259 0 
L 628 0 
L 628 4666 
z
" transform="scale(0.015625)"/>
      <path id="DejaVuSans-68" d="M 3513 2113 
L 3513 0 
L 2938 0 
L 2938 2094 
Q 2938 2591 2744 2837 
Q 2550 3084 2163 3084 
Q 1697 3084 1428 2787 
Q 1159 2491 1159 1978 
L 1159 0 
L 581 0 
L 581 4863 
L 1159 4863 
L 1159 2956 
Q 1366 3272 1645 3428 
Q 1925 3584 2291 3584 
Q 2894 3584 3203 3211 
Q 3513 2838 3513 2113 
z
" transform="scale(0.015625)"/>
      <path id="DejaVuSans-73" d="M 2834 3397 
L 2834 2853 
Q 2591 2978 2328 3040 
Q 2066 3103 1784 3103 
Q 1356 3103 1142 2972 
Q 928 2841 928 2578 
Q 928 2378 1081 2264 
Q 1234 2150 1697 2047 
L 1894 2003 
Q 2506 1872 2764 1633 
Q 3022 1394 3022 966 
Q 3022 478 2636 193 
Q 2250 -91 1575 -91 
Q 1294 -91 989 -36 
Q 684 19 347 128 
L 347 722 
Q 666 556 975 473 
Q 1284 391 1588 391 
Q 1994 391 2212 530 
Q 2431 669 2431 922 
Q 2431 1156 2273 1281 
Q 2116 1406 1581 1522 
L 1381 1569 
Q 847 1681 609 1914 
Q 372 2147 372 2553 
Q 372 3047 722 3315 
Q 1072 3584 1716 3584 
Q 2034 3584 2315 3537 
Q 2597 3491 2834 3397 
z
" transform="scale(0.015625)"/>
      <path id="DejaVuSans-65" d="M 3597 1894 
L 3597 1613 
L 953 1613 
Q 991 1019 1311 708 
Q 1631 397 2203 397 
Q 2534 397 2845 478 
Q 3156 559 3463 722 
L 3463 178 
Q 3153 47 2828 -22 
Q 2503 -91 2169 -91 
Q 1331 -91 842 396 
Q 353 884 353 1716 
Q 353 2575 817 3079 
Q 1281 3584 2069 3584 
Q 2775 3584 3186 3129 
Q 3597 2675 3597 1894 
z
M 3022 2063 
Q 3016 2534 2758 2815 
Q 2500 3097 2075 3097 
Q 1594 3097 1305 2825 
Q 1016 2553 972 2059 
L 3022 2063 
z
" transform="scale(0.015625)"/>
      <path id="DejaVuSans-3a" d="M 750 794 
L 1409 794 
L 1409 0 
L 750 0 
L 750 794 
z
M 750 3309 
L 1409 3309 
L 1409 2516 
L 750 2516 
L 750 3309 
z
" transform="scale(0.015625)"/>
      <path id="DejaVuSans-Oblique-3c0" d="M 584 3500 
L 3938 3500 
L 3825 2925 
L 3384 2925 
L 2966 775 
Q 2922 550 2981 450 
Q 3038 353 3209 353 
Q 3256 353 3325 363 
Q 3397 369 3419 372 
L 3338 -44 
Q 3222 -84 3103 -103 
Q 2981 -122 2866 -122 
Q 2491 -122 2388 81 
Q 2284 288 2391 838 
L 2797 2925 
L 1506 2925 
L 938 0 
L 350 0 
L 919 2925 
L 472 2925 
L 584 3500 
z
" transform="scale(0.015625)"/>
      <path id="DejaVuSans-2f" d="M 1625 4666 
L 2156 4666 
L 531 -594 
L 0 -594 
L 1625 4666 
z
" transform="scale(0.015625)"/>
      <path id="DejaVuSans-38" d="M 2034 2216 
Q 1584 2216 1326 1975 
Q 1069 1734 1069 1313 
Q 1069 891 1326 650 
Q 1584 409 2034 409 
Q 2484 409 2743 651 
Q 3003 894 3003 1313 
Q 3003 1734 2745 1975 
Q 2488 2216 2034 2216 
z
M 1403 2484 
Q 997 2584 770 2862 
Q 544 3141 544 3541 
Q 544 4100 942 4425 
Q 1341 4750 2034 4750 
Q 2731 4750 3128 4425 
Q 3525 4100 3525 3541 
Q 3525 3141 3298 2862 
Q 3072 2584 2669 2484 
Q 3125 2378 3379 2068 
Q 3634 1759 3634 1313 
Q 3634 634 3220 271 
Q 2806 -91 2034 -91 
Q 1263 -91 848 271 
Q 434 634 434 1313 
Q 434 1759 690 2068 
Q 947 2378 1403 2484 
z
M 1172 3481 
Q 1172 3119 1398 2916 
Q 1625 2713 2034 2713 
Q 2441 2713 2670 2916 
Q 2900 3119 2900 3481 
Q 2900 3844 2670 4047 
Q 2441 4250 2034 4250 
Q 1625 4250 1398 4047 
Q 1172 3844 1172 3481 
z
" transform="scale(0.015625)"/>
     </defs>
     <use xlink:href="#DejaVuSans-47" transform="translate(0 0.015625)"/>
     <use xlink:href="#DejaVuSans-6c" transform="translate(77.490234 0.015625)"/>
     <use xlink:href="#DejaVuSans-6f" transform="translate(105.273438 0.015625)"/>
     <use xlink:href="#DejaVuSans-62" transform="translate(166.455078 0.015625)"/>
     <use xlink:href="#DejaVuSans-61" transform="translate(229.931641 0.015625)"/>
     <use xlink:href="#DejaVuSans-6c" transform="translate(291.210938 0.015625)"/>
     <use xlink:href="#DejaVuSans-20" transform="translate(318.994141 0.015625)"/>
     <use xlink:href="#DejaVuSans-50" transform="translate(350.78125 0.015625)"/>
     <use xlink:href="#DejaVuSans-68" transform="translate(411.083984 0.015625)"/>
     <use xlink:href="#DejaVuSans-61" transform="translate(474.462891 0.015625)"/>
     <use xlink:href="#DejaVuSans-73" transform="translate(535.742188 0.015625)"/>
     <use xlink:href="#DejaVuSans-65" transform="translate(587.841797 0.015625)"/>
     <use xlink:href="#DejaVuSans-3a" transform="translate(649.365234 0.015625)"/>
     <use xlink:href="#DejaVuSans-20" transform="translate(683.056641 0.015625)"/>
     <use xlink:href="#DejaVuSans-Oblique-3c0" transform="translate(714.84375 0.015625)"/>
     <use xlink:href="#DejaVuSans-2f" transform="translate(775.048828 0.015625)"/>
     <use xlink:href="#DejaVuSans-38" transform="translate(803.740234 0.015625)"/>
    </g>
   </g>
   <g id="patch_2">
    <path d="M 59.973797 28.704637 
L -1098.876188 28.704637 
L -1098.876188 214.120635 
L 59.973797 214.120635 
z
" clip-path="url(#pb2a0a31845)" style="fill: #ffffff; stroke: #ffffff; stroke-width: 1.5; stroke-linejoin: miter"/>
   </g>
   <g id="line2d_4">
    <path d="M 182.348355 98.235636 
L 182.348355 51.881637 
" clip-path="url(#pb2a0a31845)" style="fill: none; stroke: #002d9c; stroke-width: 2; stroke-linecap: square"/>
   </g>
   <g id="line2d_5">
    <path d="M 321.410353 144.589636 
L 321.410353 98.235636 
" clip-path="url(#pb2a0a31845)" style="fill: none; stroke: #002d9c; stroke-width: 2; stroke-linecap: square"/>
   </g>
   <g id="line2d_6">
    <path d="M 367.764352 144.589636 
L 367.764352 51.881637 
" clip-path="url(#pb2a0a31845)" style="fill: none; stroke: #002d9c; stroke-width: 2; stroke-linecap: square"/>
   </g>
   <g id="line2d_7">
    <path d="M 506.826351 144.589636 
L 506.826351 98.235636 
" clip-path="url(#pb2a0a31845)" style="fill: none; stroke: #002d9c; stroke-width: 2; stroke-linecap: square"/>
   </g>
   <g id="line2d_8">
    <path d="M 599.534349 144.589636 
L 599.534349 51.881637 
" clip-path="url(#pb2a0a31845)" style="fill: none; stroke: #002d9c; stroke-width: 2; stroke-linecap: square"/>
   </g>
   <g id="line2d_9">
    <path d="M 692.242348 144.589636 
L 692.242348 98.235636 
" clip-path="url(#pb2a0a31845)" style="fill: none; stroke: #002d9c; stroke-width: 2; stroke-linecap: square"/>
   </g>
   <g id="line2d_10">
    <path d="M 784.950347 144.589636 
L 784.950347 51.881637 
" clip-path="url(#pb2a0a31845)" style="fill: none; stroke: #002d9c; stroke-width: 2; stroke-linecap: square"/>
   </g>
   <g id="line2d_11">
    <path d="M 831.304346 98.235636 
L 831.304346 51.881637 
" clip-path="url(#pb2a0a31845)" style="fill: none; stroke: #002d9c; stroke-width: 2; stroke-linecap: square"/>
   </g>
   <g id="line2d_12">
    <path d="M 924.012345 98.235636 
L 924.012345 51.881637 
" clip-path="url(#pb2a0a31845)" style="fill: none; stroke: #002d9c; stroke-width: 2; stroke-linecap: square"/>
   </g>
   <g id="patch_3">
    <path d="M 72.06292 66.946687 
L 107.217793 66.946687 
L 107.217793 36.816587 
L 72.06292 36.816587 
z
" clip-path="url(#pb2a0a31845)" style="fill: #9f1853; stroke: #9f1853; stroke-width: 1.5; stroke-linejoin: miter"/>
   </g>
   <g id="patch_4">
    <path d="M 72.06292 113.300686 
L 107.217793 113.300686 
L 107.217793 83.170587 
L 72.06292 83.170587 
z
" clip-path="url(#pb2a0a31845)" style="fill: #9f1853; stroke: #9f1853; stroke-width: 1.5; stroke-linejoin: miter"/>
   </g>
   <g id="patch_5">
    <path d="M 72.014248 159.654686 
L 107.266464 159.654686 
L 107.266464 129.524586 
L 72.014248 129.524586 
z
" clip-path="url(#pb2a0a31845)" style="fill: #9f1853; stroke: #9f1853; stroke-width: 1.5; stroke-linejoin: miter"/>
   </g>
   <g id="patch_6">
    <path d="M 120.929306 113.300686 
L 151.059405 113.300686 
L 151.059405 83.170587 
L 120.929306 83.170587 
z
" clip-path="url(#pb2a0a31845)" style="fill: #fa4d56; stroke: #fa4d56; stroke-width: 1.5; stroke-linejoin: miter"/>
   </g>
   <g id="patch_7">
    <path d="M 118.416919 159.654686 
L 153.571792 159.654686 
L 153.571792 129.524586 
L 118.416919 129.524586 
z
" clip-path="url(#pb2a0a31845)" style="fill: #9f1853; stroke: #9f1853; stroke-width: 1.5; stroke-linejoin: miter"/>
   </g>
   <g id="patch_8">
    <path d="M 182.348355 56.401152 
C 183.546944 56.401152 184.696604 55.924947 185.544135 55.077417 
C 186.391665 54.229886 186.86787 53.080226 186.86787 51.881637 
C 186.86787 50.683048 186.391665 49.533388 185.544135 48.685857 
C 184.696604 47.838327 183.546944 47.362122 182.348355 47.362122 
C 181.149766 47.362122 180.000106 47.838327 179.152575 48.685857 
C 178.305045 49.533388 177.82884 50.683048 177.82884 51.881637 
C 177.82884 53.080226 178.305045 54.229886 179.152575 55.077417 
C 180.000106 55.924947 181.149766 56.401152 182.348355 56.401152 
z
" clip-path="url(#pb2a0a31845)" style="fill: #002d9c; stroke: #002d9c; stroke-width: 1.5; stroke-linejoin: miter"/>
   </g>
   <g id="patch_9">
    <path d="M 182.348355 108.781171 
C 185.145063 108.781171 187.827603 107.670027 189.805174 105.692456 
C 191.782746 103.714884 192.89389 101.032345 192.89389 98.235636 
C 192.89389 95.438928 191.782746 92.756389 189.805174 90.778817 
C 187.827603 88.801246 185.145063 87.690102 182.348355 87.690102 
C 179.551646 87.690102 176.869107 88.801246 174.891536 90.778817 
C 172.913964 92.756389 171.80282 95.438928 171.80282 98.235636 
C 171.80282 101.032345 172.913964 103.714884 174.891536 105.692456 
C 176.869107 107.670027 179.551646 108.781171 182.348355 108.781171 
z
" clip-path="url(#pb2a0a31845)" style="fill: #002d9c; stroke: #002d9c; stroke-width: 2; stroke-linejoin: miter"/>
   </g>
   <g id="patch_10">
    <path d="M 167.283305 159.654686 
L 197.413405 159.654686 
L 197.413405 129.524586 
L 167.283305 129.524586 
z
" clip-path="url(#pb2a0a31845)" style="fill: #fa4d56; stroke: #fa4d56; stroke-width: 1.5; stroke-linejoin: miter"/>
   </g>
   <g id="patch_11">
    <path d="M 211.124918 66.946687 
L 246.279791 66.946687 
L 246.279791 36.816587 
L 211.124918 36.816587 
z
" clip-path="url(#pb2a0a31845)" style="fill: #9f1853; stroke: #9f1853; stroke-width: 1.5; stroke-linejoin: miter"/>
   </g>
   <g id="patch_12">
    <path d="M 213.637304 113.300686 
L 243.767404 113.300686 
L 243.767404 83.170587 
L 213.637304 83.170587 
z
" clip-path="url(#pb2a0a31845)" style="fill: #fa4d56; stroke: #fa4d56; stroke-width: 1.5; stroke-linejoin: miter"/>
   </g>
   <g id="patch_13">
    <path d="M 257.430245 113.300686 
L 292.682462 113.300686 
L 292.682462 83.170587 
L 257.430245 83.170587 
z
" clip-path="url(#pb2a0a31845)" style="fill: #9f1853; stroke: #9f1853; stroke-width: 1.5; stroke-linejoin: miter"/>
   </g>
   <g id="patch_14">
    <path d="M 321.410353 102.755151 
C 322.608942 102.755151 323.758602 102.278947 324.606133 101.431416 
C 325.453663 100.583885 325.929868 99.434226 325.929868 98.235636 
C 325.929868 97.037047 325.453663 95.887387 324.606133 95.039857 
C 323.758602 94.192326 322.608942 93.716121 321.410353 93.716121 
C 320.211764 93.716121 319.062104 94.192326 318.214573 95.039857 
C 317.367043 95.887387 316.890838 97.037047 316.890838 98.235636 
C 316.890838 99.434226 317.367043 100.583885 318.214573 101.431416 
C 319.062104 102.278947 320.211764 102.755151 321.410353 102.755151 
z
" clip-path="url(#pb2a0a31845)" style="fill: #002d9c; stroke: #002d9c; stroke-width: 1.5; stroke-linejoin: miter"/>
   </g>
   <g id="patch_15">
    <path d="M 321.410353 155.135171 
C 324.207062 155.135171 326.889601 154.024027 328.867172 152.046455 
C 330.844744 150.068883 331.955888 147.386344 331.955888 144.589636 
C 331.955888 141.792927 330.844744 139.110388 328.867172 137.132817 
C 326.889601 135.155245 324.207062 134.044101 321.410353 134.044101 
C 318.613645 134.044101 315.931105 135.155245 313.953534 137.132817 
C 311.975962 139.110388 310.864818 141.792927 310.864818 144.589636 
C 310.864818 147.386344 311.975962 150.068883 313.953534 152.046455 
C 315.931105 154.024027 318.613645 155.135171 321.410353 155.135171 
z
" clip-path="url(#pb2a0a31845)" style="fill: #002d9c; stroke: #002d9c; stroke-width: 2; stroke-linejoin: miter"/>
   </g>
   <g id="patch_16">
    <path d="M 367.764352 56.401152 
C 368.962942 56.401152 370.112601 55.924947 370.960132 55.077417 
C 371.807663 54.229886 372.283867 53.080226 372.283867 51.881637 
C 372.283867 50.683048 371.807663 49.533388 370.960132 48.685857 
C 370.112601 47.838327 368.962942 47.362122 367.764352 47.362122 
C 366.565763 47.362122 365.416103 47.838327 364.568573 48.685857 
C 363.721042 49.533388 363.244837 50.683048 363.244837 51.881637 
C 363.244837 53.080226 363.721042 54.229886 364.568573 55.077417 
C 365.416103 55.924947 366.565763 56.401152 367.764352 56.401152 
z
" clip-path="url(#pb2a0a31845)" style="fill: #002d9c; stroke: #002d9c; stroke-width: 1.5; stroke-linejoin: miter"/>
   </g>
   <g id="patch_17">
    <path d="M 367.764352 155.135171 
C 370.561061 155.135171 373.2436 154.024027 375.221172 152.046455 
C 377.198743 150.068883 378.309887 147.386344 378.309887 144.589636 
C 378.309887 141.792927 377.198743 139.110388 375.221172 137.132817 
C 373.2436 135.155245 370.561061 134.044101 367.764352 134.044101 
C 364.967644 134.044101 362.285105 135.155245 360.307533 137.132817 
C 358.329962 139.110388 357.218818 141.792927 357.218818 144.589636 
C 357.218818 147.386344 358.329962 150.068883 360.307533 152.046455 
C 362.285105 154.024027 364.967644 155.135171 367.764352 155.135171 
z
" clip-path="url(#pb2a0a31845)" style="fill: #002d9c; stroke: #002d9c; stroke-width: 2; stroke-linejoin: miter"/>
   </g>
   <g id="patch_18">
    <path d="M 396.492244 113.300686 
L 431.74446 113.300686 
L 431.74446 83.170587 
L 396.492244 83.170587 
z
" clip-path="url(#pb2a0a31845)" style="fill: #9f1853; stroke: #9f1853; stroke-width: 1.5; stroke-linejoin: miter"/>
   </g>
   <g id="patch_19">
    <path d="M 396.540915 66.946687 
L 431.695788 66.946687 
L 431.695788 36.816587 
L 396.540915 36.816587 
z
" clip-path="url(#pb2a0a31845)" style="fill: #9f1853; stroke: #9f1853; stroke-width: 1.5; stroke-linejoin: miter"/>
   </g>
   <g id="patch_20">
    <path d="M 399.053302 159.654686 
L 429.183402 159.654686 
L 429.183402 129.524586 
L 399.053302 129.524586 
z
" clip-path="url(#pb2a0a31845)" style="fill: #fa4d56; stroke: #fa4d56; stroke-width: 1.5; stroke-linejoin: miter"/>
   </g>
   <g id="patch_21">
    <path d="M 442.846243 159.654686 
L 478.098459 159.654686 
L 478.098459 129.524586 
L 442.846243 129.524586 
z
" clip-path="url(#pb2a0a31845)" style="fill: #9f1853; stroke: #9f1853; stroke-width: 1.5; stroke-linejoin: miter"/>
   </g>
   <g id="patch_22">
    <path d="M 506.826351 102.755151 
C 508.02494 102.755151 509.1746 102.278947 510.02213 101.431416 
C 510.869661 100.583885 511.345866 99.434226 511.345866 98.235636 
C 511.345866 97.037047 510.869661 95.887387 510.02213 95.039857 
C 509.1746 94.192326 508.02494 93.716121 506.826351 93.716121 
C 505.627761 93.716121 504.478102 94.192326 503.630571 95.039857 
C 502.78304 95.887387 502.306836 97.037047 502.306836 98.235636 
C 502.306836 99.434226 502.78304 100.583885 503.630571 101.431416 
C 504.478102 102.278947 505.627761 102.755151 506.826351 102.755151 
z
" clip-path="url(#pb2a0a31845)" style="fill: #002d9c; stroke: #002d9c; stroke-width: 1.5; stroke-linejoin: miter"/>
   </g>
   <g id="patch_23">
    <path d="M 506.826351 155.135171 
C 509.623059 155.135171 512.305598 154.024027 514.28317 152.046455 
C 516.260741 150.068883 517.371885 147.386344 517.371885 144.589636 
C 517.371885 141.792927 516.260741 139.110388 514.28317 137.132817 
C 512.305598 135.155245 509.623059 134.044101 506.826351 134.044101 
C 504.029642 134.044101 501.347103 135.155245 499.369531 137.132817 
C 497.39196 139.110388 496.280816 141.792927 496.280816 144.589636 
C 496.280816 147.386344 497.39196 150.068883 499.369531 152.046455 
C 501.347103 154.024027 504.029642 155.135171 506.826351 155.135171 
z
" clip-path="url(#pb2a0a31845)" style="fill: #002d9c; stroke: #002d9c; stroke-width: 2; stroke-linejoin: miter"/>
   </g>
   <g id="patch_24">
    <path d="M 538.1153 159.654686 
L 568.2454 159.654686 
L 568.2454 129.524586 
L 538.1153 129.524586 
z
" clip-path="url(#pb2a0a31845)" style="fill: #33b1ff; stroke: #33b1ff; stroke-width: 1.5; stroke-linejoin: miter"/>
   </g>
   <g id="patch_25">
    <path d="M 599.534349 56.401152 
C 600.732939 56.401152 601.882598 55.924947 602.730129 55.077417 
C 603.57766 54.229886 604.053864 53.080226 604.053864 51.881637 
C 604.053864 50.683048 603.57766 49.533388 602.730129 48.685857 
C 601.882598 47.838327 600.732939 47.362122 599.534349 47.362122 
C 598.33576 47.362122 597.1861 47.838327 596.33857 48.685857 
C 595.491039 49.533388 595.014834 50.683048 595.014834 51.881637 
C 595.014834 53.080226 595.491039 54.229886 596.33857 55.077417 
C 597.1861 55.924947 598.33576 56.401152 599.534349 56.401152 
z
" clip-path="url(#pb2a0a31845)" style="fill: #002d9c; stroke: #002d9c; stroke-width: 1.5; stroke-linejoin: miter"/>
   </g>
   <g id="patch_26">
    <path d="M 599.534349 155.135171 
C 602.331058 155.135171 605.013597 154.024027 606.991169 152.046455 
C 608.96874 150.068883 610.079884 147.386344 610.079884 144.589636 
C 610.079884 141.792927 608.96874 139.110388 606.991169 137.132817 
C 605.013597 135.155245 602.331058 134.044101 599.534349 134.044101 
C 596.737641 134.044101 594.055102 135.155245 592.07753 137.132817 
C 590.099959 139.110388 588.988814 141.792927 588.988814 144.589636 
C 588.988814 147.386344 590.099959 150.068883 592.07753 152.046455 
C 594.055102 154.024027 596.737641 155.135171 599.534349 155.135171 
z
" clip-path="url(#pb2a0a31845)" style="fill: #002d9c; stroke: #002d9c; stroke-width: 2; stroke-linejoin: miter"/>
   </g>
   <g id="patch_27">
    <path d="M 630.823299 159.654686 
L 660.953399 159.654686 
L 660.953399 129.524586 
L 630.823299 129.524586 
z
" clip-path="url(#pb2a0a31845)" style="fill: #33b1ff; stroke: #33b1ff; stroke-width: 1.5; stroke-linejoin: miter"/>
   </g>
   <g id="patch_28">
    <path d="M 692.242348 102.755151 
C 693.440937 102.755151 694.590597 102.278947 695.438128 101.431416 
C 696.285658 100.583885 696.761863 99.434226 696.761863 98.235636 
C 696.761863 97.037047 696.285658 95.887387 695.438128 95.039857 
C 694.590597 94.192326 693.440937 93.716121 692.242348 93.716121 
C 691.043759 93.716121 689.894099 94.192326 689.046568 95.039857 
C 688.199038 95.887387 687.722833 97.037047 687.722833 98.235636 
C 687.722833 99.434226 688.199038 100.583885 689.046568 101.431416 
C 689.894099 102.278947 691.043759 102.755151 692.242348 102.755151 
z
" clip-path="url(#pb2a0a31845)" style="fill: #002d9c; stroke: #002d9c; stroke-width: 1.5; stroke-linejoin: miter"/>
   </g>
   <g id="patch_29">
    <path d="M 692.242348 155.135171 
C 695.039057 155.135171 697.721596 154.024027 699.699167 152.046455 
C 701.676739 150.068883 702.787883 147.386344 702.787883 144.589636 
C 702.787883 141.792927 701.676739 139.110388 699.699167 137.132817 
C 697.721596 135.155245 695.039057 134.044101 692.242348 134.044101 
C 689.44564 134.044101 686.7631 135.155245 684.785529 137.132817 
C 682.807957 139.110388 681.696813 141.792927 681.696813 144.589636 
C 681.696813 147.386344 682.807957 150.068883 684.785529 152.046455 
C 686.7631 154.024027 689.44564 155.135171 692.242348 155.135171 
z
" clip-path="url(#pb2a0a31845)" style="fill: #002d9c; stroke: #002d9c; stroke-width: 2; stroke-linejoin: miter"/>
   </g>
   <g id="patch_30">
    <path d="M 723.531298 113.300686 
L 753.661397 113.300686 
L 753.661397 83.170587 
L 723.531298 83.170587 
z
" clip-path="url(#pb2a0a31845)" style="fill: #33b1ff; stroke: #33b1ff; stroke-width: 1.5; stroke-linejoin: miter"/>
   </g>
   <g id="patch_31">
    <path d="M 723.531298 159.654686 
L 753.661397 159.654686 
L 753.661397 129.524586 
L 723.531298 129.524586 
z
" clip-path="url(#pb2a0a31845)" style="fill: #33b1ff; stroke: #33b1ff; stroke-width: 1.5; stroke-linejoin: miter"/>
   </g>
   <g id="patch_32">
    <path d="M 784.950347 56.401152 
C 786.148936 56.401152 787.298596 55.924947 788.146127 55.077417 
C 788.993657 54.229886 789.469862 53.080226 789.469862 51.881637 
C 789.469862 50.683048 788.993657 49.533388 788.146127 48.685857 
C 787.298596 47.838327 786.148936 47.362122 784.950347 47.362122 
C 783.751758 47.362122 782.602098 47.838327 781.754567 48.685857 
C 780.907037 49.533388 780.430832 50.683048 780.430832 51.881637 
C 780.430832 53.080226 780.907037 54.229886 781.754567 55.077417 
C 782.602098 55.924947 783.751758 56.401152 784.950347 56.401152 
z
" clip-path="url(#pb2a0a31845)" style="fill: #002d9c; stroke: #002d9c; stroke-width: 1.5; stroke-linejoin: miter"/>
   </g>
   <g id="patch_33">
    <path d="M 784.950347 155.135171 
C 787.747055 155.135171 790.429595 154.024027 792.407166 152.046455 
C 794.384738 150.068883 795.495882 147.386344 795.495882 144.589636 
C 795.495882 141.792927 794.384738 139.110388 792.407166 137.132817 
C 790.429595 135.155245 787.747055 134.044101 784.950347 134.044101 
C 782.153638 134.044101 779.471099 135.155245 777.493528 137.132817 
C 775.515956 139.110388 774.404812 141.792927 774.404812 144.589636 
C 774.404812 147.386344 775.515956 150.068883 777.493528 152.046455 
C 779.471099 154.024027 782.153638 155.135171 784.950347 155.135171 
z
" clip-path="url(#pb2a0a31845)" style="fill: #002d9c; stroke: #002d9c; stroke-width: 2; stroke-linejoin: miter"/>
   </g>
   <g id="patch_34">
    <path d="M 831.304346 56.401152 
C 832.502936 56.401152 833.652595 55.924947 834.500126 55.077417 
C 835.347657 54.229886 835.823861 53.080226 835.823861 51.881637 
C 835.823861 50.683048 835.347657 49.533388 834.500126 48.685857 
C 833.652595 47.838327 832.502936 47.362122 831.304346 47.362122 
C 830.105757 47.362122 828.956097 47.838327 828.108567 48.685857 
C 827.261036 49.533388 826.784831 50.683048 826.784831 51.881637 
C 826.784831 53.080226 827.261036 54.229886 828.108567 55.077417 
C 828.956097 55.924947 830.105757 56.401152 831.304346 56.401152 
z
" clip-path="url(#pb2a0a31845)" style="fill: #002d9c; stroke: #002d9c; stroke-width: 1.5; stroke-linejoin: miter"/>
   </g>
   <g id="patch_35">
    <path d="M 831.304346 108.781171 
C 834.101055 108.781171 836.783594 107.670027 838.761165 105.692456 
C 840.738737 103.714884 841.849881 101.032345 841.849881 98.235636 
C 841.849881 95.438928 840.738737 92.756389 838.761165 90.778817 
C 836.783594 88.801246 834.101055 87.690102 831.304346 87.690102 
C 828.507638 87.690102 825.825099 88.801246 823.847527 90.778817 
C 821.869955 92.756389 820.758811 95.438928 820.758811 98.235636 
C 820.758811 101.032345 821.869955 103.714884 823.847527 105.692456 
C 825.825099 107.670027 828.507638 108.781171 831.304346 108.781171 
z
" clip-path="url(#pb2a0a31845)" style="fill: #002d9c; stroke: #002d9c; stroke-width: 2; stroke-linejoin: miter"/>
   </g>
   <g id="patch_36">
    <path d="M 816.239296 159.654686 
L 846.369396 159.654686 
L 846.369396 129.524586 
L 816.239296 129.524586 
z
" clip-path="url(#pb2a0a31845)" style="fill: #33b1ff; stroke: #33b1ff; stroke-width: 1.5; stroke-linejoin: miter"/>
   </g>
   <g id="patch_37">
    <path d="M 862.593296 66.946687 
L 892.723395 66.946687 
L 892.723395 36.816587 
L 862.593296 36.816587 
z
" clip-path="url(#pb2a0a31845)" style="fill: #33b1ff; stroke: #33b1ff; stroke-width: 1.5; stroke-linejoin: miter"/>
   </g>
   <g id="patch_38">
    <path d="M 862.593296 113.300686 
L 892.723395 113.300686 
L 892.723395 83.170587 
L 862.593296 83.170587 
z
" clip-path="url(#pb2a0a31845)" style="fill: #33b1ff; stroke: #33b1ff; stroke-width: 1.5; stroke-linejoin: miter"/>
   </g>
   <g id="patch_39">
    <path d="M 924.012345 56.401152 
C 925.210934 56.401152 926.360594 55.924947 927.208125 55.077417 
C 928.055655 54.229886 928.53186 53.080226 928.53186 51.881637 
C 928.53186 50.683048 928.055655 49.533388 927.208125 48.685857 
C 926.360594 47.838327 925.210934 47.362122 924.012345 47.362122 
C 922.813756 47.362122 921.664096 47.838327 920.816565 48.685857 
C 919.969035 49.533388 919.49283 50.683048 919.49283 51.881637 
C 919.49283 53.080226 919.969035 54.229886 920.816565 55.077417 
C 921.664096 55.924947 922.813756 56.401152 924.012345 56.401152 
z
" clip-path="url(#pb2a0a31845)" style="fill: #002d9c; stroke: #002d9c; stroke-width: 1.5; stroke-linejoin: miter"/>
   </g>
   <g id="patch_40">
    <path d="M 924.012345 108.781171 
C 926.809054 108.781171 929.491593 107.670027 931.469164 105.692456 
C 933.446736 103.714884 934.55788 101.032345 934.55788 98.235636 
C 934.55788 95.438928 933.446736 92.756389 931.469164 90.778817 
C 929.491593 88.801246 926.809054 87.690102 924.012345 87.690102 
C 921.215637 87.690102 918.533097 88.801246 916.555526 90.778817 
C 914.577954 92.756389 913.46681 95.438928 913.46681 98.235636 
C 913.46681 101.032345 914.577954 103.714884 916.555526 105.692456 
C 918.533097 107.670027 921.215637 108.781171 924.012345 108.781171 
z
" clip-path="url(#pb2a0a31845)" style="fill: #002d9c; stroke: #002d9c; stroke-width: 2; stroke-linejoin: miter"/>
   </g>
   <g id="line2d_13">
    <path d="M 182.348355 104.261656 
L 182.348355 92.209616 
" clip-path="url(#pb2a0a31845)" style="fill: none; stroke: #ffffff; stroke-width: 2; stroke-linecap: square"/>
   </g>
   <g id="line2d_14">
    <path d="M 176.322335 98.235636 
L 188.374375 98.235636 
" clip-path="url(#pb2a0a31845)" style="fill: none; stroke: #ffffff; stroke-width: 2; stroke-linecap: square"/>
   </g>
   <g id="line2d_15">
    <path d="M 321.410353 150.615656 
L 321.410353 138.563616 
" clip-path="url(#pb2a0a31845)" style="fill: none; stroke: #ffffff; stroke-width: 2; stroke-linecap: square"/>
   </g>
   <g id="line2d_16">
    <path d="M 315.384333 144.589636 
L 327.436373 144.589636 
" clip-path="url(#pb2a0a31845)" style="fill: none; stroke: #ffffff; stroke-width: 2; stroke-linecap: square"/>
   </g>
   <g id="line2d_17">
    <path d="M 367.764352 150.615656 
L 367.764352 138.563616 
" clip-path="url(#pb2a0a31845)" style="fill: none; stroke: #ffffff; stroke-width: 2; stroke-linecap: square"/>
   </g>
   <g id="line2d_18">
    <path d="M 361.738333 144.589636 
L 373.790372 144.589636 
" clip-path="url(#pb2a0a31845)" style="fill: none; stroke: #ffffff; stroke-width: 2; stroke-linecap: square"/>
   </g>
   <g id="line2d_19">
    <path d="M 506.826351 150.615656 
L 506.826351 138.563616 
" clip-path="url(#pb2a0a31845)" style="fill: none; stroke: #ffffff; stroke-width: 2; stroke-linecap: square"/>
   </g>
   <g id="line2d_20">
    <path d="M 500.800331 144.589636 
L 512.852371 144.589636 
" clip-path="url(#pb2a0a31845)" style="fill: none; stroke: #ffffff; stroke-width: 2; stroke-linecap: square"/>
   </g>
   <g id="line2d_21">
    <path d="M 599.534349 150.615656 
L 599.534349 138.563616 
" clip-path="url(#pb2a0a31845)" style="fill: none; stroke: #ffffff; stroke-width: 2; stroke-linecap: square"/>
   </g>
   <g id="line2d_22">
    <path d="M 593.508329 144.589636 
L 605.560369 144.589636 
" clip-path="url(#pb2a0a31845)" style="fill: none; stroke: #ffffff; stroke-width: 2; stroke-linecap: square"/>
   </g>
   <g id="line2d_23">
    <path d="M 692.242348 150.615656 
L 692.242348 138.563616 
" clip-path="url(#pb2a0a31845)" style="fill: none; stroke: #ffffff; stroke-width: 2; stroke-linecap: square"/>
   </g>
   <g id="line2d_24">
    <path d="M 686.216328 144.589636 
L 698.268368 144.589636 
" clip-path="url(#pb2a0a31845)" style="fill: none; stroke: #ffffff; stroke-width: 2; stroke-linecap: square"/>
   </g>
   <g id="line2d_25">
    <path d="M 784.950347 150.615656 
L 784.950347 138.563616 
" clip-path="url(#pb2a0a31845)" style="fill: none; stroke: #ffffff; stroke-width: 2; stroke-linecap: square"/>
   </g>
   <g id="line2d_26">
    <path d="M 778.924327 144.589636 
L 790.976367 144.589636 
" clip-path="url(#pb2a0a31845)" style="fill: none; stroke: #ffffff; stroke-width: 2; stroke-linecap: square"/>
   </g>
   <g id="line2d_27">
    <path d="M 831.304346 104.261656 
L 831.304346 92.209616 
" clip-path="url(#pb2a0a31845)" style="fill: none; stroke: #ffffff; stroke-width: 2; stroke-linecap: square"/>
   </g>
   <g id="line2d_28">
    <path d="M 825.278326 98.235636 
L 837.330366 98.235636 
" clip-path="url(#pb2a0a31845)" style="fill: none; stroke: #ffffff; stroke-width: 2; stroke-linecap: square"/>
   </g>
   <g id="line2d_29">
    <path d="M 924.012345 104.261656 
L 924.012345 92.209616 
" clip-path="url(#pb2a0a31845)" style="fill: none; stroke: #ffffff; stroke-width: 2; stroke-linecap: square"/>
   </g>
   <g id="line2d_30">
    <path d="M 917.986325 98.235636 
L 930.038365 98.235636 
" clip-path="url(#pb2a0a31845)" style="fill: none; stroke: #ffffff; stroke-width: 2; stroke-linecap: square"/>
   </g>
   <g id="text_2">
    <g clip-path="url(#pb2a0a31845)">
     <!-- ${q}_{0}$ -->
     <g transform="translate(37.300897 56.332614) scale(0.1625 -0.1625)">
      <defs>
       <path id="DejaVuSans-Oblique-71" d="M 2669 525 
Q 2438 222 2123 65 
Q 1809 -91 1428 -91 
Q 897 -91 595 267 
Q 294 625 294 1253 
Q 294 1759 480 2231 
Q 666 2703 1013 3078 
Q 1238 3322 1530 3453 
Q 1822 3584 2144 3584 
Q 2531 3584 2781 3431 
Q 3031 3278 3144 2969 
L 3244 3494 
L 3822 3494 
L 2888 -1319 
L 2309 -1319 
L 2669 525 
z
M 891 1338 
Q 891 875 1084 633 
Q 1278 391 1644 391 
Q 2188 391 2572 911 
Q 2956 1431 2956 2175 
Q 2956 2625 2757 2864 
Q 2559 3103 2188 3103 
Q 1916 3103 1684 2976 
Q 1453 2850 1281 2606 
Q 1100 2350 995 2006 
Q 891 1663 891 1338 
z
" transform="scale(0.015625)"/>
       <path id="DejaVuSans-30" d="M 2034 4250 
Q 1547 4250 1301 3770 
Q 1056 3291 1056 2328 
Q 1056 1369 1301 889 
Q 1547 409 2034 409 
Q 2525 409 2770 889 
Q 3016 1369 3016 2328 
Q 3016 3291 2770 3770 
Q 2525 4250 2034 4250 
z
M 2034 4750 
Q 2819 4750 3233 4129 
Q 3647 3509 3647 2328 
Q 3647 1150 3233 529 
Q 2819 -91 2034 -91 
Q 1250 -91 836 529 
Q 422 1150 422 2328 
Q 422 3509 836 4129 
Q 1250 4750 2034 4750 
z
" transform="scale(0.015625)"/>
      </defs>
      <use xlink:href="#DejaVuSans-Oblique-71"/>
      <use xlink:href="#DejaVuSans-30" transform="translate(63.476562 -16.40625) scale(0.7)"/>
     </g>
    </g>
   </g>
   <g id="text_3">
    <g clip-path="url(#pb2a0a31845)">
     <!-- ${q}_{1}$ -->
     <g transform="translate(37.300897 102.686613) scale(0.1625 -0.1625)">
      <defs>
       <path id="DejaVuSans-31" d="M 794 531 
L 1825 531 
L 1825 4091 
L 703 3866 
L 703 4441 
L 1819 4666 
L 2450 4666 
L 2450 531 
L 3481 531 
L 3481 0 
L 794 0 
L 794 531 
z
" transform="scale(0.015625)"/>
      </defs>
      <use xlink:href="#DejaVuSans-Oblique-71"/>
      <use xlink:href="#DejaVuSans-31" transform="translate(63.476562 -16.40625) scale(0.7)"/>
     </g>
    </g>
   </g>
   <g id="text_4">
    <g clip-path="url(#pb2a0a31845)">
     <!-- ${q}_{2}$ -->
     <g transform="translate(37.300897 149.040612) scale(0.1625 -0.1625)">
      <defs>
       <path id="DejaVuSans-32" d="M 1228 531 
L 3431 531 
L 3431 0 
L 469 0 
L 469 531 
Q 828 903 1448 1529 
Q 2069 2156 2228 2338 
Q 2531 2678 2651 2914 
Q 2772 3150 2772 3378 
Q 2772 3750 2511 3984 
Q 2250 4219 1831 4219 
Q 1534 4219 1204 4116 
Q 875 4013 500 3803 
L 500 4441 
Q 881 4594 1212 4672 
Q 1544 4750 1819 4750 
Q 2544 4750 2975 4387 
Q 3406 4025 3406 3419 
Q 3406 3131 3298 2873 
Q 3191 2616 2906 2266 
Q 2828 2175 2409 1742 
Q 1991 1309 1228 531 
z
" transform="scale(0.015625)"/>
      </defs>
      <use xlink:href="#DejaVuSans-Oblique-71"/>
      <use xlink:href="#DejaVuSans-32" transform="translate(63.476562 -16.40625) scale(0.7)"/>
     </g>
    </g>
   </g>
   <g id="text_5">
    <g clip-path="url(#pb2a0a31845)">
     <!-- theta[0] -->
     <g style="fill: #ffffff" transform="translate(73.390356 63.128167) scale(0.08 -0.08)">
      <defs>
       <path id="DejaVuSans-74" d="M 1172 4494 
L 1172 3500 
L 2356 3500 
L 2356 3053 
L 1172 3053 
L 1172 1153 
Q 1172 725 1289 603 
Q 1406 481 1766 481 
L 2356 481 
L 2356 0 
L 1766 0 
Q 1100 0 847 248 
Q 594 497 594 1153 
L 594 3053 
L 172 3053 
L 172 3500 
L 594 3500 
L 594 4494 
L 1172 4494 
z
" transform="scale(0.015625)"/>
       <path id="DejaVuSans-5b" d="M 550 4863 
L 1875 4863 
L 1875 4416 
L 1125 4416 
L 1125 -397 
L 1875 -397 
L 1875 -844 
L 550 -844 
L 550 4863 
z
" transform="scale(0.015625)"/>
       <path id="DejaVuSans-5d" d="M 1947 4863 
L 1947 -844 
L 622 -844 
L 622 -397 
L 1369 -397 
L 1369 4416 
L 622 4416 
L 622 4863 
L 1947 4863 
z
" transform="scale(0.015625)"/>
      </defs>
      <use xlink:href="#DejaVuSans-74"/>
      <use xlink:href="#DejaVuSans-68" x="39.208984"/>
      <use xlink:href="#DejaVuSans-65" x="102.587891"/>
      <use xlink:href="#DejaVuSans-74" x="164.111328"/>
      <use xlink:href="#DejaVuSans-61" x="203.320312"/>
      <use xlink:href="#DejaVuSans-5b" x="264.599609"/>
      <use xlink:href="#DejaVuSans-30" x="303.613281"/>
      <use xlink:href="#DejaVuSans-5d" x="367.236328"/>
     </g>
    </g>
   </g>
   <g id="text_6">
    <g clip-path="url(#pb2a0a31845)">
     <!-- $\mathrm{R_Y}$ -->
     <g style="fill: #ffffff" transform="translate(82.100356 50.94931) scale(0.13 -0.13)">
      <defs>
       <path id="DejaVuSans-52" d="M 2841 2188 
Q 3044 2119 3236 1894 
Q 3428 1669 3622 1275 
L 4263 0 
L 3584 0 
L 2988 1197 
Q 2756 1666 2539 1819 
Q 2322 1972 1947 1972 
L 1259 1972 
L 1259 0 
L 628 0 
L 628 4666 
L 2053 4666 
Q 2853 4666 3247 4331 
Q 3641 3997 3641 3322 
Q 3641 2881 3436 2590 
Q 3231 2300 2841 2188 
z
M 1259 4147 
L 1259 2491 
L 2053 2491 
Q 2509 2491 2742 2702 
Q 2975 2913 2975 3322 
Q 2975 3731 2742 3939 
Q 2509 4147 2053 4147 
L 1259 4147 
z
" transform="scale(0.015625)"/>
       <path id="DejaVuSans-59" d="M -13 4666 
L 666 4666 
L 1959 2747 
L 3244 4666 
L 3922 4666 
L 2272 2222 
L 2272 0 
L 1638 0 
L 1638 2222 
L -13 4666 
z
" transform="scale(0.015625)"/>
      </defs>
      <use xlink:href="#DejaVuSans-52" transform="translate(0 0.09375)"/>
      <use xlink:href="#DejaVuSans-59" transform="translate(70.439453 -16.3125) scale(0.7)"/>
     </g>
    </g>
   </g>
   <g id="text_7">
    <g clip-path="url(#pb2a0a31845)">
     <!-- theta[1] -->
     <g style="fill: #ffffff" transform="translate(73.390356 109.482166) scale(0.08 -0.08)">
      <use xlink:href="#DejaVuSans-74"/>
      <use xlink:href="#DejaVuSans-68" x="39.208984"/>
      <use xlink:href="#DejaVuSans-65" x="102.587891"/>
      <use xlink:href="#DejaVuSans-74" x="164.111328"/>
      <use xlink:href="#DejaVuSans-61" x="203.320312"/>
      <use xlink:href="#DejaVuSans-5b" x="264.599609"/>
      <use xlink:href="#DejaVuSans-31" x="303.613281"/>
      <use xlink:href="#DejaVuSans-5d" x="367.236328"/>
     </g>
    </g>
   </g>
   <g id="text_8">
    <g clip-path="url(#pb2a0a31845)">
     <!-- $\mathrm{R_Y}$ -->
     <g style="fill: #ffffff" transform="translate(82.100356 97.303309) scale(0.13 -0.13)">
      <use xlink:href="#DejaVuSans-52" transform="translate(0 0.09375)"/>
      <use xlink:href="#DejaVuSans-59" transform="translate(70.439453 -16.3125) scale(0.7)"/>
     </g>
    </g>
   </g>
   <g id="text_9">
    <g clip-path="url(#pb2a0a31845)">
     <!-- theta[2] -->
     <g style="fill: #ffffff" transform="translate(73.390356 155.836166) scale(0.08 -0.08)">
      <use xlink:href="#DejaVuSans-74"/>
      <use xlink:href="#DejaVuSans-68" x="39.208984"/>
      <use xlink:href="#DejaVuSans-65" x="102.587891"/>
      <use xlink:href="#DejaVuSans-74" x="164.111328"/>
      <use xlink:href="#DejaVuSans-61" x="203.320312"/>
      <use xlink:href="#DejaVuSans-5b" x="264.599609"/>
      <use xlink:href="#DejaVuSans-32" x="303.613281"/>
      <use xlink:href="#DejaVuSans-5d" x="367.236328"/>
     </g>
    </g>
   </g>
   <g id="text_10">
    <g clip-path="url(#pb2a0a31845)">
     <!-- $\mathrm{R_Y}$ -->
     <g style="fill: #ffffff" transform="translate(82.100356 143.657308) scale(0.13 -0.13)">
      <use xlink:href="#DejaVuSans-52" transform="translate(0 0.09375)"/>
      <use xlink:href="#DejaVuSans-59" transform="translate(70.439453 -16.3125) scale(0.7)"/>
     </g>
    </g>
   </g>
   <g id="text_11">
    <g clip-path="url(#pb2a0a31845)">
     <!-- H -->
     <g transform="translate(131.106152 101.822824) scale(0.13 -0.13)">
      <defs>
       <path id="DejaVuSans-48" d="M 628 4666 
L 1259 4666 
L 1259 2753 
L 3553 2753 
L 3553 4666 
L 4184 4666 
L 4184 0 
L 3553 0 
L 3553 2222 
L 1259 2222 
L 1259 0 
L 628 0 
L 628 4666 
z
" transform="scale(0.015625)"/>
      </defs>
      <use xlink:href="#DejaVuSans-48"/>
     </g>
    </g>
   </g>
   <g id="text_12">
    <g clip-path="url(#pb2a0a31845)">
     <!-- theta[5] -->
     <g style="fill: #ffffff" transform="translate(119.744356 155.836166) scale(0.08 -0.08)">
      <defs>
       <path id="DejaVuSans-35" d="M 691 4666 
L 3169 4666 
L 3169 4134 
L 1269 4134 
L 1269 2991 
Q 1406 3038 1543 3061 
Q 1681 3084 1819 3084 
Q 2600 3084 3056 2656 
Q 3513 2228 3513 1497 
Q 3513 744 3044 326 
Q 2575 -91 1722 -91 
Q 1428 -91 1123 -41 
Q 819 9 494 109 
L 494 744 
Q 775 591 1075 516 
Q 1375 441 1709 441 
Q 2250 441 2565 725 
Q 2881 1009 2881 1497 
Q 2881 1984 2565 2268 
Q 2250 2553 1709 2553 
Q 1456 2553 1204 2497 
Q 953 2441 691 2322 
L 691 4666 
z
" transform="scale(0.015625)"/>
      </defs>
      <use xlink:href="#DejaVuSans-74"/>
      <use xlink:href="#DejaVuSans-68" x="39.208984"/>
      <use xlink:href="#DejaVuSans-65" x="102.587891"/>
      <use xlink:href="#DejaVuSans-74" x="164.111328"/>
      <use xlink:href="#DejaVuSans-61" x="203.320312"/>
      <use xlink:href="#DejaVuSans-5b" x="264.599609"/>
      <use xlink:href="#DejaVuSans-35" x="303.613281"/>
      <use xlink:href="#DejaVuSans-5d" x="367.236328"/>
     </g>
    </g>
   </g>
   <g id="text_13">
    <g clip-path="url(#pb2a0a31845)">
     <!-- $\mathrm{R_Y}$ -->
     <g style="fill: #ffffff" transform="translate(128.454356 143.657308) scale(0.13 -0.13)">
      <use xlink:href="#DejaVuSans-52" transform="translate(0 0.09375)"/>
      <use xlink:href="#DejaVuSans-59" transform="translate(70.439453 -16.3125) scale(0.7)"/>
     </g>
    </g>
   </g>
   <g id="text_14">
    <g clip-path="url(#pb2a0a31845)">
     <!-- H -->
     <g transform="translate(177.460152 148.176823) scale(0.13 -0.13)">
      <use xlink:href="#DejaVuSans-48"/>
     </g>
    </g>
   </g>
   <g id="text_15">
    <g clip-path="url(#pb2a0a31845)">
     <!-- theta[3] -->
     <g style="fill: #ffffff" transform="translate(212.452354 63.128167) scale(0.08 -0.08)">
      <defs>
       <path id="DejaVuSans-33" d="M 2597 2516 
Q 3050 2419 3304 2112 
Q 3559 1806 3559 1356 
Q 3559 666 3084 287 
Q 2609 -91 1734 -91 
Q 1441 -91 1130 -33 
Q 819 25 488 141 
L 488 750 
Q 750 597 1062 519 
Q 1375 441 1716 441 
Q 2309 441 2620 675 
Q 2931 909 2931 1356 
Q 2931 1769 2642 2001 
Q 2353 2234 1838 2234 
L 1294 2234 
L 1294 2753 
L 1863 2753 
Q 2328 2753 2575 2939 
Q 2822 3125 2822 3475 
Q 2822 3834 2567 4026 
Q 2313 4219 1838 4219 
Q 1578 4219 1281 4162 
Q 984 4106 628 3988 
L 628 4550 
Q 988 4650 1302 4700 
Q 1616 4750 1894 4750 
Q 2613 4750 3031 4423 
Q 3450 4097 3450 3541 
Q 3450 3153 3228 2886 
Q 3006 2619 2597 2516 
z
" transform="scale(0.015625)"/>
      </defs>
      <use xlink:href="#DejaVuSans-74"/>
      <use xlink:href="#DejaVuSans-68" x="39.208984"/>
      <use xlink:href="#DejaVuSans-65" x="102.587891"/>
      <use xlink:href="#DejaVuSans-74" x="164.111328"/>
      <use xlink:href="#DejaVuSans-61" x="203.320312"/>
      <use xlink:href="#DejaVuSans-5b" x="264.599609"/>
      <use xlink:href="#DejaVuSans-33" x="303.613281"/>
      <use xlink:href="#DejaVuSans-5d" x="367.236328"/>
     </g>
    </g>
   </g>
   <g id="text_16">
    <g clip-path="url(#pb2a0a31845)">
     <!-- $\mathrm{R_Y}$ -->
     <g style="fill: #ffffff" transform="translate(221.162354 50.94931) scale(0.13 -0.13)">
      <use xlink:href="#DejaVuSans-52" transform="translate(0 0.09375)"/>
      <use xlink:href="#DejaVuSans-59" transform="translate(70.439453 -16.3125) scale(0.7)"/>
     </g>
    </g>
   </g>
   <g id="text_17">
    <g clip-path="url(#pb2a0a31845)">
     <!-- H -->
     <g transform="translate(223.814151 101.822824) scale(0.13 -0.13)">
      <use xlink:href="#DejaVuSans-48"/>
     </g>
    </g>
   </g>
   <g id="text_18">
    <g clip-path="url(#pb2a0a31845)">
     <!-- theta[4] -->
     <g style="fill: #ffffff" transform="translate(258.806354 109.482166) scale(0.08 -0.08)">
      <defs>
       <path id="DejaVuSans-34" d="M 2419 4116 
L 825 1625 
L 2419 1625 
L 2419 4116 
z
M 2253 4666 
L 3047 4666 
L 3047 1625 
L 3713 1625 
L 3713 1100 
L 3047 1100 
L 3047 0 
L 2419 0 
L 2419 1100 
L 313 1100 
L 313 1709 
L 2253 4666 
z
" transform="scale(0.015625)"/>
      </defs>
      <use xlink:href="#DejaVuSans-74"/>
      <use xlink:href="#DejaVuSans-68" x="39.208984"/>
      <use xlink:href="#DejaVuSans-65" x="102.587891"/>
      <use xlink:href="#DejaVuSans-74" x="164.111328"/>
      <use xlink:href="#DejaVuSans-61" x="203.320312"/>
      <use xlink:href="#DejaVuSans-5b" x="264.599609"/>
      <use xlink:href="#DejaVuSans-34" x="303.613281"/>
      <use xlink:href="#DejaVuSans-5d" x="367.236328"/>
     </g>
    </g>
   </g>
   <g id="text_19">
    <g clip-path="url(#pb2a0a31845)">
     <!-- $\mathrm{R_Y}$ -->
     <g style="fill: #ffffff" transform="translate(267.516354 97.303309) scale(0.13 -0.13)">
      <use xlink:href="#DejaVuSans-52" transform="translate(0 0.09375)"/>
      <use xlink:href="#DejaVuSans-59" transform="translate(70.439453 -16.3125) scale(0.7)"/>
     </g>
    </g>
   </g>
   <g id="text_20">
    <g clip-path="url(#pb2a0a31845)">
     <!-- theta[7] -->
     <g style="fill: #ffffff" transform="translate(397.868352 109.482166) scale(0.08 -0.08)">
      <defs>
       <path id="DejaVuSans-37" d="M 525 4666 
L 3525 4666 
L 3525 4397 
L 1831 0 
L 1172 0 
L 2766 4134 
L 525 4134 
L 525 4666 
z
" transform="scale(0.015625)"/>
      </defs>
      <use xlink:href="#DejaVuSans-74"/>
      <use xlink:href="#DejaVuSans-68" x="39.208984"/>
      <use xlink:href="#DejaVuSans-65" x="102.587891"/>
      <use xlink:href="#DejaVuSans-74" x="164.111328"/>
      <use xlink:href="#DejaVuSans-61" x="203.320312"/>
      <use xlink:href="#DejaVuSans-5b" x="264.599609"/>
      <use xlink:href="#DejaVuSans-37" x="303.613281"/>
      <use xlink:href="#DejaVuSans-5d" x="367.236328"/>
     </g>
    </g>
   </g>
   <g id="text_21">
    <g clip-path="url(#pb2a0a31845)">
     <!-- $\mathrm{R_Y}$ -->
     <g style="fill: #ffffff" transform="translate(406.578352 97.303309) scale(0.13 -0.13)">
      <use xlink:href="#DejaVuSans-52" transform="translate(0 0.09375)"/>
      <use xlink:href="#DejaVuSans-59" transform="translate(70.439453 -16.3125) scale(0.7)"/>
     </g>
    </g>
   </g>
   <g id="text_22">
    <g clip-path="url(#pb2a0a31845)">
     <!-- theta[6] -->
     <g style="fill: #ffffff" transform="translate(397.868352 63.128167) scale(0.08 -0.08)">
      <defs>
       <path id="DejaVuSans-36" d="M 2113 2584 
Q 1688 2584 1439 2293 
Q 1191 2003 1191 1497 
Q 1191 994 1439 701 
Q 1688 409 2113 409 
Q 2538 409 2786 701 
Q 3034 994 3034 1497 
Q 3034 2003 2786 2293 
Q 2538 2584 2113 2584 
z
M 3366 4563 
L 3366 3988 
Q 3128 4100 2886 4159 
Q 2644 4219 2406 4219 
Q 1781 4219 1451 3797 
Q 1122 3375 1075 2522 
Q 1259 2794 1537 2939 
Q 1816 3084 2150 3084 
Q 2853 3084 3261 2657 
Q 3669 2231 3669 1497 
Q 3669 778 3244 343 
Q 2819 -91 2113 -91 
Q 1303 -91 875 529 
Q 447 1150 447 2328 
Q 447 3434 972 4092 
Q 1497 4750 2381 4750 
Q 2619 4750 2861 4703 
Q 3103 4656 3366 4563 
z
" transform="scale(0.015625)"/>
      </defs>
      <use xlink:href="#DejaVuSans-74"/>
      <use xlink:href="#DejaVuSans-68" x="39.208984"/>
      <use xlink:href="#DejaVuSans-65" x="102.587891"/>
      <use xlink:href="#DejaVuSans-74" x="164.111328"/>
      <use xlink:href="#DejaVuSans-61" x="203.320312"/>
      <use xlink:href="#DejaVuSans-5b" x="264.599609"/>
      <use xlink:href="#DejaVuSans-36" x="303.613281"/>
      <use xlink:href="#DejaVuSans-5d" x="367.236328"/>
     </g>
    </g>
   </g>
   <g id="text_23">
    <g clip-path="url(#pb2a0a31845)">
     <!-- $\mathrm{R_Y}$ -->
     <g style="fill: #ffffff" transform="translate(406.578352 50.94931) scale(0.13 -0.13)">
      <use xlink:href="#DejaVuSans-52" transform="translate(0 0.09375)"/>
      <use xlink:href="#DejaVuSans-59" transform="translate(70.439453 -16.3125) scale(0.7)"/>
     </g>
    </g>
   </g>
   <g id="text_24">
    <g clip-path="url(#pb2a0a31845)">
     <!-- H -->
     <g transform="translate(409.230149 148.176823) scale(0.13 -0.13)">
      <use xlink:href="#DejaVuSans-48"/>
     </g>
    </g>
   </g>
   <g id="text_25">
    <g clip-path="url(#pb2a0a31845)">
     <!-- theta[8] -->
     <g style="fill: #ffffff" transform="translate(444.222351 155.836166) scale(0.08 -0.08)">
      <use xlink:href="#DejaVuSans-74"/>
      <use xlink:href="#DejaVuSans-68" x="39.208984"/>
      <use xlink:href="#DejaVuSans-65" x="102.587891"/>
      <use xlink:href="#DejaVuSans-74" x="164.111328"/>
      <use xlink:href="#DejaVuSans-61" x="203.320312"/>
      <use xlink:href="#DejaVuSans-5b" x="264.599609"/>
      <use xlink:href="#DejaVuSans-38" x="303.613281"/>
      <use xlink:href="#DejaVuSans-5d" x="367.236328"/>
     </g>
    </g>
   </g>
   <g id="text_26">
    <g clip-path="url(#pb2a0a31845)">
     <!-- $\mathrm{R_Y}$ -->
     <g style="fill: #ffffff" transform="translate(452.932351 143.657308) scale(0.13 -0.13)">
      <use xlink:href="#DejaVuSans-52" transform="translate(0 0.09375)"/>
      <use xlink:href="#DejaVuSans-59" transform="translate(70.439453 -16.3125) scale(0.7)"/>
     </g>
    </g>
   </g>
   <g id="text_27">
    <g clip-path="url(#pb2a0a31845)">
     <!-- $-$$\pi$/4 -->
     <g transform="translate(543.50035 155.836166) scale(0.08 -0.08)">
      <defs>
       <path id="DejaVuSans-2212" d="M 678 2272 
L 4684 2272 
L 4684 1741 
L 678 1741 
L 678 2272 
z
" transform="scale(0.015625)"/>
      </defs>
      <use xlink:href="#DejaVuSans-2212" transform="translate(0 0.09375)"/>
      <use xlink:href="#DejaVuSans-Oblique-3c0" transform="translate(83.789062 0.09375)"/>
      <use xlink:href="#DejaVuSans-2f" transform="translate(143.994141 0.09375)"/>
      <use xlink:href="#DejaVuSans-34" transform="translate(177.685547 0.09375)"/>
     </g>
    </g>
   </g>
   <g id="text_28">
    <g clip-path="url(#pb2a0a31845)">
     <!-- $\mathrm{R_Z}$ -->
     <g transform="translate(545.25035 143.657308) scale(0.13 -0.13)">
      <defs>
       <path id="DejaVuSans-5a" d="M 359 4666 
L 4025 4666 
L 4025 4184 
L 1075 531 
L 4097 531 
L 4097 0 
L 288 0 
L 288 481 
L 3238 4134 
L 359 4134 
L 359 4666 
z
" transform="scale(0.015625)"/>
      </defs>
      <use xlink:href="#DejaVuSans-52" transform="translate(0 0.09375)"/>
      <use xlink:href="#DejaVuSans-5a" transform="translate(70.439453 -16.3125) scale(0.7)"/>
     </g>
    </g>
   </g>
   <g id="text_29">
    <g clip-path="url(#pb2a0a31845)">
     <!-- $\pi$/4 -->
     <g transform="translate(639.568349 155.836166) scale(0.08 -0.08)">
      <use xlink:href="#DejaVuSans-Oblique-3c0" transform="translate(0 0.09375)"/>
      <use xlink:href="#DejaVuSans-2f" transform="translate(60.205078 0.09375)"/>
      <use xlink:href="#DejaVuSans-34" transform="translate(93.896484 0.09375)"/>
     </g>
    </g>
   </g>
   <g id="text_30">
    <g clip-path="url(#pb2a0a31845)">
     <!-- $\mathrm{R_Z}$ -->
     <g transform="translate(637.958349 143.657308) scale(0.13 -0.13)">
      <use xlink:href="#DejaVuSans-52" transform="translate(0 0.09375)"/>
      <use xlink:href="#DejaVuSans-5a" transform="translate(70.439453 -16.3125) scale(0.7)"/>
     </g>
    </g>
   </g>
   <g id="text_31">
    <g clip-path="url(#pb2a0a31845)">
     <!-- $\pi$/4 -->
     <g transform="translate(732.276348 109.482166) scale(0.08 -0.08)">
      <use xlink:href="#DejaVuSans-Oblique-3c0" transform="translate(0 0.09375)"/>
      <use xlink:href="#DejaVuSans-2f" transform="translate(60.205078 0.09375)"/>
      <use xlink:href="#DejaVuSans-34" transform="translate(93.896484 0.09375)"/>
     </g>
    </g>
   </g>
   <g id="text_32">
    <g clip-path="url(#pb2a0a31845)">
     <!-- $\mathrm{R_Z}$ -->
     <g transform="translate(730.666348 97.303309) scale(0.13 -0.13)">
      <use xlink:href="#DejaVuSans-52" transform="translate(0 0.09375)"/>
      <use xlink:href="#DejaVuSans-5a" transform="translate(70.439453 -16.3125) scale(0.7)"/>
     </g>
    </g>
   </g>
   <g id="text_33">
    <g clip-path="url(#pb2a0a31845)">
     <!-- $-$$\pi$/4 -->
     <g transform="translate(728.916348 155.836166) scale(0.08 -0.08)">
      <use xlink:href="#DejaVuSans-2212" transform="translate(0 0.09375)"/>
      <use xlink:href="#DejaVuSans-Oblique-3c0" transform="translate(83.789062 0.09375)"/>
      <use xlink:href="#DejaVuSans-2f" transform="translate(143.994141 0.09375)"/>
      <use xlink:href="#DejaVuSans-34" transform="translate(177.685547 0.09375)"/>
     </g>
    </g>
   </g>
   <g id="text_34">
    <g clip-path="url(#pb2a0a31845)">
     <!-- $\mathrm{R_Z}$ -->
     <g transform="translate(730.666348 143.657308) scale(0.13 -0.13)">
      <use xlink:href="#DejaVuSans-52" transform="translate(0 0.09375)"/>
      <use xlink:href="#DejaVuSans-5a" transform="translate(70.439453 -16.3125) scale(0.7)"/>
     </g>
    </g>
   </g>
   <g id="text_35">
    <g clip-path="url(#pb2a0a31845)">
     <!-- $\pi$/4 -->
     <g transform="translate(824.984346 155.836166) scale(0.08 -0.08)">
      <use xlink:href="#DejaVuSans-Oblique-3c0" transform="translate(0 0.09375)"/>
      <use xlink:href="#DejaVuSans-2f" transform="translate(60.205078 0.09375)"/>
      <use xlink:href="#DejaVuSans-34" transform="translate(93.896484 0.09375)"/>
     </g>
    </g>
   </g>
   <g id="text_36">
    <g clip-path="url(#pb2a0a31845)">
     <!-- $\mathrm{R_Z}$ -->
     <g transform="translate(823.374346 143.657308) scale(0.13 -0.13)">
      <use xlink:href="#DejaVuSans-52" transform="translate(0 0.09375)"/>
      <use xlink:href="#DejaVuSans-5a" transform="translate(70.439453 -16.3125) scale(0.7)"/>
     </g>
    </g>
   </g>
   <g id="text_37">
    <g clip-path="url(#pb2a0a31845)">
     <!-- $\pi$/4 -->
     <g transform="translate(871.338346 63.128167) scale(0.08 -0.08)">
      <use xlink:href="#DejaVuSans-Oblique-3c0" transform="translate(0 0.09375)"/>
      <use xlink:href="#DejaVuSans-2f" transform="translate(60.205078 0.09375)"/>
      <use xlink:href="#DejaVuSans-34" transform="translate(93.896484 0.09375)"/>
     </g>
    </g>
   </g>
   <g id="text_38">
    <g clip-path="url(#pb2a0a31845)">
     <!-- $\mathrm{R_Z}$ -->
     <g transform="translate(869.728346 50.94931) scale(0.13 -0.13)">
      <use xlink:href="#DejaVuSans-52" transform="translate(0 0.09375)"/>
      <use xlink:href="#DejaVuSans-5a" transform="translate(70.439453 -16.3125) scale(0.7)"/>
     </g>
    </g>
   </g>
   <g id="text_39">
    <g clip-path="url(#pb2a0a31845)">
     <!-- $-$$\pi$/4 -->
     <g transform="translate(867.978346 109.482166) scale(0.08 -0.08)">
      <use xlink:href="#DejaVuSans-2212" transform="translate(0 0.09375)"/>
      <use xlink:href="#DejaVuSans-Oblique-3c0" transform="translate(83.789062 0.09375)"/>
      <use xlink:href="#DejaVuSans-2f" transform="translate(143.994141 0.09375)"/>
      <use xlink:href="#DejaVuSans-34" transform="translate(177.685547 0.09375)"/>
     </g>
    </g>
   </g>
   <g id="text_40">
    <g clip-path="url(#pb2a0a31845)">
     <!-- $\mathrm{R_Z}$ -->
     <g transform="translate(869.728346 97.303309) scale(0.13 -0.13)">
      <use xlink:href="#DejaVuSans-52" transform="translate(0 0.09375)"/>
      <use xlink:href="#DejaVuSans-5a" transform="translate(70.439453 -16.3125) scale(0.7)"/>
     </g>
    </g>
   </g>
  </g>
 </g>
 <defs>
  <clipPath id="pb2a0a31845">
   <rect x="7.2" y="14.798437" width="947.405985" height="157.603598"/>
  </clipPath>
 </defs>
</svg>
