<?xml version="1.0" encoding="utf-8" standalone="no"?>
<!DOCTYPE svg PUBLIC "-//W3C//DTD SVG 1.1//EN"
  "http://www.w3.org/Graphics/SVG/1.1/DTD/svg11.dtd">
<svg xmlns:xlink="http://www.w3.org/1999/xlink" width="498.265991pt" height="218.357597pt" viewBox="0 0 498.265991 218.357597" xmlns="http://www.w3.org/2000/svg" version="1.1">
 <metadata>
  <rdf:RDF xmlns:dc="http://purl.org/dc/elements/1.1/" xmlns:cc="http://creativecommons.org/ns#" xmlns:rdf="http://www.w3.org/1999/02/22-rdf-syntax-ns#">
   <cc:Work>
    <dc:type rdf:resource="http://purl.org/dc/dcmitype/StillImage"/>
    <dc:date>2024-05-04T17:29:26.972836</dc:date>
    <dc:format>image/svg+xml</dc:format>
    <dc:creator>
     <cc:Agent>
      <dc:title>Matplotlib v3.8.2, https://matplotlib.org/</dc:title>
     </cc:Agent>
    </dc:creator>
   </cc:Work>
  </rdf:RDF>
 </metadata>
 <defs>
  <style type="text/css">*{stroke-linejoin: round; stroke-linecap: butt}</style>
 </defs>
 <g id="figure_1">
  <g id="patch_1">
   <path d="M 0 218.357597 
L 498.265991 218.357597 
L 498.265991 0 
L 0 0 
z
" style="fill: #ffffff"/>
  </g>
  <g id="axes_1">
   <g id="line2d_1">
    <path d="M 64.609196 44.2832 
L 486.430591 44.2832 
" clip-path="url(#pe7d9f57b0b)" style="fill: none; stroke: #000000; stroke-width: 2; stroke-linecap: square"/>
   </g>
   <g id="line2d_2">
    <path d="M 64.609196 90.637199 
L 486.430591 90.637199 
" clip-path="url(#pe7d9f57b0b)" style="fill: none; stroke: #000000; stroke-width: 2; stroke-linecap: square"/>
   </g>
   <g id="line2d_3">
    <path d="M 64.609196 136.991198 
L 486.430591 136.991198 
" clip-path="url(#pe7d9f57b0b)" style="fill: none; stroke: #000000; stroke-width: 2; stroke-linecap: square"/>
   </g>
   <g id="line2d_4">
    <path d="M 64.609196 183.345198 
L 486.430591 183.345198 
" clip-path="url(#pe7d9f57b0b)" style="fill: none; stroke: #000000; stroke-width: 2; stroke-linecap: square"/>
   </g>
   <g id="patch_2">
    <path d="M 59.973797 21.1062 
L -1098.876188 21.1062 
L -1098.876188 252.876197 
L 59.973797 252.876197 
z
" clip-path="url(#pe7d9f57b0b)" style="fill: #ffffff; stroke: #ffffff; stroke-width: 1.5; stroke-linejoin: miter"/>
   </g>
   <g id="line2d_5">
    <path d="M 89.640356 136.991198 
L 89.640356 90.637199 
" clip-path="url(#pe7d9f57b0b)" style="fill: none; stroke: #bb8bff; stroke-width: 2; stroke-linecap: square"/>
   </g>
   <g id="line2d_6">
    <path d="M 135.994356 136.991198 
L 135.994356 90.637199 
" clip-path="url(#pe7d9f57b0b)" style="fill: none; stroke: #bb8bff; stroke-width: 2; stroke-linecap: square"/>
   </g>
   <g id="line2d_7">
    <path d="M 182.348355 183.345198 
L 182.348355 90.637199 
" clip-path="url(#pe7d9f57b0b)" style="fill: none; stroke: #bb8bff; stroke-width: 2; stroke-linecap: square"/>
   </g>
   <g id="line2d_8">
    <path d="M 228.702354 90.637199 
L 228.702354 44.2832 
" clip-path="url(#pe7d9f57b0b)" style="fill: none; stroke: #bb8bff; stroke-width: 2; stroke-linecap: square"/>
   </g>
   <g id="line2d_9">
    <path d="M 367.764352 183.345198 
L 367.764352 90.637199 
" clip-path="url(#pe7d9f57b0b)" style="fill: none; stroke: #6fa4ff; stroke-width: 2; stroke-linecap: square"/>
   </g>
   <g id="line2d_10">
    <path d="M 414.118352 183.345198 
L 414.118352 90.637199 
" clip-path="url(#pe7d9f57b0b)" style="fill: none; stroke: #bb8bff; stroke-width: 2; stroke-linecap: square"/>
   </g>
   <g id="line2d_11">
    <path d="M 460.472351 136.991198 
L 460.472351 44.2832 
" clip-path="url(#pe7d9f57b0b)" style="fill: none; stroke: #6fa4ff; stroke-width: 2; stroke-linecap: square"/>
   </g>
   <g id="patch_3">
    <path d="M 89.640356 95.156714 
C 90.838946 95.156714 91.988605 94.680509 92.836136 93.832979 
C 93.683666 92.985448 94.159871 91.835788 94.159871 90.637199 
C 94.159871 89.43861 93.683666 88.28895 92.836136 87.441419 
C 91.988605 86.593889 90.838946 86.117684 89.640356 86.117684 
C 88.441767 86.117684 87.292107 86.593889 86.444576 87.441419 
C 85.597046 88.28895 85.120841 89.43861 85.120841 90.637199 
C 85.120841 91.835788 85.597046 92.985448 86.444576 93.832979 
C 87.292107 94.680509 88.441767 95.156714 89.640356 95.156714 
z
" clip-path="url(#pe7d9f57b0b)" style="fill: #bb8bff; stroke: #bb8bff; stroke-width: 1.5; stroke-linejoin: miter"/>
   </g>
   <g id="patch_4">
    <path d="M 72.06292 152.056248 
L 107.217793 152.056248 
L 107.217793 121.926148 
L 72.06292 121.926148 
z
" clip-path="url(#pe7d9f57b0b)" style="fill: #bb8bff; stroke: #bb8bff; stroke-width: 1.5; stroke-linejoin: miter"/>
   </g>
   <g id="patch_5">
    <path d="M 72.06292 59.348249 
L 107.217793 59.348249 
L 107.217793 29.21815 
L 72.06292 29.21815 
z
" clip-path="url(#pe7d9f57b0b)" style="fill: #bb8bff; stroke: #bb8bff; stroke-width: 1.5; stroke-linejoin: miter"/>
   </g>
   <g id="patch_6">
    <path d="M 72.014248 198.410247 
L 107.266464 198.410247 
L 107.266464 168.280148 
L 72.014248 168.280148 
z
" clip-path="url(#pe7d9f57b0b)" style="fill: #bb8bff; stroke: #bb8bff; stroke-width: 1.5; stroke-linejoin: miter"/>
   </g>
   <g id="patch_7">
    <path d="M 120.929306 59.348249 
L 151.059405 59.348249 
L 151.059405 29.21815 
L 120.929306 29.21815 
z
" clip-path="url(#pe7d9f57b0b)" style="fill: #6fa4ff; stroke: #6fa4ff; stroke-width: 1.5; stroke-linejoin: miter"/>
   </g>
   <g id="patch_8">
    <path d="M 135.994356 95.156714 
C 137.192945 95.156714 138.342605 94.680509 139.190135 93.832979 
C 140.037666 92.985448 140.51387 91.835788 140.51387 90.637199 
C 140.51387 89.43861 140.037666 88.28895 139.190135 87.441419 
C 138.342605 86.593889 137.192945 86.117684 135.994356 86.117684 
C 134.795766 86.117684 133.646107 86.593889 132.798576 87.441419 
C 131.951045 88.28895 131.474841 89.43861 131.474841 90.637199 
C 131.474841 91.835788 131.951045 92.985448 132.798576 93.832979 
C 133.646107 94.680509 134.795766 95.156714 135.994356 95.156714 
z
" clip-path="url(#pe7d9f57b0b)" style="fill: #bb8bff; stroke: #bb8bff; stroke-width: 1.5; stroke-linejoin: miter"/>
   </g>
   <g id="patch_9">
    <path d="M 118.416919 152.056248 
L 153.571792 152.056248 
L 153.571792 121.926148 
L 118.416919 121.926148 
z
" clip-path="url(#pe7d9f57b0b)" style="fill: #bb8bff; stroke: #bb8bff; stroke-width: 1.5; stroke-linejoin: miter"/>
   </g>
   <g id="patch_10">
    <path d="M 118.368247 198.410247 
L 153.620464 198.410247 
L 153.620464 168.280148 
L 118.368247 168.280148 
z
" clip-path="url(#pe7d9f57b0b)" style="fill: #bb8bff; stroke: #bb8bff; stroke-width: 1.5; stroke-linejoin: miter"/>
   </g>
   <g id="patch_11">
    <path d="M 182.348355 95.156714 
C 183.546944 95.156714 184.696604 94.680509 185.544135 93.832979 
C 186.391665 92.985448 186.86787 91.835788 186.86787 90.637199 
C 186.86787 89.43861 186.391665 88.28895 185.544135 87.441419 
C 184.696604 86.593889 183.546944 86.117684 182.348355 86.117684 
C 181.149766 86.117684 180.000106 86.593889 179.152575 87.441419 
C 178.305045 88.28895 177.82884 89.43861 177.82884 90.637199 
C 177.82884 91.835788 178.305045 92.985448 179.152575 93.832979 
C 180.000106 94.680509 181.149766 95.156714 182.348355 95.156714 
z
" clip-path="url(#pe7d9f57b0b)" style="fill: #bb8bff; stroke: #bb8bff; stroke-width: 1.5; stroke-linejoin: miter"/>
   </g>
   <g id="patch_12">
    <path d="M 164.770918 198.410247 
L 199.925791 198.410247 
L 199.925791 168.280148 
L 164.770918 168.280148 
z
" clip-path="url(#pe7d9f57b0b)" style="fill: #bb8bff; stroke: #bb8bff; stroke-width: 1.5; stroke-linejoin: miter"/>
   </g>
   <g id="patch_13">
    <path d="M 164.722247 59.348249 
L 199.974463 59.348249 
L 199.974463 29.21815 
L 164.722247 29.21815 
z
" clip-path="url(#pe7d9f57b0b)" style="fill: #bb8bff; stroke: #bb8bff; stroke-width: 1.5; stroke-linejoin: miter"/>
   </g>
   <g id="patch_14">
    <path d="M 211.124918 152.056248 
L 246.279791 152.056248 
L 246.279791 121.926148 
L 211.124918 121.926148 
z
" clip-path="url(#pe7d9f57b0b)" style="fill: #bb8bff; stroke: #bb8bff; stroke-width: 1.5; stroke-linejoin: miter"/>
   </g>
   <g id="patch_15">
    <path d="M 228.702354 48.802714 
C 229.900944 48.802714 231.050603 48.32651 231.898134 47.478979 
C 232.745665 46.631448 233.221869 45.481789 233.221869 44.2832 
C 233.221869 43.08461 232.745665 41.934951 231.898134 41.08742 
C 231.050603 40.239889 229.900944 39.763685 228.702354 39.763685 
C 227.503765 39.763685 226.354105 40.239889 225.506575 41.08742 
C 224.659044 41.934951 224.182839 43.08461 224.182839 44.2832 
C 224.182839 45.481789 224.659044 46.631448 225.506575 47.478979 
C 226.354105 48.32651 227.503765 48.802714 228.702354 48.802714 
z
" clip-path="url(#pe7d9f57b0b)" style="fill: #bb8bff; stroke: #bb8bff; stroke-width: 1.5; stroke-linejoin: miter"/>
   </g>
   <g id="patch_16">
    <path d="M 211.076246 105.702249 
L 246.328463 105.702249 
L 246.328463 75.572149 
L 211.076246 75.572149 
z
" clip-path="url(#pe7d9f57b0b)" style="fill: #bb8bff; stroke: #bb8bff; stroke-width: 1.5; stroke-linejoin: miter"/>
   </g>
   <g id="patch_17">
    <path d="M 211.076246 198.410247 
L 246.328463 198.410247 
L 246.328463 168.280148 
L 211.076246 168.280148 
z
" clip-path="url(#pe7d9f57b0b)" style="fill: #bb8bff; stroke: #bb8bff; stroke-width: 1.5; stroke-linejoin: miter"/>
   </g>
   <g id="patch_18">
    <path d="M 259.991304 152.056248 
L 290.121403 152.056248 
L 290.121403 121.926148 
L 259.991304 121.926148 
z
" clip-path="url(#pe7d9f57b0b)" style="fill: #6fa4ff; stroke: #6fa4ff; stroke-width: 1.5; stroke-linejoin: miter"/>
   </g>
   <g id="patch_19">
    <path d="M 254.774161 59.348249 
L 295.338546 59.348249 
L 295.338546 29.21815 
L 254.774161 29.21815 
z
" clip-path="url(#pe7d9f57b0b)" style="fill: #bb8bff; stroke: #bb8bff; stroke-width: 1.5; stroke-linejoin: miter"/>
   </g>
   <g id="patch_20">
    <path d="M 301.128161 152.056248 
L 341.692545 152.056248 
L 341.692545 121.926148 
L 301.128161 121.926148 
z
" clip-path="url(#pe7d9f57b0b)" style="fill: #bb8bff; stroke: #bb8bff; stroke-width: 1.5; stroke-linejoin: miter"/>
   </g>
   <g id="patch_21">
    <path d="M 367.764352 95.156714 
C 368.962942 95.156714 370.112601 94.680509 370.960132 93.832979 
C 371.807663 92.985448 372.283867 91.835788 372.283867 90.637199 
C 372.283867 89.43861 371.807663 88.28895 370.960132 87.441419 
C 370.112601 86.593889 368.962942 86.117684 367.764352 86.117684 
C 366.565763 86.117684 365.416103 86.593889 364.568573 87.441419 
C 363.721042 88.28895 363.244837 89.43861 363.244837 90.637199 
C 363.244837 91.835788 363.721042 92.985448 364.568573 93.832979 
C 365.416103 94.680509 366.565763 95.156714 367.764352 95.156714 
z
" clip-path="url(#pe7d9f57b0b)" style="fill: #6fa4ff; stroke: #6fa4ff; stroke-width: 1.5; stroke-linejoin: miter"/>
   </g>
   <g id="patch_22">
    <path d="M 367.764352 193.890733 
C 370.561061 193.890733 373.2436 192.779588 375.221172 190.802017 
C 377.198743 188.824445 378.309887 186.141906 378.309887 183.345198 
C 378.309887 180.548489 377.198743 177.86595 375.221172 175.888378 
C 373.2436 173.910807 370.561061 172.799663 367.764352 172.799663 
C 364.967644 172.799663 362.285105 173.910807 360.307533 175.888378 
C 358.329962 177.86595 357.218818 180.548489 357.218818 183.345198 
C 357.218818 186.141906 358.329962 188.824445 360.307533 190.802017 
C 362.285105 192.779588 364.967644 193.890733 367.764352 193.890733 
z
" clip-path="url(#pe7d9f57b0b)" style="fill: #6fa4ff; stroke: #6fa4ff; stroke-width: 2; stroke-linejoin: miter"/>
   </g>
   <g id="patch_23">
    <path d="M 414.118352 95.156714 
C 415.316941 95.156714 416.466601 94.680509 417.314131 93.832979 
C 418.161662 92.985448 418.637867 91.835788 418.637867 90.637199 
C 418.637867 89.43861 418.161662 88.28895 417.314131 87.441419 
C 416.466601 86.593889 415.316941 86.117684 414.118352 86.117684 
C 412.919762 86.117684 411.770103 86.593889 410.922572 87.441419 
C 410.075041 88.28895 409.598837 89.43861 409.598837 90.637199 
C 409.598837 91.835788 410.075041 92.985448 410.922572 93.832979 
C 411.770103 94.680509 412.919762 95.156714 414.118352 95.156714 
z
" clip-path="url(#pe7d9f57b0b)" style="fill: #bb8bff; stroke: #bb8bff; stroke-width: 1.5; stroke-linejoin: miter"/>
   </g>
   <g id="patch_24">
    <path d="M 393.787488 198.410247 
L 434.449216 198.410247 
L 434.449216 168.280148 
L 393.787488 168.280148 
z
" clip-path="url(#pe7d9f57b0b)" style="fill: #bb8bff; stroke: #bb8bff; stroke-width: 1.5; stroke-linejoin: miter"/>
   </g>
   <g id="patch_25">
    <path d="M 460.472351 48.802714 
C 461.670941 48.802714 462.8206 48.32651 463.668131 47.478979 
C 464.515662 46.631448 464.991866 45.481789 464.991866 44.2832 
C 464.991866 43.08461 464.515662 41.934951 463.668131 41.08742 
C 462.8206 40.239889 461.670941 39.763685 460.472351 39.763685 
C 459.273762 39.763685 458.124102 40.239889 457.276572 41.08742 
C 456.429041 41.934951 455.952836 43.08461 455.952836 44.2832 
C 455.952836 45.481789 456.429041 46.631448 457.276572 47.478979 
C 458.124102 48.32651 459.273762 48.802714 460.472351 48.802714 
z
" clip-path="url(#pe7d9f57b0b)" style="fill: #6fa4ff; stroke: #6fa4ff; stroke-width: 1.5; stroke-linejoin: miter"/>
   </g>
   <g id="patch_26">
    <path d="M 460.472351 147.536733 
C 463.26906 147.536733 465.951599 146.425589 467.92917 144.448017 
C 469.906742 142.470446 471.017886 139.787907 471.017886 136.991198 
C 471.017886 134.19449 469.906742 131.511951 467.92917 129.534379 
C 465.951599 127.556807 463.26906 126.445663 460.472351 126.445663 
C 457.675643 126.445663 454.993104 127.556807 453.015532 129.534379 
C 451.03796 131.511951 449.926816 134.19449 449.926816 136.991198 
C 449.926816 139.787907 451.03796 142.470446 453.015532 144.448017 
C 454.993104 146.425589 457.675643 147.536733 460.472351 147.536733 
z
" clip-path="url(#pe7d9f57b0b)" style="fill: #6fa4ff; stroke: #6fa4ff; stroke-width: 2; stroke-linejoin: miter"/>
   </g>
   <g id="line2d_12">
    <path d="M 367.764352 189.371218 
L 367.764352 177.319178 
" clip-path="url(#pe7d9f57b0b)" style="fill: none; stroke: #ffffff; stroke-width: 2; stroke-linecap: square"/>
   </g>
   <g id="line2d_13">
    <path d="M 361.738333 183.345198 
L 373.790372 183.345198 
" clip-path="url(#pe7d9f57b0b)" style="fill: none; stroke: #ffffff; stroke-width: 2; stroke-linecap: square"/>
   </g>
   <g id="line2d_14">
    <path d="M 460.472351 143.017218 
L 460.472351 130.965178 
" clip-path="url(#pe7d9f57b0b)" style="fill: none; stroke: #ffffff; stroke-width: 2; stroke-linecap: square"/>
   </g>
   <g id="line2d_15">
    <path d="M 454.446331 136.991198 
L 466.498371 136.991198 
" clip-path="url(#pe7d9f57b0b)" style="fill: none; stroke: #ffffff; stroke-width: 2; stroke-linecap: square"/>
   </g>
   <g id="text_1">
    <g clip-path="url(#pe7d9f57b0b)">
     <!-- ${q}_{0}$ -->
     <g transform="translate(37.300897 48.734176) scale(0.1625 -0.1625)">
      <defs>
       <path id="DejaVuSans-Oblique-71" d="M 2669 525 
Q 2438 222 2123 65 
Q 1809 -91 1428 -91 
Q 897 -91 595 267 
Q 294 625 294 1253 
Q 294 1759 480 2231 
Q 666 2703 1013 3078 
Q 1238 3322 1530 3453 
Q 1822 3584 2144 3584 
Q 2531 3584 2781 3431 
Q 3031 3278 3144 2969 
L 3244 3494 
L 3822 3494 
L 2888 -1319 
L 2309 -1319 
L 2669 525 
z
M 891 1338 
Q 891 875 1084 633 
Q 1278 391 1644 391 
Q 2188 391 2572 911 
Q 2956 1431 2956 2175 
Q 2956 2625 2757 2864 
Q 2559 3103 2188 3103 
Q 1916 3103 1684 2976 
Q 1453 2850 1281 2606 
Q 1100 2350 995 2006 
Q 891 1663 891 1338 
z
" transform="scale(0.015625)"/>
       <path id="DejaVuSans-30" d="M 2034 4250 
Q 1547 4250 1301 3770 
Q 1056 3291 1056 2328 
Q 1056 1369 1301 889 
Q 1547 409 2034 409 
Q 2525 409 2770 889 
Q 3016 1369 3016 2328 
Q 3016 3291 2770 3770 
Q 2525 4250 2034 4250 
z
M 2034 4750 
Q 2819 4750 3233 4129 
Q 3647 3509 3647 2328 
Q 3647 1150 3233 529 
Q 2819 -91 2034 -91 
Q 1250 -91 836 529 
Q 422 1150 422 2328 
Q 422 3509 836 4129 
Q 1250 4750 2034 4750 
z
" transform="scale(0.015625)"/>
      </defs>
      <use xlink:href="#DejaVuSans-Oblique-71"/>
      <use xlink:href="#DejaVuSans-30" transform="translate(63.476562 -16.40625) scale(0.7)"/>
     </g>
    </g>
   </g>
   <g id="text_2">
    <g clip-path="url(#pe7d9f57b0b)">
     <!-- ${q}_{1}$ -->
     <g transform="translate(37.300897 95.088175) scale(0.1625 -0.1625)">
      <defs>
       <path id="DejaVuSans-31" d="M 794 531 
L 1825 531 
L 1825 4091 
L 703 3866 
L 703 4441 
L 1819 4666 
L 2450 4666 
L 2450 531 
L 3481 531 
L 3481 0 
L 794 0 
L 794 531 
z
" transform="scale(0.015625)"/>
      </defs>
      <use xlink:href="#DejaVuSans-Oblique-71"/>
      <use xlink:href="#DejaVuSans-31" transform="translate(63.476562 -16.40625) scale(0.7)"/>
     </g>
    </g>
   </g>
   <g id="text_3">
    <g clip-path="url(#pe7d9f57b0b)">
     <!-- ${q}_{2}$ -->
     <g transform="translate(37.300897 141.442175) scale(0.1625 -0.1625)">
      <defs>
       <path id="DejaVuSans-32" d="M 1228 531 
L 3431 531 
L 3431 0 
L 469 0 
L 469 531 
Q 828 903 1448 1529 
Q 2069 2156 2228 2338 
Q 2531 2678 2651 2914 
Q 2772 3150 2772 3378 
Q 2772 3750 2511 3984 
Q 2250 4219 1831 4219 
Q 1534 4219 1204 4116 
Q 875 4013 500 3803 
L 500 4441 
Q 881 4594 1212 4672 
Q 1544 4750 1819 4750 
Q 2544 4750 2975 4387 
Q 3406 4025 3406 3419 
Q 3406 3131 3298 2873 
Q 3191 2616 2906 2266 
Q 2828 2175 2409 1742 
Q 1991 1309 1228 531 
z
" transform="scale(0.015625)"/>
      </defs>
      <use xlink:href="#DejaVuSans-Oblique-71"/>
      <use xlink:href="#DejaVuSans-32" transform="translate(63.476562 -16.40625) scale(0.7)"/>
     </g>
    </g>
   </g>
   <g id="text_4">
    <g clip-path="url(#pe7d9f57b0b)">
     <!-- ${q}_{3}$ -->
     <g transform="translate(37.300897 187.796174) scale(0.1625 -0.1625)">
      <defs>
       <path id="DejaVuSans-33" d="M 2597 2516 
Q 3050 2419 3304 2112 
Q 3559 1806 3559 1356 
Q 3559 666 3084 287 
Q 2609 -91 1734 -91 
Q 1441 -91 1130 -33 
Q 819 25 488 141 
L 488 750 
Q 750 597 1062 519 
Q 1375 441 1716 441 
Q 2309 441 2620 675 
Q 2931 909 2931 1356 
Q 2931 1769 2642 2001 
Q 2353 2234 1838 2234 
L 1294 2234 
L 1294 2753 
L 1863 2753 
Q 2328 2753 2575 2939 
Q 2822 3125 2822 3475 
Q 2822 3834 2567 4026 
Q 2313 4219 1838 4219 
Q 1578 4219 1281 4162 
Q 984 4106 628 3988 
L 628 4550 
Q 988 4650 1302 4700 
Q 1616 4750 1894 4750 
Q 2613 4750 3031 4423 
Q 3450 4097 3450 3541 
Q 3450 3153 3228 2886 
Q 3006 2619 2597 2516 
z
" transform="scale(0.015625)"/>
      </defs>
      <use xlink:href="#DejaVuSans-Oblique-71"/>
      <use xlink:href="#DejaVuSans-33" transform="translate(63.476562 -16.40625) scale(0.7)"/>
     </g>
    </g>
   </g>
   <g id="text_5">
    <g clip-path="url(#pe7d9f57b0b)">
     <!-- theta[0] -->
     <g transform="translate(73.390356 148.237728) scale(0.08 -0.08)">
      <defs>
       <path id="DejaVuSans-74" d="M 1172 4494 
L 1172 3500 
L 2356 3500 
L 2356 3053 
L 1172 3053 
L 1172 1153 
Q 1172 725 1289 603 
Q 1406 481 1766 481 
L 2356 481 
L 2356 0 
L 1766 0 
Q 1100 0 847 248 
Q 594 497 594 1153 
L 594 3053 
L 172 3053 
L 172 3500 
L 594 3500 
L 594 4494 
L 1172 4494 
z
" transform="scale(0.015625)"/>
       <path id="DejaVuSans-68" d="M 3513 2113 
L 3513 0 
L 2938 0 
L 2938 2094 
Q 2938 2591 2744 2837 
Q 2550 3084 2163 3084 
Q 1697 3084 1428 2787 
Q 1159 2491 1159 1978 
L 1159 0 
L 581 0 
L 581 4863 
L 1159 4863 
L 1159 2956 
Q 1366 3272 1645 3428 
Q 1925 3584 2291 3584 
Q 2894 3584 3203 3211 
Q 3513 2838 3513 2113 
z
" transform="scale(0.015625)"/>
       <path id="DejaVuSans-65" d="M 3597 1894 
L 3597 1613 
L 953 1613 
Q 991 1019 1311 708 
Q 1631 397 2203 397 
Q 2534 397 2845 478 
Q 3156 559 3463 722 
L 3463 178 
Q 3153 47 2828 -22 
Q 2503 -91 2169 -91 
Q 1331 -91 842 396 
Q 353 884 353 1716 
Q 353 2575 817 3079 
Q 1281 3584 2069 3584 
Q 2775 3584 3186 3129 
Q 3597 2675 3597 1894 
z
M 3022 2063 
Q 3016 2534 2758 2815 
Q 2500 3097 2075 3097 
Q 1594 3097 1305 2825 
Q 1016 2553 972 2059 
L 3022 2063 
z
" transform="scale(0.015625)"/>
       <path id="DejaVuSans-61" d="M 2194 1759 
Q 1497 1759 1228 1600 
Q 959 1441 959 1056 
Q 959 750 1161 570 
Q 1363 391 1709 391 
Q 2188 391 2477 730 
Q 2766 1069 2766 1631 
L 2766 1759 
L 2194 1759 
z
M 3341 1997 
L 3341 0 
L 2766 0 
L 2766 531 
Q 2569 213 2275 61 
Q 1981 -91 1556 -91 
Q 1019 -91 701 211 
Q 384 513 384 1019 
Q 384 1609 779 1909 
Q 1175 2209 1959 2209 
L 2766 2209 
L 2766 2266 
Q 2766 2663 2505 2880 
Q 2244 3097 1772 3097 
Q 1472 3097 1187 3025 
Q 903 2953 641 2809 
L 641 3341 
Q 956 3463 1253 3523 
Q 1550 3584 1831 3584 
Q 2591 3584 2966 3190 
Q 3341 2797 3341 1997 
z
" transform="scale(0.015625)"/>
       <path id="DejaVuSans-5b" d="M 550 4863 
L 1875 4863 
L 1875 4416 
L 1125 4416 
L 1125 -397 
L 1875 -397 
L 1875 -844 
L 550 -844 
L 550 4863 
z
" transform="scale(0.015625)"/>
       <path id="DejaVuSans-5d" d="M 1947 4863 
L 1947 -844 
L 622 -844 
L 622 -397 
L 1369 -397 
L 1369 4416 
L 622 4416 
L 622 4863 
L 1947 4863 
z
" transform="scale(0.015625)"/>
      </defs>
      <use xlink:href="#DejaVuSans-74"/>
      <use xlink:href="#DejaVuSans-68" x="39.208984"/>
      <use xlink:href="#DejaVuSans-65" x="102.587891"/>
      <use xlink:href="#DejaVuSans-74" x="164.111328"/>
      <use xlink:href="#DejaVuSans-61" x="203.320312"/>
      <use xlink:href="#DejaVuSans-5b" x="264.599609"/>
      <use xlink:href="#DejaVuSans-30" x="303.613281"/>
      <use xlink:href="#DejaVuSans-5d" x="367.236328"/>
     </g>
    </g>
   </g>
   <g id="text_6">
    <g clip-path="url(#pe7d9f57b0b)">
     <!-- $\mathrm{R_Z}$ -->
     <g transform="translate(81.710356 136.058871) scale(0.13 -0.13)">
      <defs>
       <path id="DejaVuSans-52" d="M 2841 2188 
Q 3044 2119 3236 1894 
Q 3428 1669 3622 1275 
L 4263 0 
L 3584 0 
L 2988 1197 
Q 2756 1666 2539 1819 
Q 2322 1972 1947 1972 
L 1259 1972 
L 1259 0 
L 628 0 
L 628 4666 
L 2053 4666 
Q 2853 4666 3247 4331 
Q 3641 3997 3641 3322 
Q 3641 2881 3436 2590 
Q 3231 2300 2841 2188 
z
M 1259 4147 
L 1259 2491 
L 2053 2491 
Q 2509 2491 2742 2702 
Q 2975 2913 2975 3322 
Q 2975 3731 2742 3939 
Q 2509 4147 2053 4147 
L 1259 4147 
z
" transform="scale(0.015625)"/>
       <path id="DejaVuSans-5a" d="M 359 4666 
L 4025 4666 
L 4025 4184 
L 1075 531 
L 4097 531 
L 4097 0 
L 288 0 
L 288 481 
L 3238 4134 
L 359 4134 
L 359 4666 
z
" transform="scale(0.015625)"/>
      </defs>
      <use xlink:href="#DejaVuSans-52" transform="translate(0 0.09375)"/>
      <use xlink:href="#DejaVuSans-5a" transform="translate(70.439453 -16.3125) scale(0.7)"/>
     </g>
    </g>
   </g>
   <g id="text_7">
    <g clip-path="url(#pe7d9f57b0b)">
     <!-- theta[1] -->
     <g transform="translate(73.390356 55.529729) scale(0.08 -0.08)">
      <use xlink:href="#DejaVuSans-74"/>
      <use xlink:href="#DejaVuSans-68" x="39.208984"/>
      <use xlink:href="#DejaVuSans-65" x="102.587891"/>
      <use xlink:href="#DejaVuSans-74" x="164.111328"/>
      <use xlink:href="#DejaVuSans-61" x="203.320312"/>
      <use xlink:href="#DejaVuSans-5b" x="264.599609"/>
      <use xlink:href="#DejaVuSans-31" x="303.613281"/>
      <use xlink:href="#DejaVuSans-5d" x="367.236328"/>
     </g>
    </g>
   </g>
   <g id="text_8">
    <g clip-path="url(#pe7d9f57b0b)">
     <!-- $\mathrm{R_Y}$ -->
     <g transform="translate(82.100356 43.350872) scale(0.13 -0.13)">
      <defs>
       <path id="DejaVuSans-59" d="M -13 4666 
L 666 4666 
L 1959 2747 
L 3244 4666 
L 3922 4666 
L 2272 2222 
L 2272 0 
L 1638 0 
L 1638 2222 
L -13 4666 
z
" transform="scale(0.015625)"/>
      </defs>
      <use xlink:href="#DejaVuSans-52" transform="translate(0 0.09375)"/>
      <use xlink:href="#DejaVuSans-59" transform="translate(70.439453 -16.3125) scale(0.7)"/>
     </g>
    </g>
   </g>
   <g id="text_9">
    <g clip-path="url(#pe7d9f57b0b)">
     <!-- theta[2] -->
     <g transform="translate(73.390356 194.591728) scale(0.08 -0.08)">
      <use xlink:href="#DejaVuSans-74"/>
      <use xlink:href="#DejaVuSans-68" x="39.208984"/>
      <use xlink:href="#DejaVuSans-65" x="102.587891"/>
      <use xlink:href="#DejaVuSans-74" x="164.111328"/>
      <use xlink:href="#DejaVuSans-61" x="203.320312"/>
      <use xlink:href="#DejaVuSans-5b" x="264.599609"/>
      <use xlink:href="#DejaVuSans-32" x="303.613281"/>
      <use xlink:href="#DejaVuSans-5d" x="367.236328"/>
     </g>
    </g>
   </g>
   <g id="text_10">
    <g clip-path="url(#pe7d9f57b0b)">
     <!-- $\mathrm{R_X}$ -->
     <g transform="translate(81.710356 182.41287) scale(0.13 -0.13)">
      <defs>
       <path id="DejaVuSans-58" d="M 403 4666 
L 1081 4666 
L 2241 2931 
L 3406 4666 
L 4084 4666 
L 2584 2425 
L 4184 0 
L 3506 0 
L 2194 1984 
L 872 0 
L 191 0 
L 1856 2491 
L 403 4666 
z
" transform="scale(0.015625)"/>
      </defs>
      <use xlink:href="#DejaVuSans-52" transform="translate(0 0.09375)"/>
      <use xlink:href="#DejaVuSans-58" transform="translate(70.439453 -16.3125) scale(0.7)"/>
     </g>
    </g>
   </g>
   <g id="text_11">
    <g clip-path="url(#pe7d9f57b0b)">
     <!-- H -->
     <g transform="translate(131.106152 47.870387) scale(0.13 -0.13)">
      <defs>
       <path id="DejaVuSans-48" d="M 628 4666 
L 1259 4666 
L 1259 2753 
L 3553 2753 
L 3553 4666 
L 4184 4666 
L 4184 0 
L 3553 0 
L 3553 2222 
L 1259 2222 
L 1259 0 
L 628 0 
L 628 4666 
z
" transform="scale(0.015625)"/>
      </defs>
      <use xlink:href="#DejaVuSans-48"/>
     </g>
    </g>
   </g>
   <g id="text_12">
    <g clip-path="url(#pe7d9f57b0b)">
     <!-- theta[3] -->
     <g transform="translate(119.744356 148.237728) scale(0.08 -0.08)">
      <use xlink:href="#DejaVuSans-74"/>
      <use xlink:href="#DejaVuSans-68" x="39.208984"/>
      <use xlink:href="#DejaVuSans-65" x="102.587891"/>
      <use xlink:href="#DejaVuSans-74" x="164.111328"/>
      <use xlink:href="#DejaVuSans-61" x="203.320312"/>
      <use xlink:href="#DejaVuSans-5b" x="264.599609"/>
      <use xlink:href="#DejaVuSans-33" x="303.613281"/>
      <use xlink:href="#DejaVuSans-5d" x="367.236328"/>
     </g>
    </g>
   </g>
   <g id="text_13">
    <g clip-path="url(#pe7d9f57b0b)">
     <!-- $\mathrm{R_Z}$ -->
     <g transform="translate(128.064356 136.058871) scale(0.13 -0.13)">
      <use xlink:href="#DejaVuSans-52" transform="translate(0 0.09375)"/>
      <use xlink:href="#DejaVuSans-5a" transform="translate(70.439453 -16.3125) scale(0.7)"/>
     </g>
    </g>
   </g>
   <g id="text_14">
    <g clip-path="url(#pe7d9f57b0b)">
     <!-- theta[4] -->
     <g transform="translate(119.744356 194.591728) scale(0.08 -0.08)">
      <defs>
       <path id="DejaVuSans-34" d="M 2419 4116 
L 825 1625 
L 2419 1625 
L 2419 4116 
z
M 2253 4666 
L 3047 4666 
L 3047 1625 
L 3713 1625 
L 3713 1100 
L 3047 1100 
L 3047 0 
L 2419 0 
L 2419 1100 
L 313 1100 
L 313 1709 
L 2253 4666 
z
" transform="scale(0.015625)"/>
      </defs>
      <use xlink:href="#DejaVuSans-74"/>
      <use xlink:href="#DejaVuSans-68" x="39.208984"/>
      <use xlink:href="#DejaVuSans-65" x="102.587891"/>
      <use xlink:href="#DejaVuSans-74" x="164.111328"/>
      <use xlink:href="#DejaVuSans-61" x="203.320312"/>
      <use xlink:href="#DejaVuSans-5b" x="264.599609"/>
      <use xlink:href="#DejaVuSans-34" x="303.613281"/>
      <use xlink:href="#DejaVuSans-5d" x="367.236328"/>
     </g>
    </g>
   </g>
   <g id="text_15">
    <g clip-path="url(#pe7d9f57b0b)">
     <!-- $\mathrm{R_Z}$ -->
     <g transform="translate(128.064356 182.41287) scale(0.13 -0.13)">
      <use xlink:href="#DejaVuSans-52" transform="translate(0 0.09375)"/>
      <use xlink:href="#DejaVuSans-5a" transform="translate(70.439453 -16.3125) scale(0.7)"/>
     </g>
    </g>
   </g>
   <g id="text_16">
    <g clip-path="url(#pe7d9f57b0b)">
     <!-- theta[5] -->
     <g transform="translate(166.098355 194.591728) scale(0.08 -0.08)">
      <defs>
       <path id="DejaVuSans-35" d="M 691 4666 
L 3169 4666 
L 3169 4134 
L 1269 4134 
L 1269 2991 
Q 1406 3038 1543 3061 
Q 1681 3084 1819 3084 
Q 2600 3084 3056 2656 
Q 3513 2228 3513 1497 
Q 3513 744 3044 326 
Q 2575 -91 1722 -91 
Q 1428 -91 1123 -41 
Q 819 9 494 109 
L 494 744 
Q 775 591 1075 516 
Q 1375 441 1709 441 
Q 2250 441 2565 725 
Q 2881 1009 2881 1497 
Q 2881 1984 2565 2268 
Q 2250 2553 1709 2553 
Q 1456 2553 1204 2497 
Q 953 2441 691 2322 
L 691 4666 
z
" transform="scale(0.015625)"/>
      </defs>
      <use xlink:href="#DejaVuSans-74"/>
      <use xlink:href="#DejaVuSans-68" x="39.208984"/>
      <use xlink:href="#DejaVuSans-65" x="102.587891"/>
      <use xlink:href="#DejaVuSans-74" x="164.111328"/>
      <use xlink:href="#DejaVuSans-61" x="203.320312"/>
      <use xlink:href="#DejaVuSans-5b" x="264.599609"/>
      <use xlink:href="#DejaVuSans-35" x="303.613281"/>
      <use xlink:href="#DejaVuSans-5d" x="367.236328"/>
     </g>
    </g>
   </g>
   <g id="text_17">
    <g clip-path="url(#pe7d9f57b0b)">
     <!-- $\mathrm{R_Z}$ -->
     <g transform="translate(174.418355 182.41287) scale(0.13 -0.13)">
      <use xlink:href="#DejaVuSans-52" transform="translate(0 0.09375)"/>
      <use xlink:href="#DejaVuSans-5a" transform="translate(70.439453 -16.3125) scale(0.7)"/>
     </g>
    </g>
   </g>
   <g id="text_18">
    <g clip-path="url(#pe7d9f57b0b)">
     <!-- theta[7] -->
     <g transform="translate(166.098355 55.529729) scale(0.08 -0.08)">
      <defs>
       <path id="DejaVuSans-37" d="M 525 4666 
L 3525 4666 
L 3525 4397 
L 1831 0 
L 1172 0 
L 2766 4134 
L 525 4134 
L 525 4666 
z
" transform="scale(0.015625)"/>
      </defs>
      <use xlink:href="#DejaVuSans-74"/>
      <use xlink:href="#DejaVuSans-68" x="39.208984"/>
      <use xlink:href="#DejaVuSans-65" x="102.587891"/>
      <use xlink:href="#DejaVuSans-74" x="164.111328"/>
      <use xlink:href="#DejaVuSans-61" x="203.320312"/>
      <use xlink:href="#DejaVuSans-5b" x="264.599609"/>
      <use xlink:href="#DejaVuSans-37" x="303.613281"/>
      <use xlink:href="#DejaVuSans-5d" x="367.236328"/>
     </g>
    </g>
   </g>
   <g id="text_19">
    <g clip-path="url(#pe7d9f57b0b)">
     <!-- $\mathrm{R_Y}$ -->
     <g transform="translate(174.808355 43.350872) scale(0.13 -0.13)">
      <use xlink:href="#DejaVuSans-52" transform="translate(0 0.09375)"/>
      <use xlink:href="#DejaVuSans-59" transform="translate(70.439453 -16.3125) scale(0.7)"/>
     </g>
    </g>
   </g>
   <g id="text_20">
    <g clip-path="url(#pe7d9f57b0b)">
     <!-- theta[6] -->
     <g transform="translate(212.452354 148.237728) scale(0.08 -0.08)">
      <defs>
       <path id="DejaVuSans-36" d="M 2113 2584 
Q 1688 2584 1439 2293 
Q 1191 2003 1191 1497 
Q 1191 994 1439 701 
Q 1688 409 2113 409 
Q 2538 409 2786 701 
Q 3034 994 3034 1497 
Q 3034 2003 2786 2293 
Q 2538 2584 2113 2584 
z
M 3366 4563 
L 3366 3988 
Q 3128 4100 2886 4159 
Q 2644 4219 2406 4219 
Q 1781 4219 1451 3797 
Q 1122 3375 1075 2522 
Q 1259 2794 1537 2939 
Q 1816 3084 2150 3084 
Q 2853 3084 3261 2657 
Q 3669 2231 3669 1497 
Q 3669 778 3244 343 
Q 2819 -91 2113 -91 
Q 1303 -91 875 529 
Q 447 1150 447 2328 
Q 447 3434 972 4092 
Q 1497 4750 2381 4750 
Q 2619 4750 2861 4703 
Q 3103 4656 3366 4563 
z
" transform="scale(0.015625)"/>
      </defs>
      <use xlink:href="#DejaVuSans-74"/>
      <use xlink:href="#DejaVuSans-68" x="39.208984"/>
      <use xlink:href="#DejaVuSans-65" x="102.587891"/>
      <use xlink:href="#DejaVuSans-74" x="164.111328"/>
      <use xlink:href="#DejaVuSans-61" x="203.320312"/>
      <use xlink:href="#DejaVuSans-5b" x="264.599609"/>
      <use xlink:href="#DejaVuSans-36" x="303.613281"/>
      <use xlink:href="#DejaVuSans-5d" x="367.236328"/>
     </g>
    </g>
   </g>
   <g id="text_21">
    <g clip-path="url(#pe7d9f57b0b)">
     <!-- $\mathrm{R_X}$ -->
     <g transform="translate(220.772354 136.058871) scale(0.13 -0.13)">
      <use xlink:href="#DejaVuSans-52" transform="translate(0 0.09375)"/>
      <use xlink:href="#DejaVuSans-58" transform="translate(70.439453 -16.3125) scale(0.7)"/>
     </g>
    </g>
   </g>
   <g id="text_22">
    <g clip-path="url(#pe7d9f57b0b)">
     <!-- theta[8] -->
     <g transform="translate(212.452354 101.883729) scale(0.08 -0.08)">
      <defs>
       <path id="DejaVuSans-38" d="M 2034 2216 
Q 1584 2216 1326 1975 
Q 1069 1734 1069 1313 
Q 1069 891 1326 650 
Q 1584 409 2034 409 
Q 2484 409 2743 651 
Q 3003 894 3003 1313 
Q 3003 1734 2745 1975 
Q 2488 2216 2034 2216 
z
M 1403 2484 
Q 997 2584 770 2862 
Q 544 3141 544 3541 
Q 544 4100 942 4425 
Q 1341 4750 2034 4750 
Q 2731 4750 3128 4425 
Q 3525 4100 3525 3541 
Q 3525 3141 3298 2862 
Q 3072 2584 2669 2484 
Q 3125 2378 3379 2068 
Q 3634 1759 3634 1313 
Q 3634 634 3220 271 
Q 2806 -91 2034 -91 
Q 1263 -91 848 271 
Q 434 634 434 1313 
Q 434 1759 690 2068 
Q 947 2378 1403 2484 
z
M 1172 3481 
Q 1172 3119 1398 2916 
Q 1625 2713 2034 2713 
Q 2441 2713 2670 2916 
Q 2900 3119 2900 3481 
Q 2900 3844 2670 4047 
Q 2441 4250 2034 4250 
Q 1625 4250 1398 4047 
Q 1172 3844 1172 3481 
z
" transform="scale(0.015625)"/>
      </defs>
      <use xlink:href="#DejaVuSans-74"/>
      <use xlink:href="#DejaVuSans-68" x="39.208984"/>
      <use xlink:href="#DejaVuSans-65" x="102.587891"/>
      <use xlink:href="#DejaVuSans-74" x="164.111328"/>
      <use xlink:href="#DejaVuSans-61" x="203.320312"/>
      <use xlink:href="#DejaVuSans-5b" x="264.599609"/>
      <use xlink:href="#DejaVuSans-38" x="303.613281"/>
      <use xlink:href="#DejaVuSans-5d" x="367.236328"/>
     </g>
    </g>
   </g>
   <g id="text_23">
    <g clip-path="url(#pe7d9f57b0b)">
     <!-- $\mathrm{R_Y}$ -->
     <g transform="translate(221.162354 89.704871) scale(0.13 -0.13)">
      <use xlink:href="#DejaVuSans-52" transform="translate(0 0.09375)"/>
      <use xlink:href="#DejaVuSans-59" transform="translate(70.439453 -16.3125) scale(0.7)"/>
     </g>
    </g>
   </g>
   <g id="text_24">
    <g clip-path="url(#pe7d9f57b0b)">
     <!-- theta[9] -->
     <g transform="translate(212.452354 194.591728) scale(0.08 -0.08)">
      <defs>
       <path id="DejaVuSans-39" d="M 703 97 
L 703 672 
Q 941 559 1184 500 
Q 1428 441 1663 441 
Q 2288 441 2617 861 
Q 2947 1281 2994 2138 
Q 2813 1869 2534 1725 
Q 2256 1581 1919 1581 
Q 1219 1581 811 2004 
Q 403 2428 403 3163 
Q 403 3881 828 4315 
Q 1253 4750 1959 4750 
Q 2769 4750 3195 4129 
Q 3622 3509 3622 2328 
Q 3622 1225 3098 567 
Q 2575 -91 1691 -91 
Q 1453 -91 1209 -44 
Q 966 3 703 97 
z
M 1959 2075 
Q 2384 2075 2632 2365 
Q 2881 2656 2881 3163 
Q 2881 3666 2632 3958 
Q 2384 4250 1959 4250 
Q 1534 4250 1286 3958 
Q 1038 3666 1038 3163 
Q 1038 2656 1286 2365 
Q 1534 2075 1959 2075 
z
" transform="scale(0.015625)"/>
      </defs>
      <use xlink:href="#DejaVuSans-74"/>
      <use xlink:href="#DejaVuSans-68" x="39.208984"/>
      <use xlink:href="#DejaVuSans-65" x="102.587891"/>
      <use xlink:href="#DejaVuSans-74" x="164.111328"/>
      <use xlink:href="#DejaVuSans-61" x="203.320312"/>
      <use xlink:href="#DejaVuSans-5b" x="264.599609"/>
      <use xlink:href="#DejaVuSans-39" x="303.613281"/>
      <use xlink:href="#DejaVuSans-5d" x="367.236328"/>
     </g>
    </g>
   </g>
   <g id="text_25">
    <g clip-path="url(#pe7d9f57b0b)">
     <!-- $\mathrm{R_Z}$ -->
     <g transform="translate(220.772354 182.41287) scale(0.13 -0.13)">
      <use xlink:href="#DejaVuSans-52" transform="translate(0 0.09375)"/>
      <use xlink:href="#DejaVuSans-5a" transform="translate(70.439453 -16.3125) scale(0.7)"/>
     </g>
    </g>
   </g>
   <g id="text_26">
    <g clip-path="url(#pe7d9f57b0b)">
     <!-- H -->
     <g transform="translate(270.168151 140.578386) scale(0.13 -0.13)">
      <use xlink:href="#DejaVuSans-48"/>
     </g>
    </g>
   </g>
   <g id="text_27">
    <g clip-path="url(#pe7d9f57b0b)">
     <!-- theta[11] -->
     <g transform="translate(256.261354 55.529729) scale(0.08 -0.08)">
      <use xlink:href="#DejaVuSans-74"/>
      <use xlink:href="#DejaVuSans-68" x="39.208984"/>
      <use xlink:href="#DejaVuSans-65" x="102.587891"/>
      <use xlink:href="#DejaVuSans-74" x="164.111328"/>
      <use xlink:href="#DejaVuSans-61" x="203.320312"/>
      <use xlink:href="#DejaVuSans-5b" x="264.599609"/>
      <use xlink:href="#DejaVuSans-31" x="303.613281"/>
      <use xlink:href="#DejaVuSans-31" x="367.236328"/>
      <use xlink:href="#DejaVuSans-5d" x="430.859375"/>
     </g>
    </g>
   </g>
   <g id="text_28">
    <g clip-path="url(#pe7d9f57b0b)">
     <!-- $\mathrm{R_Y}$ -->
     <g transform="translate(267.516354 43.350872) scale(0.13 -0.13)">
      <use xlink:href="#DejaVuSans-52" transform="translate(0 0.09375)"/>
      <use xlink:href="#DejaVuSans-59" transform="translate(70.439453 -16.3125) scale(0.7)"/>
     </g>
    </g>
   </g>
   <g id="text_29">
    <g clip-path="url(#pe7d9f57b0b)">
     <!-- theta[10] -->
     <g transform="translate(302.615353 148.237728) scale(0.08 -0.08)">
      <use xlink:href="#DejaVuSans-74"/>
      <use xlink:href="#DejaVuSans-68" x="39.208984"/>
      <use xlink:href="#DejaVuSans-65" x="102.587891"/>
      <use xlink:href="#DejaVuSans-74" x="164.111328"/>
      <use xlink:href="#DejaVuSans-61" x="203.320312"/>
      <use xlink:href="#DejaVuSans-5b" x="264.599609"/>
      <use xlink:href="#DejaVuSans-31" x="303.613281"/>
      <use xlink:href="#DejaVuSans-30" x="367.236328"/>
      <use xlink:href="#DejaVuSans-5d" x="430.859375"/>
     </g>
    </g>
   </g>
   <g id="text_30">
    <g clip-path="url(#pe7d9f57b0b)">
     <!-- $\mathrm{R_Y}$ -->
     <g transform="translate(313.870353 136.058871) scale(0.13 -0.13)">
      <use xlink:href="#DejaVuSans-52" transform="translate(0 0.09375)"/>
      <use xlink:href="#DejaVuSans-59" transform="translate(70.439453 -16.3125) scale(0.7)"/>
     </g>
    </g>
   </g>
   <g id="text_31">
    <g clip-path="url(#pe7d9f57b0b)">
     <!-- theta[12] -->
     <g transform="translate(395.323352 194.591728) scale(0.08 -0.08)">
      <use xlink:href="#DejaVuSans-74"/>
      <use xlink:href="#DejaVuSans-68" x="39.208984"/>
      <use xlink:href="#DejaVuSans-65" x="102.587891"/>
      <use xlink:href="#DejaVuSans-74" x="164.111328"/>
      <use xlink:href="#DejaVuSans-61" x="203.320312"/>
      <use xlink:href="#DejaVuSans-5b" x="264.599609"/>
      <use xlink:href="#DejaVuSans-31" x="303.613281"/>
      <use xlink:href="#DejaVuSans-32" x="367.236328"/>
      <use xlink:href="#DejaVuSans-5d" x="430.859375"/>
     </g>
    </g>
   </g>
   <g id="text_32">
    <g clip-path="url(#pe7d9f57b0b)">
     <!-- $\mathrm{R_Y}$ -->
     <g transform="translate(406.578352 182.41287) scale(0.13 -0.13)">
      <use xlink:href="#DejaVuSans-52" transform="translate(0 0.09375)"/>
      <use xlink:href="#DejaVuSans-59" transform="translate(70.439453 -16.3125) scale(0.7)"/>
     </g>
    </g>
   </g>
  </g>
 </g>
 <defs>
  <clipPath id="pe7d9f57b0b">
   <rect x="7.2" y="7.2" width="483.865991" height="203.957597"/>
  </clipPath>
 </defs>
</svg>
